<mxfile host="65bd71144e">
    <diagram id="TygUof7XHFhk84YJ8i0v" name="Page-1">
        <mxGraphModel dx="746" dy="308" grid="1" gridSize="10" guides="1" tooltips="1" connect="1" arrows="1" fold="1" page="1" pageScale="1" pageWidth="850" pageHeight="1100" math="0" shadow="0">
            <root>
                <mxCell id="0"/>
                <mxCell id="1" parent="0"/>
                <mxCell id="2" value="" style="shape=image;verticalLabelPosition=bottom;labelBackgroundColor=default;verticalAlign=top;aspect=fixed;imageAspect=0;image=data:image/jpeg,/9j/4AAQSkZJRgABAQAAAQABAAD/2wCEAAYGBgYHBgcICAcKCwoLCg8ODAwODxYQERAREBYiFRkVFRkVIh4kHhweJB42KiYmKjY+NDI0PkxERExfWl98fKcBBgYGBgcGBwgIBwoLCgsKDw4MDA4PFhAREBEQFiIVGRUVGRUiHiQeHB4kHjYqJiYqNj40MjQ+TERETF9aX3x8p//CABEIA0QGEAMBIgACEQEDEQH/xAAtAAADAQEBAAAAAAAAAAAAAAAAAQIDBAUBAQEBAAAAAAAAAAAAAAAAAAABAv/aAAwDAQACEAMQAAAC9QHAAAAAAAZ3LG5BiQ6hlEhSSLEDcgOWMkKSBVDKJCpcliBiAEFIAEgqKAAIqDQQMTIqaGANATedgAEXBYACZFxYwATRNxYABF5mgANMiosYAwQXFDACLgsEMTM7iwADPTM0aBiCaihiYJyFxQxA89ILBiGGVxYDAmoKYAASAUmgGiamwACakYwQwhjBgE0hMYiglUgKCSgzookoJVyBSEwIuaAActFgoGmZgUAAAAAAEXFgACaBpgAE1JTATAlpgNCVITTEMFNyMYIaJGhmepKrIdzZJQTGsDGCKDNtkuggtGdzoSrQs9YKGCKDO5sAAQE3nYxBWdQaiBiCbgLeYaKUaVnRRIXBBskDchGmdjQBnpmaiBiCLz0AActA0xiBxUGogbQReegABFwU0DEyRMY0AIVRYxMIuCmAAEuaGACaBqgAJGigATQqmgACakoAACLiwACLg0TImkEAUAAMEwENEXFgACaBpgAE0ihMAZFSxpoE0JzYgYpqCwATQouTm6cOgy8j0KMfR4u0GgIuCwAAJc0MAACLz0AAIuC2mABFzYACTRNzQABnpBbAACKmwBii4KqaAAI0zLGCGEUqEqCZ0zGWiSgytaElBM6QBTILCJ0kC0S2GdzYigU3IxghhDGAAJom5oAAi5LEDEE1LKJZUkluKGIAlliRUiC4ZRIOWixAxBNxYABFItDgAMwKAAYAACaM6VklIlXA3OhJnqJVJQwACWqENAhBUMoQPOoNCQokByzLUCMekJvKyiUVJBsQyiQHLKEihInTLQYgedQaiChBOmWgwAlhnpFgAPO5LAAAi89BgBnpmWwAAJqSwAAIvPQaAM9cjQYIAi4sAYRcFAxDCZpFJgAGemdjACbzLAGJkNUAAJyFTQABFQaNAwCKmgACagtywaBNMbQOWgaYACVIaoJKRNKhDCVSLAgAXMCxgAAAAJhFSzLJ66XnrEY9WWxjGuJ0pqG0wAJqWNTgdM8knY+GjrnCjZYZHecAeguboBphhv5Zp283SK5oE5HMZHS+eTqXMHQ+VnUcwdKzB3x0dJNkxrBRQJjItUIoJVoyp0QWhTpBQwTGZaTYJgZ6SUADkGhGhAWQC0ysokKzqTUkKJCdM6KJRedQaOQokAkNEkUSE3loNyxxUGjlg5BVnYwATkKmgTQTUGgmABNRQwQ4qSwAAJc0MAE0NpgJiAKTQAgqWAAICmnAAuYFjAAAAAAIuKIpg+LsmsdxxkRtTTmLaBiBOaOfWwAQ3LAAJqSpoMOfvR5t9lHJPeHm9W/ORNbnK+tnPPVmRdsyNQxNAk0ZyPqRi7o48/RR52frcR0vi7QaZN52UACaE0wACLg0EDEzPSLGAEXmaNMTAhplADQEXFgwDPSC0wARGmegJgo0goYIYQxgqCVQZXOggAi4LGySgypWSUCm0IbJKCJ0kY2Q6DOlQhhMawNtklBmNiYxKpG0waBNMokGhFOGMSG5sYEDTMwKYmAAAAAZ3NAMFNyDGZXSJVoBhJQQwM65ekpgJjM3xdJVc/UBQRK849GuXU3GCVQTfm9Brrxdg87g0JCiQHIaEhRAF5WUSFZ5c5fbz6lPMDTHQ0IZSSG5YxA87zNTJmjlk3noMQOLyNQAaCaixgAARploMAWeuRoAABnrnoAAZ6ZltAxBNRRQgBoi5sQAo0gsAACLiwAHNSFJiAFNIYAwRNxYABFSWJgARU0MAJqR0mABLVA0BNIGmAMipoYEMBcwLBpgAAAAEXFgAE1IwAABAMAABY68pp0TQS0GO3ITGqOm2igDjTyMvQ4/QKED5ujjM3WNbdnNvFQIt46jJYmmMAACaiwAOTD08zy/W830hDDPTPQYAKkTXNJ1qsDTg34xPfA693RFqySgmdICqDN2GOk2IoJKRnZZBTJz2gYwQwz0z0BoHFSWhDEE1LKJC0kF50USFZ1BqQFqQLysokKkk0cBRICEWSFkAXnRSQOXBo4ZTkJqLGIHFSW5YxMmosaAE5G0xgEVNDAgaa5gWAAADABNE1FDJCpJLchRINJGhDKJBcPdA75dDdJFJUDQVDk0JZE6hLTGALHcMNpsE0cx05nN1Uzk6wJaCgAAJqLGAGemJw+l5fqiBkXFgwCaRiuXvNPO9DgDXWDKse04deb0xaZ6AApFwmgAAGdxoDTCagdSxiYZ6ZmgAAGemWgwBxSKTQAEVGggATkbTBoCag0ABNE1NDEwmpHUsaaEmhsAAJqLAAIuRjBDCKVCGyJ0kCgQ2Q1ZKsJnSQYAMJqaGBA0LAFgAAANA0IHNDQBNQU0wAEmDAEwE5oABKpBpgmCm5KTZJQQME2CVBnRRBTM42gCgkoIKAYxDDO5sQwnj7ZMOhoHITpnZRDLkgsmiiGVzbwauAogJ1xssgLhwbEosgFplZThlZ1maiBuWOKksEMQZ65aDEDmoLAAAzuLBNDmoKaYACz0zNWgYgi89AAHLkoEUIEJjaABBU0JoHNSUAABFzQAhy5LAByyaVAAE1A6ljEyamhgQNNcxOwAAAAATQqmgAFNSUAMASAoAEwi4sABTUjc0AATUlADQEtMYAAEXFiACLgoAGmSAMYABGmegACmoLTQAEXFjACakppgCHFwUwAAz0iwGBF5miYIGRcWCYKNIKGyRslMBWEOkZ3NklBM6QUUElBlSshaIhaSCsJbZEaSUNklBnSshaBmtZErQmMhjAaAaFU0AmOXJYgbhiqKGlJpKC3CLebKcMolGkEluGU5ArPQYAA5cxFjEwAAAE0RQyVpgWkjQoJKCCkMYS2EUqENBNSDTGSFQ0aEhRIKpZRIUSCvKiiUXm4NXAU4BmdlpAxAry0KEBF5miaAAjTLQYARcFuaEMFNZmoIYBGmdjEwi4LGCAM9MtQADPSCwAaCXNjABAZ646jTQZ6ZmjQABF56AAGemZYMQBKYU0wAIuLAAJqCwAAIqaGmAnIVNAAE1JYAAE1FgmCm4KGAATU0A0E1I2MQwi5oYAAS5gWAANMAAmpCpoMN+cznrwOgz5jrvi7STBnQYbgATU0AARfKdM5hrPPZ0SBYAAEtSWc8HYZ6EVz7FKLFOGpoZYnWnJx9nNR0k2JWjKyyCwidYAsM1oGVqyW2ROsCdMlWGavM0GySgy0VAMFnrBYIYkTrlJuYalZ1JbgLIB1lZZAUlA9OfUshlZXmbEMohk6ZWUSi83Bq4C1IKoopwFkgrx0KJCocGpnYxAnNDEDlyOooYATUGgmABNTQwAz0zLGgBCqLGAEXBTAACbzsYAAS5gWAAxMAAmpCoZUMHlpI89QGkZcenQa0gYmTU0AARckapijRCVSU0DAJmqOeOuSk0cPdlscvSwxNcznjqwOrLbEnk6uY7dZoYBnpFg0yMNAvnvE64rnK6OTrBgE1BYmNMOeN8TazMzjbI6LixiYZ6ZmgZmd56Dw0ZqRgdedcp0vls6cdeY2qeY6dObqFzVgdV5o1MNx5PM6ABMDPTPQABZ4I7FHnnqEoK5+kEwQ0KpoByPKOQ07pZQ8xuaBY7krmk7Xz9QsKg3WnOakbElBFLI1c6ExrALSTDXLoM7GIYKbkYwGgm4sYAA5chOwAABWCRy0ASUc3SE1I3zdA+fp5iOhgFSNUEsokoJnSRUMkqAnINygQwihiGCVIi5sQAY7c5crYpSwJZZIWQCvLQokHFQauEaKURthqUSFQ4NHKLcM49dkUmGO4EaZaDAHlrka52zDcDn6MtTPQDB7ZjboQBFRoRoBhdwVwehJy9gEZmhoAIAz0z0CawMq6ZM61Bc3UGG02CaCakVyx56M49d4M70ZjFUVF0Lk7IOPoVGrlGW0aGfm+gw3FDCDPbDpoBRni9DbDbOroCamgACLgsTAQTcWMAAJc0OwBDAAAE5Dl6uMXVnsc2udGzmzkx6g59Ngrg66G65Tfl0xOzXLUJqCmmHJ1cZdaosAACamgAAgHUWAAReZoJFGOpnfJ1jGAmES4HvlqRg9DXHbmN2mZ3juJyxxUlCYDCQoRUDWCNr5O0zx6uE7Y0gooJVhjpOhBYTGuZLtksoxssksIjaAKCSgmbQFBJQY6KzNaApuSgABE1NDQhxUFOQtwF51BqkzLVArzoslF5pFuGWQi3AaOAuUGe+VlqQalD0ljcMV52MQPOoNUAAE3noMAGiMgKAAYAAE1JmqZoSFZuTUkKJCakCpC0glqyiQrOpKqGPzvQDg6doNCQolicsoQY5byVrFgAGekDx6MSdkzDeLKABMMebqZVIMNUzTzvRxNefpyHnqjGOoOfdI4+nDtKAJqKKACL88168dg4u3jOzPTI2EDAMtctQAHlpmWMhMCbz0oACLgsAACU2MAARGmegJgs9MzQAGmZ3FgCHnpmNjE0wzuSmAJhGmdjAJmoNAATBNMpNAAKpoQwSqShhJSJqbJKCZ0kCgh0EXNDABojIChpgAAATUhUsYgJpDGCAJYDAAAmpoAAm5BjENCm5GMEMIaoRQc+toilZJQTGsgrCSgyboksM3SM6LJKBRpBYwBhnSoABTcFNMBBFyFuAtSC0zYodlQ5NSQtSE646FEBebzNnkjYzB6Y6jEis6zNiQpwwIopCKEidMtBiB53maAAARcWAAZ6ZlNMABSwoYIGZ3noMAUaZlgADJaYwATQriwACXJYAwRNxYABNQW0xDCLihgABGTRTEwAAAJqQaYABNQWAABLQUJgmibiwACagsTGICagsAACKmhgAmibiwBii4LAAAhqhgCGjPTPQAAi4NAAaCbz0AAI0zLAAAlzQADQhXFgAGekFgDEzO4sAQ4uC0wADPTOyyaFGmZYMQwilQlQSUiKKJGExrmN0ElhlaolWERtmBYQ6DMpiLCCwws0MzQM51gCgltkDYKgSpEt0SUhKkUAMSC86KJCocmhIUSBUWDSKAjIChpgACaHNSRGuJz9NSWUhOgkoM22IoJGE1NAAE8+xo5Y2kORGiQMkB5hq5RakFpjRoZhpBBq4CyAKzZoQFqQVRRRIVDzNnIUII0y0KJCs6g0csYgi89AaBxUDqbBNBNZmyGJoIuLE5qDPSKsAADPTLQKkLz0zLAhidTUUMAE5CpoEAZ6ZmgANMi89AQBnpmWDEAS0yhAwCLiwADO4KGAARcsoTCakKmgAEmiwAAJuLAAJqSmgYBFTYAABGQFAAAAACaDn6OYpljXLqbPm6hiCWmGGiLjTjL6OLtHOALecjTby/RNQBTUlpombZnOepqYaFkUKubQ1JyOjDXI2a5S94RT4+ssAQ0RcMbQEaQUMEMM2rJx6OE02uCsL0GMM7KErCJ1kTpkFojPZA2yC0ZEaitWTntmWqQhhlaokYOGGiMzV5WTpnRSQVDguoZRIVnWZsSjQzYtMbLUhWbk0cBZmDedFko0UA6zspIHFZmpIUSgrOiyQqHJVRRQgQkaEMsQKpoAAmpLAGIJuLAAAIyAoAAAAATQY6sctGOlQVSBiBCY5oBMMtY0Ma0Az0gjRsGmKagsaM7YZaTZlqBjqw49r0Ma0RC1zHydwJgYWUUACYRhtJpz9MlRpmWAABGGzOLbpzM3tiY9OWxhobE3FjACLkFlRo8ahmOlaqNR8/RByduNhBzx2rKToeO4mKovPQACFzdBty7yatMi87GAEPnOlzmbGWR1Z3ynU+TrA5ugjXg7xHNuVHPqbAAAQ1QAhggqAoy2FGmZaYThrmXUMoVk5bYGtABQZrOCOydiSghuiCwhaSMbJKRNxYxMAIyAoAAAAAmpBgIGTOkDKCCwyrLYRYZmiM6KJLCFpADokpkRrIFhBQZ0rEUEFoy0mySmTntAK2ZlhjasRQJUiaixiRWdSaJAyQnTKDpM0a5EG5IWQg0xo0eTNM3BrWbKJDPWGTqgqBC0ysaiY1zFXSkQ0io0zsADOhD0QNoM9MtRgjnLZpGgYaWE8/RzF6VZjWgc2yqMb0Dg36M60EA0yKix4bcxO5QZbM5upMU3mWAYvQMVdGewGGNs3qWVy9XOc/Q9icpDqACpoAYpqSgBoCNM9AaBgGQmAAAAAE1IUgTx3Mst8xzsjO2jm1pHP2c/SNNE3FDishqucfTy9RlOiNouDQAACFPKdehmO+boFU0MAJrIs5dzSVyHXhrmb0c50YZoy7+TqNABRcGieBn04dBlK0HeFjxMDs05dSrxwOnTj7Tm25tjbI889R47AARcWMAU80HXWWR0Lj74zmsK64OeNdufqrKubE702QsLNygmdOIz9Dn6iVbM1rmMpkLRnFe4BQSUzGyiVYZxtAygkoM6GKNQlUhUmDQPO5LEDJCNIZZIOKg0cMsgBwGjhGigKvNlkBcpGhKLIA0zsYANMyEwAAAEwIqQlIrWAuBFuApIE0FkBagC8rKJBy5LrOinAVDg1cBagC8rLJCiAKzookKy0gtoGgJqaKQhzSM9s7GJhnpmXFhNAZ3GgZ6AY7Ymk6ARbMdYsw6JZhl25GjTAAz0z0GAYT05hlrJj15awpqay00ITA4V0RXTjuo4TtxrbmqIz106DLTiVd4AZ65ltMGglpjAgGiKmwAFnpFWAABFxYNMIuB1LBgKLksAQ0RcWDTCLgsGIAlpjABNA0waATRQAJhFxYwAAMmmAAAAAEXIVNAAKakpoGmhCYwAGiKVAAKaQ2mAwU1BY0CYTUWMAQ0TSYJgo0gsGIYZUrEqZCtE0qJKCJ1zGtAgsMrLMy2Z59GQywgsMbLIWgROsDKBFBlaoRSCLkwOgAAcUi3AZxvJyd0WNJFZXkbkBZEmDy7TUgNIUmrzDQzB1lRoZBqZg7ws0MwvMk2JYxBN5aDEDlyU5oAAlyaAAAZ3Fg0Di4LaYJhDAbQCqQaYAxS0U0wTQqixiYAGQAMAAAAJqQqaAAU3BTQAAgBgDQE1FgAKakppgDFFwWAABFTQ2mCaJqaBoHnpmW0A0EXFgAOWhVNDEBFwWAABGmeghoedwWAABFxYABnpmaNMADLXPQAYovM0AhgEg6YEIFSvOxoB5XJapAmGWuWhQIcuDUFAmiLi6YAAhUqEMJjSAbQxBNToSUyI1kl1RmaBktEC0CFoGNqySgUXJQwRTMnTINAzWiJKZDoIKQNghoVxYNAwDIAGgYmAATUiGCMdxK5GqCSgzKYhhJSM7KJHiaK0DGIoJm5G2EjRLVAwAAi5oT5ukM9MzRyDEE3nZRIVIh1myzNlwpNlAaGbDTGyyArNwbEBZEj05Og0MwuCTV5ssgFpjoUIHFQapMAIlzdMAE0RpFgmE56QaOWA8gvLUGpKzrI6SagTVZa5ajABOR1NABCi4qgAAM7ixuWOXJbTAAlNFggAIuLBMFNSWDAAmoooAJqRtMACRgwATRNxYxAwDIAAABgAE1IxBN4bmRkzQmjUAloKACaRxdOewYbQbTSHU0AIU52Ws8jqIg0T5jseOoHL1E1KMujn1E86NFOZu8wWuOw00Ccjc0BjJvM852HJ1jM8ja+bYs4+sedcJ3vOiuSoNd+XU1FzHVGmZYwQ0RcQbKbFCRqUEouM6WlSUEzpJDtkLUMo3zBaoji7eY00dmcbIxjogm6Ym2ZWqAYJUgYAAEVJaQNwCvKyiQcuDasLNCAZIaKUWQBedFEovNyakhZIJyyyGXJJbhlEsBBQgaEK5oYAAGQmAANA0A5cjrOiiUVJJoIGJA4ZYgBBNxRk9AcuS3LGIJHJabEwIvOwGzHUQkUAAlUGk0BjsjLbOyhATUjc0ZLYDn2xJ6I1MzQIy00PP7eXtObLvyI5+/E5e2w8ztNjDXPYM9MjYQABnhXQIsOddOZnsqOHodD0z0AAJqCh80bWpIWWtbc2/NGHSaVyehxdwkwWekFsA5tkIeQ+nj7CIVk564k9uHQZYac52vDcADPTPQAAi4KAG5YICgAAIuLAAIuSgYmBLTAaBUgGySggYBQQtEKpoYAAGQAAAAAATUg1QhhM3JQwSoM2wBsgpEUqEUEq5AdEFhCuRlBDoMrViVhBaIbogsIjXMooJVozooSsInWBOmQWjLDrQjQM3Yckb6GO2gZzrAywhaIw0LJVhEbZlFIQ0c/VloNyysrzNSGWpQtMrLIRcGZ0KQdQypJNVDi1KovKylIVm8zoUhRDJ0x0KcscVibZPI30QS0xNggRGmegACmoLBiGEuWWACaFU0AATUGggYgTmgAGmhtMACWmMAE0KpoYAAGQmAAAAAE1IVNAAEtFAAASAUAJMJqaAAcVI2mDQEtFgAARc0MAARNzQACz0gsTBARcWMAIqCqljEyU0WAABNxYABnclgAAZ3noAAZa5moIaAi89BtMM9MywYhoi87GAGO2ZVJk0MQmUACaIuLENBnpmaAAAZ3GghsmdIIrRkFhkUxFBmaIyosgsIjaAKZBaM3TEWzMtEUMkpClwaiBuaIuaGIGiS3DKcA3IWSFSSVUWMAADIAAAAAAJqQrOiiQqHBqQykgTkLJClIF5ssgLhyW82WQFSpNnmyyQKystSFEod40aKAuCTQgKIkrTCzVQFzKNHmy3CKlBo4CyGOsWakBebk1eMm5DI0zookKhwbJAxBGmWo3NBlrmWAMAzuaAAM9MzQAaYRU0UACck6ZaAAKLzNBoADPTPQGmEXBbTAES0xjQKkZ3FgDFnpmaAAASJltMSaFUWIaJm4LaoTAmkxgBFyOkwAEAMAE0KpoGmABkAAAAAAE1IVFjQBFyUAABIAwATCLiwACakbTAAU1JbQMTIuLGhEvNFac1GtYI6c9My0ZF8x0EbcPYVhrynbNQW0CXPoaLm0OhoGCMcrg6NUDzvM59EzdvnMtsO0QwUaZlqwzLDKloRTYs9oBaIkpmGi0InUM894B0ElBnRZJaJVoy0VkNoM9cywAAI0zopwFwI0IZagG82aEBooQXlZZAXm4NSAsgFUM0rGy5SHUMpIHncGjQMAm4sAAmoLc0AITQUAE1IVNA0DAMgAAAAAAmpFcWAATUlAAmEpgwATRNTQwAlobljAFLRYAAE1FjTCc9Uc+7o5r2Az0wEn0CAOPrw6COfoyN5qC6ljWEHQuXQ6QBoRPP0sbjM3zuCCtR8+4ef6GegABnpmagCAM9M9AAKioNEwTSJ1x1GmCz0zLAAAi4sYIachU0E0h5a5ljQAEXnoDAU3BbQNATUsYATSJuLBMFFyUMEMM2qEwGgAbJVhE6QMpkOgilZJYZrSQbZBYZtgFBM6SFTQADAMgAAAAAAmpIp0QtEQtJBWEFBBQBQQUGdFElokpCVMgoIWkgWEOgztWSWGZYRRRCsIjaALDN2GNOyCwznWBq2Y6UGY6JWgZloTbObawmbQNgmBlrFiaBxUGrlFEAtMdCiAuVmdJKLUhGuNmjyZpk8zYzZZmC0xs0IDSCS6hlEsed5mqAADPTPQGApvM0EwAJaYwAmpFU0MAUaZltAwRFTQ0wkcluKGJii4LaYCZNxQ2gJqC2mABLTGAE1IVNAADQZgAAAAABNSFRYJoJqShME0IAYAAE1NANAmgYCACKktpgATUWUJgmhVNCGgi4LAAEReegwAz0goGABFSygBTUlOaGgEmFcuvIdU+bud2uegAh53BqACaM9M9AADLXM0cspDMtM9AAHncFpggCKmhgwmoGyiSgmNZEtEQaIytWSWERtAiwh0zKiiSwhaIimyCmTGkjGCAJpMYgcuRuQpwFykaEMokC86LJCoaKcsokAllkhUiHU0AAAGYmAmAAIATRN5WWpCpSLcMolDSCnDKJQXlRbzC5UmjzZahFSSbGbNDNheVGhDKUg7zCyAqXmakBZAF42aEMrOoNCA0UA3nRZmGkKTVwynAMlD4u/I5u+KFplZSAJqDRpggM9M9AADPTM0TBNBOmOpSAM9ILABNGemdjBDmoNHNAAKWixAxMzubATCLgsEMQTSY2mEUgaYABNSUAABFTYABNSDGABKqSwAAJqaGACaGDAAlgMAU3IVNAADQZAAAAAAhoQrz0BMFNSUAAAhoYAJhFTQMBKpCpoEwmNMywYAibixgDloKihgCm4KGgAIuLBoHFwUDEMIc2KL5jZ1BbmjLTDoIqaGMEqRFyDVAp0gobJUbGVqyCwidYAsMzRHPrlsIpkxrAygkbMqGA0OWi6gLIY1IaHLsaEMV5UWQGkKTUgLUcp13hoaOAqRFOKGICayNRMYgm87GAE1BTQMAlOTRpiGiamgaBy5LExiAEFAAnI2mAAxBkJgIGgAAE0RpnoDQE1I2mAAk5KAAETcWMAJqQqaAEGemZYAwCLixgAnIVNgICag0AEDM6mwaYReZbTBMM7iyMdczXLbE00izlvaTPabGACaJ5+jnOrl6sy89cCtGgoDj6sdykAReZqnJGmbOfqy2AGKNMy4rEu8dzM5tzaHzm0yjV4dBcYI6s65hdmeJ1vzvQJ0y0GAEXA+XfEzZ2GZzs7GmE0hMYlQY83RkWaSLSmZWUIoJnWBDZKvnOfqWg6KJVhmxiTgpDG0wcMGqBoHNSU5oAAYGAAAACAAE0Z3NiGCm5BjEMJVIYwkoIpUIoJVoimyVaIjaALCCwztWSUErREUWQrCI2gCwgsMbLIdBMawMpmZoGNqyCwidcxtskpGdKwGgTgsllkBSSNTMNFCDTHQokLyqDUlghka5UWQysrxOghlEhnrGgJgZ6ZjoZBYRnqyuHuDl6Wibz0AAJqSsdwlgc+02MAcuR1LGAGWuRG6ZylbiqaGAOakM9IOWr3J5utFUmNNGAtznz6JIe0hG3OLG9jSlgb6cPYVNIGmAMBMwBAAAAAAmiNM7GAE1I2mAARSKQAATedjaYS0FTQgBRcFgAATcWMAJqQqaAAIqSmAAEXFDACLzNGmABnpnYKeQ7s80a6crOk5+gyMGdhFhNSNpgRibuec7DHQrl24zfpyosQOKksABhlplsIMzTPTI0GEjRNRqSqCIuS1pkNrQyboRTILRjbokoIWmZY2JMM7iwBFSIuoZRAXAjQgLIBXmzQgLlI0edFEBUpGjzopARpnYxAZ3gbTkC6VRPL1UcfaqCakKmgABpnOAAAAACAAi86LICkkW4ZRIOXBoSFEoLzo0ICkkOoZRAVKk1IRoZsNMbLeYWkh1nRakKlI1ICnmBpjRoQF5vM3ICyQnTBiRsKbknQY3IZaToDQOLzLaZhvFkcvUzlvpk5dNmcsdLLoAi4LaBywy2z0MJ3onk7MhumY8/YjPox2OTakXnpBlC1N89MCd+boLAGhE3Fg0xRpmaAAARU0MAIqSmmMASclgAARU0DAJqQpMABJobGCpEUqEqCY1kirCCwzbYimQtJCpoAAaDAAAATAQAAZ1NgqBKkJqhDBTSGqQikRc2AwSpCaoQ0KbgoGIYTUWNMBNCpUIAJqSgYhhncaAAGemZYMADNrQTGKNIKGCVBjasksInbMC2Zlhk3ZmaBC0RBdEFhmtECtmboMtI0EMFnrkauQokI1ysogLzcGpAWQHP1ZUaEBalFVnRTgLzqTQkKEE1Fg0xTUFVLG0xTUFtMACKixgBNSNpgAJNFOaAAmpoAAmoLExoCWmNoHNSFTQAADOcAAAAENACJqaGACaFUWAApuCxMACWqBoGgFU0CaCLgoAACbz0GAE0gqaAAmaksAACNM9AADPTMtgABF56AAPPTM0AAAzuLBoKzvM0aAGjPSLGAKbgppgwJTRTENNE3noAAZ6QWAMQReegNMWeuRbTAAzqaBgJVIqVCKCVUjGyCwybsgsInWCXTJdMzWkg6QhhnaoQwU3A2mMQCEW4oolDrNlkBUkmhIU4BuGWSjSEi6mgAAAwAGmgAEACaIYDiMTqfP0kWqJMNSp0kBgmwzoYDBJIqlQlQRz9PGdRQSWjO1QDZKtE2qEqCI1kCmQ6RnaskpkRrAygktGOiBvLYUaQaAAJCrOyiA0gg1eYaGYGmNlvMLlQa1mzQgBwzQhjEhXnYxMeWmZqCGAZ6ZagAPLXI0AExEXFDBDmoHUsYATUFgDEEXFjACLgppg0yVUliYAEXnoAARcFNMABJyW0wAJqaAAIvMtpgAS0xgDi5CpYwAAjBooAAEAAAENBlMsOnl1NL4+s5enio7J5w6wQAE0mNNHLntY4qRbZ7EcvX5531ydRz9GHQZHH6JQAJoKmgTwLhQdOfPsbVFE3noMTDO4NBMWG2BeekG+O3MdM15h6rxstcOprpnYxMedwXxrnOzq83qE+Lc7Hx6nRhpwHovm6gAJaoBhKqBNaEqwnm6uE66oJLDG1oQWERvkMtElBkwFXL1Cm4HcsblFwSbEBZALTJmjyDXMg2ebLIY5EaOGUSE6Z2MQOKkpyxiYkSaiYACc2IAUaZltAwCWMAATkbmhiBgRgBQBAmUgYgCU4MM+1mdUjPXOzlroCVcmpAUSDIZoSFSkF52Nwi+XozHpDG5DLoyot5hpKku8maZgY7CNCAsgHeVFuAqCDchmJsiamhpoOTszNeXowM9ekIqLAAcXzGc7bGepRy7zqMAXP05i2mgAJx0CraOXHpZj15Bm3IU9CjnZu0EaZaDADPTM0RmTvNGeOuRegEFyFZagZQdMKTWsdiZdk1niaU7CM8jrfN0gwEmhjZKoM7jQRQTOkiKZm7DIsAoJGzLSdCFoERrIDZJQRSoRQSrgdSxgA0RiAAAACAAClFwWDENEVNgAKbkoGIAlgMAQ0K4sQ0GemZTAACKmhtMJpBU0AApqSwYlSJqaAYKNIKYxKgyudCCwiNpMdaZKsMqLILCMemCHqEGgc+hZK0CI2zGxgAZXFmjzZWbQ0Mw1oKkkxe0G5DI1x0LIZWbg1y0RRLIvOykMUaQRqqMVuic9pCwMtkziz7GOwM52gx6IRqACEU0AAZ6Z6DEwmoKaYgQmmUAJiFUaAAEXBQANMikxtMIuAaoTQMAxAgAAAABDKmLksAEwzvOxgBNIYMQAk0UACaFeegACi4KAAAi5oYmE1I6iwAFNSW0xAEXFjBii8zRpgCM9MtRiYReZoAABFxYwBZ65lgwAIuLAAI0zKYAxENUU0BNQU0wAEhFgAAZ6Z6AMFGmZaYIYZ0rJVhM6QJ0zN2ETrInQSWGVzYhgo1zG0xuQEg0IZRITplZRIXBJoSDedDJDQhlEgtMrKJCpJLEDExOKKExxUg1QACAMgIAAAABRMsWemYygktGVFElolWiaKIKCVcjKCVaM7nQkoJz2gRYQWGdDEWELSSKqiCwzWkjKCVaIubEMJm0NgCqTPSKKcIuCTZ5M0M2LXHQolFQ8zcgLeYF4aFkBcGZuQFkAXjqUSx53BbTAAlAWJgAZ6Z6DBDy0yNQAAM7ixiYRcFNMAAi5LAAAz0z0AGKagoAYAgRQAAEXFgAEXBRNDGEgFAAmE1NiGCjXMZQSUGY2J0EzpI2mAAJhiBAAACgAJiLPSKtMAEstNGApNJFU0AAk0WAogSLiwAUi80sGJiIuKKAHLQVNAAKaRQME5JuLG0BFwaCBpoz0z0AYKakoaBARrhqWSwy1zLGCGEVGgKgjPbMZYQtAw0LM3YZxvAqoJbQhMbGIaM9JoYged5mrgLUhOmTNHmy83Bq5CnANEGxDKJCdMtBiB53BTTGIECLAAAz0z0AAM7zLpMGgQmUAABNxYABFwU0AAITG0wmoKaYAAmoyAAAAFAAARQFWAIBYoEYCiBFQAAqQJTBRAkWAMFXMEdDCgBIYFADkAoBoBICmASBGgDAJQFsAQEWAwBSBYApAy0AbAqALAAAz0AYAZgWANAZ6ADAMgNGAICKAGAAE6AAAZgWwBARQDYBAFMAAFIFAAAQwAAMwLAEwBAUwBgTYDQCgC6AACQCmAIAoAAFAFgAARQDAHmBbAAIAD//xAAC/9oADAMBAAIAAwAAACHkFH0mGWW203WkE1FX2EEFVm0Xkw3mn1m33HVnMFVf2/Wn1UEVGEUnEFWU0UnWU1HmF3EGEGVXXEFnGFWVm3EUXnXnXW210kfcX3322EEFX32WW0XUX3HkXH2Gj3w1G2W3nX5XEMlhpF9HGOWF3k1G213U2Hn0n02k2EkEG0l3W1UlGEF1GnkHUHVU1HmHn31OdX3GGWlUF31F3mVXVnmkFUFEpa30Ukn2lm3OnXEn2EFuX1Ukmm3X33V23X1n30GGmW13FVXnU02HHkX3XkFnX0XmFXEEFHXlsP32EFXyz5reXV2mV02FX22l0AgXdn0mWUoE9UU2FmMV931UFmFW333l2XE13kFmH1kGXXX0nn20EF2UEH2E2WmlkUnFHUUlEML0EHXEZwhD4Gn0Vld8sLZmGmO1U+F/ClnKjpU0XUFnUV2nVlkG2U33nWkEWE1nEGVml2n2m23GGlUVnkUVlVHmnEElFWUXlWsL0EH2mH8yL72G2nWEWkFEW6VH5lOnH1nU/daek3XlUkc1nXHmmG1V32FFEWV3HH3XH3k13kFn1k2mEG0U22EFwk323k30GVHev0mHkGXEUmXE30n2V11KE+LHWKpRWmVH0/nKq7pG1elOMFk2XW3VGm0HH32HV200U3Fk3EHHX0GH3H2UmF1n2F2mE1G3F3kn8L2kEEmkVH30n30HF0VGHkbo1tCdGkWl21l3Ib282m8npbdF32Gm3X1nlPnEmn1XnfUHGFU1EnHEHnXk0FGG2Gl1kUkl2X0G3erX30FVnlWEl0nGX20mlXnHHGkdUVmOX210FfPkeHm83fdOnylX3mkG0n1kE1FlXlnkVW2W1VUkm1VWU0l0130UnlVkn1VUV1+5FH21111WkHEGFWGEV3VnFW10mn133Skk0Evq3NldMnOk2f3UU3Wl1WkHU003HkHnUVlXGU13lUUH22UmX32nWG1G1HGW1mFeokEH31HHlUFkFGEHkkFHVlFH2Hmn2lXHGEG3319HsEUGkGXFVHk1nlkkRmU03XEEPW3WkVnn2EF300WF1kwihjwCCRnV22U1Xo0kFHkXGBXHQmHHXXg1QEGEEE2V62VF3lMGdXU8nMnGUUUUkHEH3lHW3mFm1Wm31kFVn32nVG2kF21EHkXEkHwzzl0UV3nXUH732lH0EE01XTn131F23UUkW0GUm4gxw0Xv2IF0Km/124lHUnXU2EEGHWgXkHm4llOUe1mG0Ek01HVEEU1WRnxQFTXVUFGFW0H5X0kFUV0nU3aXnXnGF3m2FFlW0ET2H3UWGmW1GGEF1Ej2UUlXkV2kW1UWknn3E22EkFFGF2VUVFkF0H10kBjwSQxSyWk3W3VHonHwVlUUz2FYRziFWmmj12GlXj275yDATpBqVUoEOWHX2EnFUlWnFm120U132kH331mF3FVGHk3kUF2l0F0dNH/fFFUFEk30X5kXH22SUZ2mS2ySEEFGj30nm1X3nm1zFECFckVeEcn3nkXm10FGHF2m13HV30nnmH2n0VlVFGXEFHkE303SFyhDSCBEFxSx3W/32EHVaB5CGJzCAFCFUw3nw2HHEGV1xHEt1mX0Vm0V00FWHmU0GkE1P8W2lU3kFUlF32m20HHmnV22ElV21UkDBTDQjXCy1WG/2kEFGw3DHybzgA3DHXAEGiV3jHFEnkG5JwZUF02Pln0nmGmnFEF3EXVnWn2klUVEUX3X21GkFnHn0GFXnX32ggzwSBWSnG0FO0kEEHQBbDDYhCJHx00UEGxX2nn0EHsmGvH5W1v2HW130nmFH0lWUl002W1n0lnXk3GXU12H200EnEEn2lV0hDQBQQSARzhy1N2kFUGqa7abLLo7AZyHxn16Vy7+uEGgElLT6UHIUOkV213lXVmEF/n3W2nndmWEEF1H32l1Xn0U3GGF3F2ElFD3xCjjAA0BgENHX32lzxpoyDgLYjTEGlVlLmVX0+UFE3W62tU17AQEmVX3FV0nFWlkU3zjhF2VkVnE3Uk1kmE13FFlHUnkHlTQGwwDDzRQAAEMEXnnnAQ7KJJaqoBSGmWXGEV1PUUEF/Xkv2f31gDjWVXXmUNEFElc9uVnH3WkWHlXVHFGn30EHEmU3FVE1SmQECggggxQgTAkcEGEFCTzarqa6J7DRzkjG2oHWbhZmOrFF8Vpn3IVzEUa3CEGTFmn91NHTgg2FlG0Hm2FG+eU2kE3WGGW22jXAkkjjjTijRyi1EkEEEiDDgACqhyYlemlUEF5Vl0GUnHmlXUGsHk2mWlGG1kn0UX3R8GcngWg1GGnXnnw1mFHm30VGn21AEnTXTwiQSCTjxSwTWkkEFFj5JKbzLB7qDamXylv7G1XnJWHNFO9lf32tlRVlEUUn3FHW3+kOeVf09ulXEkWV/dMP33WmlGWH0HX2lkDwDyxyzARjwH2kEEFqgDqxQjyTgDgXH3Vkk2WV30kHtn+02510EmUV0BEE1GVVn31S3UlXw2Ujk2kXm3V2VlHUH31nVX0FW0URiSyAzhijRwjX2EEUCrSKzwLxg7zgXkXWFGlXW1G2kP1n83XHWnUnX1H3mkGHnlcPHO1VllVH2U0deGU1GGnV3Gk3nGVFH5gxygDChwCCCTi1X21kEBZr4aro7YLbrzFyjR6W0iHYHGh35rtpc0AHwFVQGmkWxEVnNFWmlHk2VWEVdW321mOU0EHG0kF0XklGhBDzAAACAQjw1XHXkEVzjYqgYAJJBgkEyHyAE30WnUkVW0znTHV3mKGHzWUEUj3GE9k33VFBFFB3gWl2Hn3FRimn2WlUBW0BxxQDRgQwgASjQHUnW102ob7aa4KIKzrS1hjCrl311y32I2FiQy0V/3RGVRX031FV30WG3W8t3Mlll2VE2EXVH20GnEU1FUGm01hiwwTDCBwzzwF0FW33x6r4QKIq64YpjSr22JF1PGwU0Z3qARrGF7GplXZkJXCzkU1EWXm3EEtFFlxH20knWUHk0kGnHGwV0FEAwgDwAgCjwjQH0kEX3zzwhTgYDgJwrShhH2RG2UHklEMF+Un5W0kFm033nUVVVElHU31X2F0EE2U320nlWEnw2WlXDkWBmhSAihyAiDyShTRwFUEEX0h6xpxCrr6Y5Y4o4zBpWCJCJ28Zk6aDqXs71qXnW210UknFEEXFFVHUEWW23VGCnEEX3XF3k0EFiGgiShhTTxCABTyhCkEEEGWhx1zSnrxirzwC0y2ngnUWlRlHUm8WWS2UgU4kW3W3Gnm0kE3zliQRDVG20R3CSEDl3zUngEZy6IgCRxgTCDywgQTRCy0E0U01CrxQFFAxxwBwwBhD3gG1E0qHnt1aBi4U3y1nk1VX2G030Hk21E1HXXUVlFnXh6HW12X3ChHwWmgghTjxiwyCwDAQBRz0F112EQZaJIwIC77Twg7bayqDgrzqOdJO6K57KpTgKmGamOX1X1SUEEFxEHAF2V3xjD6GIn1RFTwHC0XxCxglShiSyzQCDDzzy3GEEHQhSh1UjXhTWzT1jjHx0EDWREXvFtjCYHpp3Bm3AVUFX331lG10h21VkXlVGcbaXr3k43qLggDwIQALARiTBBDCRggjzzwknF3jpAjmXjibaDTA3LQ4bmyaybnIoCL55J57SiSV0ZGGl1mGVHnlXnV2WUUlH00nFm0UnSllX2AEXh2DADQwxQCBgyQjxzyz3HGUwpChS2BlBCGGlFTkXzViwGDX2q37iFr3YCWhSyZwRn0EED2WRlhllQTgXgjTjwk7p7aHsk2TESwUQQCQDSSAxhwSyxT00k0nGHKjDhGz2yBUEEVX0HwEzg24Gn6mahAKlUX1BX21FSHllkWF30nX13gnW3AxmW3X21m6lnV0rqDxyRwCYhghiiyyizRz2HHEX32qxLy2oDAb0nVX7DU+3DrzLVXKxojC4EbhSILYwhI11jFXnmwlT03BBRBWYFV/nGH0pEi3WSSjbQChzjRAhTCBBzDhTkkX31HGTkGEFl3kylmHn0FUEFXGEqFEfWOlGZUMH2VXHmmEmG00n3XEU2nVrW5iy4gJY2flgrQoBwAyhYTggwwziigyjgCjCD2n3HEWlgGAEHHGTY2HGmxXve2PoM4m+b1ZfG7DLAVKUXzEyFnlUG1nXn11mqlKVlb032mcGEAExQGQECaTyAwgRThziSxDiTzy3kFF2HZ012HlXWtHFHWHnEF0vE0DnHq07k0qmJVnrGZk8rw1kltnn/nSEGoMb7PpOIaUE0VCn6SkSkBYCBz2hjjTgRhxCRDhjh2kHWVDGV3nUlXG0n1VH3193EMHp30hkKHkL1JXn+1+XWMHXWHWVEkG1E1qmekH6GS3G0nlIEK4DaQwJyxwzTgQSyhSwRRyhDD1UG1WQxkHnH2HUFEU1Y0dZ0qoFK25Lio4YYrpCxokKDeKGz02kmVX1wUHr1MGUMUWXGX03dFkGnAkEj3wTyRCjzwSjxTxAQCK30X0k130HW0X3FVGkGtGHrGGEWCWVglwll5D7Umll0U3n0EV3wkV11yUFLWbUG45ayRgGGKV4zn6kSLzwzwxzhjCATTDyxgwL29Hmm3lHGEEXl0F3m0MmWmEeZyJ/IKD4mFSXL1Vl2WHk00En1AWG1FAW27Xt2l6kXn1yGWzUKeUzgi4xwiCAwQhggxwgCSxC7/ADD/APVeZXTeQbbTbSdTdTbaWSTfWddMeKUYYcaXTTbEQfcUEMOAeYEOGMfmb9WbuY4QfLWRIVCFRLfAmRILPPTWMBPaZKEOLEK4ww8WQUafWUfffXaQTfcYSUUaQKafWT6RW+VQYdQcWRaVZdZaRfbQTPTRsYnSQnbgLEjQLjNKACGAitGELCOOLDCEOGOEOAPAwywkTfRTZTafRTTaXUQRRVbcQXCVCOajVahrrSYRdHafAZDTWeePfXCQUhXtecve/PUEdauaHUZPPAnPDEPDWMPJEEHJHFCEczygk0UREcGQfeUCdfLeZbdWdfccRcRUTYYMbJWcTaJQXCXMHMLaJJXLBMgJjEosssJbmbAvONDZEPGuPLJEJYKPMLMHKJGMF3wwgg4QfIYIYXPYAfYP4AfXYfXXYQYXfQQXgXAQXHYHYXIQHXY4XIHYAHAvPoHngAoAPAAHvHnIHPIHnHIHAIHAPPPAHHHAAo//xAAC/9oADAMBAAIAAwAAABDl21HVquoNev2UPss8cv8A7T3Gu3rWfjzeOrKKrsDCAjAb7+RkMBalJGJ6NBcJPK905BuZmBN/Vl6FDhdFtN1hB5Bp1BFpQhAnbRhBtZq//RtJB53hbPDbHHaLyXub2uiqm2eZ6y0DLFyMvfEveq1Mdlix6RNs9YfNaVlaV7tJbxXaJ/x1JlVZFh9Jp5JFdM9cTvpVxBhur/nL5d5HpPb5XzXCSRNj+LDL/uOzIrLCHamHYzN6JcbV8h5m5mnF4h+edSVB29ttFT9buN2ZBdZEpZpVRlp59hkZabDVdhVLjDxVwPRtdzv+TeWSi6bf+oOTCzG16o/fuZb07Ihd+F5JhwF9Odyh9m5BRxWVJsBm9J5tP6RuFB75MNh9lFQlRRRRl0DC9FZJbB4DWvDZBpFM0kN5TLPgSfIqEv3eln9izC7T6GKzZUdEdNWNGGJaVJmFynvfVr6x2jvq9vxRqF1HlZRN0p0VptVtFhErC9FdRnWCTLdn1dP+vPzHTWdeWh7kuuX7CU0VZ/2XvGnk7h+Rshh2xdchCRFyRS3zCJZ+N+Dju91RB6Zl0NV95J14IFhtQU0Q7r9ddFrmHS2mDN/qmnripbg5P2nFnKeinP43Dp51LvcTUAr2R2dhKFxIloJxSpw1t2l1wpid9C9Fpta9V9JMdtchglxZtZhZ9XG1pR9hqZvRZD5jOqvXG3vT7PQ1MuePnrLGnjhqEXzUfzHgGlql9ORMKaE9ZSVe93UP/mdaLbuBtFhiRF414Mk4t0I5hZJ9VZbqJ19B9ytv/wBavy5l654ww33v5pM5sgTt+1jzHG0J34X1NZalP6QdLR/WcpYVJWhRSoZ/4dERYyaadZaUTfaEPMKQPKUfWZfUY7pbUbbXma840762z4382j+w7+4qqprl686vzEboOpGOxIf3C8iXXpVBbSgaZDRhfUs1gaevTSlQdRWdZYXaDXMNTBCcedQXeb6iVXVa5g5tw4o0/wDP/vPNt8f/AD//ANv69sw6i6ly1J8HxxofXgUiSWDdMfR1fZPThWbP8myWjV0u8tYflfaCUaQQVe6TRJWjQWcejSYbQzsp0rxw83owk2u3/wCIt6L6G65p6ZwezPOzNx+sadOb2qH1C1A23plERVIv06kDH3ckk5EYWXMUVTlzRwnnXQCTW20kf3ZHWmVf5MK1PN+PPto9ur+/Y+/5q1tt+YKC5mr4mrDp7na9ZUrnUo1jJZehZLaEO6RdSE9I/P7WoE1n0h313AFnxXSVy1SX0r16n0HHNa/7p/FstLdLce65PO8PoufK8bcKoPaPEbX59n+93Il42FKmAFEYnbh2Y+s4EZelNtsrVKznnXDEyFXW3WVEkR2LnU6VJk1QV9qvuZZX9MPLoZP/ACDGf6LDBlPrbbZn1GSpOsSiG5F0Vy5NmNEFJc50RB6BtEZalJ4B5ixgxxBhFFFs/qsH6Mhl56ZA+5WZVtR+3+VOG7eLPfWiLDWzyneq7mGO/wDmrxyI6uJxPl0tWduKBVZtSKOYGMHNWtV4m8gd1vrgkloQfFXsAIbPaWXaeZMB2XXmb0fdfXnUyRyuR06wmxq18jn4pljomst62iDvuwxkaLqRNTWJfDVYkUE5wHVKdUkRdGZhQXjUI7eofZiflcXFYBfQYdVeCxelnZ3aUa5rwn8q0X699k6h+3rm0ptzmnl4ilcV3dg1k7KrZpUpgaMXQiXPVQNcEKVlRruSsfQuRFfekeWgVgcedWLdTdRUaTwMLof5eca0i85d75a0yZo0j6v8mw3nizl6+Z5pHgev/KcmWX7SimdHSfBSicRhfLfZBThjboWbuborUhdOsmhMfmd38ZeQQUX/AHefW/mkFeLlEOnnvm/MtXPedLJH5skBD64fbpVc37akryo3yGjh2Rk3QfzVk73Bu11WDB0b2kJ3rn3h03xE5WHTmCEDHXG22WQHEH+Vu/8A+bbRtP7fpVfzK/qTyJzyazUCeWrmhqoO+5XWyi2KKAh2sVasUdxHvfdpcxww9GV5qx27PKGuwQm0lQM7BMv5FlR71NjBvB7HHiD3Dd5ZZtLzPmjKm6SnawWWCzcLTQPUrDXV9JF6doZTW5gQLmP1WBqRdAdUlJAltw5StBY15IhE9c9Uf+xCbTHHaLXXJzF9f/vHv9RhvBV1Pn7K3KeZKiN7FKYd/CoWRSuxGPe2x2LCq3cc8icOMnhfNtiFgFV4dVyXSNpvJUAJkJddJbM0LplF5hdJzltJXj7nj/D/AO3Tx3ViHo3pw9Zztkytm1uz5r6F50ldmYarTPZVHWA3iCgNRASEKibMUDZKAKOocQkXALX+fb0M3176741z5+y2KSbw03/ZaZd8R6YRwQqq6tCSyutlWr2A+LLxA0nNX0aRLYPXTBfOF6Lz7F5EzwMaCaQK97oxgSfqdTYUjbVvdETawUUZW+cS1Faw9/0U/wDGdduceM8uIMbb4oOpZpLs/wAb8OutaCi6GOOTai3AEts4BF9pacV089ImyMKZAQAqoJaxs85eBs+vyZ1StB1ZetZLZd/hT7vVLlH7VXLxD7S76Laqr/WjCDncXaQPOPdq1aZFu98pps5kXHY/9OVcxZGVyLjwRtIZikk+44IKaCCJjTHX6y627GzDH85rvL/zdr3RVjlvLBFP2njvp77jbhOq7ihhIl8WfqLOmTIqK8J0oN70pVmZYh1CFmzhqF6sfCpNGJshN8FriS3TNDF/x17Z3jMtP77PCPT3FzpXtPT7injOr7n3SLWjq6XCfP3+PqVB+VHliV8xIIZCUBKcc3g4zyLeOkdAx9bbi+SakpvWCTn7XdS5ivTr1fHAZ7bvfaBND5NLx7Xj9TyvLDBT2qerWGdDuHjb6fQV/wCfV8UnfdPQETSMeJv5D7ZLfjTaFUJUaMbZjag2UtQktI6ZQdVU354033IQ682/yVVW2f8AncfG0uO0qr1abAIe4bXIVNfmZ7kY0Ja0DGb9PHREJp2wjRJ5hKqNKoJnD02SGXLG57pt2L7r8l1l1HHHdGNvTUv/ALrj/rL3DZD7F3FfnvmmTDiyreeLUfsuLhj7S98RBcNetdap05t8hQB925dw1UvLONsc0XK+GCbOejy3P3Tnr/xfj7HvPDEpTH7DzZ3Nr/nFR91hdFtvb9anZfJu09SJZv1y8de5oOCZabiaBE99kNMUQyVkMJGlm/8AXOfUtU7ueh4nyq2ww4/14W49Yxb76Na0/wBvet7MvYW/MkcO8JMYo8do5KdouIOiJ4MaruJ1nArmpLa4o4Zbf5uMvOaKq9NrccYNpJfqrdbnNEDMs9ePeeM8c+2cm9OTXPvPO/UOvLpNfesMsffusJsIrZLV4dzc1tN3oKO6rU8rFJ1nB250mIFAVlAXzwUbZemOIN0buttotIZdefNe+/Pt+u++ZdscxWOeMNNH31m/0Mm0c983n29kPsV9UyjkAlFHlnFfckYqktSCoqptEy6oOr5/7b4lMcv2GVp/+7/+a86K9/8ALu37r3nzDtTFTz9sPX/PXTfPq+rOv3G7n67j+bL6fmLqWcSwzXFildyziyP5sBFUJWBZKtNZMUx8uY6s11alaqpyFh7/AM/0U94Qwz058++24v0w0da3y361W/8AaKO8G289f7lvl1r+W+H6nVNFVkE21ON+b6VR7HmTlo005nJ3URWj2349poVIcf8AjerTLCaTifDPz/3D3fz3bnzvBtz/AG164Ux3/o5q95ptl80tt2n3+o5kkYoV8sfgd8p6w6bx3GvuI4Urws5qL109uwy09yjVdabuEou8j4+v10455078zxz1Yw3DCQ3z2jZw4419v0w/m5/sgt/53ztQmkYjW06TumsNwghjqyXXKcKdeucgcd7MhAT8pmk7hinUpqkhbf1/zz89F026007/AOtc9yE2nXXKVOntJ2+smLaqbFc7hpPltXLrFOUNemLWeMjGdvunKIsIK7JfgdKbud/u7UoIBf4JpUYfYp9/tlsM9PtOVPn/ALF3N7T4JF5FpePH2X/abGvjPCv2vj2XyW7J2uMLM6uF78WgqKaPbKdYKNeFxytCw+Few3rQLF1Ks6bp3TDLLLPp7vLPbb3v37DfrRL/ANKQTSYfszvxl1ql8SqlnzxmKJoOUGZoCRscMvfyd3uatLwh/npBVjTUIdveQXySrldnorwOylxixxgxo3ew7552w5/43+x8eycbJWcXXlXmin2phvNglj5uovk6Kml+olUsXvncualtRtcgNHyvloMviN45agbEVZKYMSTmhii4rb4h6i1f24/l77aTa3wY7Y/ZUZXcYTz306x5y6yvwy/zs0hJ2vK8dso9oRhmctahrJzDpsBcFbWpRylUDR9Y/Pr5bq/krjlmbsZS9R75b9+6yx/2w82+0xz1ZXVUQeUYw1uixlghvwsn6RlEbrZSpShZW5XUZ8cY13dgSzNcq5lsq4kuvx0jU8AprJ8ks5u/1B5to8y/mxs+3TxdaXU8023w1/X6YTfYcq2ziWRYY88x3RPgkV/nvtyhp0m3guc9akpoWiRDiOOPR54sjm/knetWtlebW4/0kkapQ/nfu6S202zyZUyc668/+x3f6U2WVRk5yjOhfxsx2/ZFh4pmPT+ROXY/Upq5qQmil2hsejfs0b4QLoA4q3SwP7hcrvlk8jizqWCn432Q/wCuOLO8vdfuePMceXdM/usEYk2EX9tuNve8VI//AODyWy2bSH+3+6C+yGaay/2CyWHPbvcar3DbSxCsualaUKu/miv2/wA3gxo/Tvy4y9Ng7Wxqs0b2bZV3wy4UleXUb+6Uwd26fm71n/ivw47hg9Kw8B6lXXoYveTvaBdWrbCnv+otRifpvdjd42Zk6cx+617+XU13y524w9482x+S30ff89wkdxwznZ6/90839cgnju3gtpxr/wB4U6KGWW4oIDsa7PAcBSxGOAmcrpUaVq71owPfe8rXv+aZtfv2NdtdNT/9deOP+/snVg/fYJv90Q0zW1Emy0EBc3d508otJuZ6+I9ZfJdxiSE9J58DvU/OYudaePMUtWPGUnUM6W4PUdfs7eOOUd/OsshsPGuu9vFmU37/AP8Agow4fIfHQQIQHQYA3I3/AN95/wC/Ce/ijeBffgAB9/8Aff8A0PxyD3+N3+H0H+H+EGOEP9/+N2OH8MOP+EOOP9//APffjD//AI4H4wv/xAAmEQEAAQUBAQADAQABBQAAAAABEAAgMDFBQBECIVADEiIjMkJR/9oACAECAQE/AMLTY+pgtKd2sG54QUxxtJJYP4x52C3pTuOMsG54QbpjjLBaUwfzCnLy07abpjjLBPCC5tYKYPSWJ8pEB+btPIT8/RLbwg3PGWCWC53BaU2vmIf+n8vn/Gj/AMv1X+j9/Kh/7P5fXp6TKbnjLuCWAtK7eXPmIfyXtf5/6P4K/B+lfl+X3hT+v8w/+v3O4jCw8g3JqXdrHcb7i37Jc3uEGm1jjXyEg3PJdxxl5BuTUu4JfQ3sFpDewV+vtOEWmOFpX2zs8g3XY4ywQVwgp3iPG5XzlPLivssE8ILncE8gpjj629sIfOM8MDy3hBueMu4J4R2eMvobjwHh4QTxnsFpueS7vGmwufSe4nhBPGewWm55LuOMvIN3MEvibyGTwmNwME8g3JqU/ccZeQQWPnYf43CW1glgnkE8ZYGltfOw+spvJ4Qbud2vILSeMu4LTdN5aU3ksP8AGYLmOMtvCDc8lf3YT3yksNz7mw3PC3jLB2eEG55Lu1g3THGWDKSw2HtYLTdpTHGW83c7jjLBueSwZSWGw9TLBLBuWCmOM9gl5Bu53HGWBymNh/gsEvIJ4QbKdxxtJeQbtNlO4NMsGA955GCWBnmBjjg4QbKdx9/TLiMpL63AwSwbk1BBRLuOMsE8MCwZnE4jwuBjjaE8K+UFzuvlcZYJ4QFzRRLiMb4Hy8bS03PCWvtccDBufuBwMFNGF/gMsccRueEGynccbmHkG55TRTa2kuIll9rgWBr7YM8IN12OSxxlIMB6G0/gsMEsG54Qbp3axxlggrhaXfWvvhcblcRclr9/VfGzhHZ/9ZY4ywTwgklvIIYYLSnGwetYOy8gtNx+7Ptfa4/xCnG+8JYO2m54R0pjjaXlj5X0OBysFfqv1TyDdpufk9gK+V8pwPkKfAwZm0ljjLuDssG7TdzuOMvtcD/C418YYOy8gnhBJqXdrBLBTc0YWwp/hGDjLHG0bRnku6K44E85TgfUYincGmWCWDc8IN07jjc+p/msccQTyvldpj5+mX0NhT/AYLTdv2nccZdwSwTwg3TZ9p9rgcpjYN2k8ljjLu15BPCCefwHA+hglwNhPG0bm89RTcQ+hguY5La7jjLBLBae59pLBaWGHjaEpqAnlJ9o8jif4DBLBg5LHGWBl5B/CKf4DBaTwg3g4y7teQeNzmA9ZLBabwcZ7TXGWDKXNhDa2GAwHjJYJYNzwg3PIKdxxgpg8b/FJczRaTwt5PY+fplgxvoYfGTwyuQnk9tYLT3MMHuLS0lg3THIN3MHjfAw5H3Db23tzBL4HAy2GEtPQ2sEsG5YN3MEsGZ8DgPa2sBKW8INzyiGCWDeZ85RlIMje7jjTfyDeAtN3OBvLGwltKMrqCDI2u4JYJ4Qbpg1BumCCmC5guczRummP//EACMRAQEAAgIDAQEAAgMAAAAAAAEQIEEAMBExQCFQAgMyQnH/2gAIAQMBAT8AxPmMHLbT1GkeHrEj0bKRyPkeg+J+NxbspG7cdlOg+TZ0HwPDm+HqORGlI6x1dlI9Z0EfgJv4zvcttPUaY7Keo66GnU/X48nPH5w9c/7Gfmjg4+a5HQRr7p6jqkciPQ9B8ieeHN/ORKUmykcj1iRyPUad7w7zDxg8MnsIpzz5g0mznmEcj1NlI3bSNMXoI/AfAYEMSJwIUifvAhG7aesSN20jTFpGeewzPjOgjwz2UjduOynrHbi9rPHCnQZn1kY5bKRu2N2U9Y7Y3Z2uR0GZ8rkRu2N2Uji5HqNI1p/AcyPwkbtjdlPUcW7p6xI5HU9B2kf4x6jrFxeamym43bi9xDE6CPwlMTE9sciNI4t2Uj3vW06DBzKQ+A3junqbKRu2N3SPxPDNp1nHJwMHhGOTSORNlI9G6RpjunaYkMX5zqI3bT1NlI3bHI9RpG7KR+Azew+dyJsp6jdvQesSN2Uj8Bm9hm8OshHI9TZT1HVI4vD1NlI9Zf34XvPj85PD1NlPUdYuLw9TZSN20jSPxPc4tes79mH7htjw9TZSPX5/iOBjtpNnRtjdx4esSN2xyI5EY5h/CM2HNkeEfN2xfzIfznk55/SmJ7Y1pHIj0GL9rwjduOzF1i+m7aH5zwc8fpQxNx6yPwNOH0vSepspHWLi8PU2U9Ym43dJspi0jTFpw+Z7vH6YuujbHhiepso3zjqb55hHI/ilI3bHh6jSNI3bHI9TZSN20jl4OeCeDueHD435Bw88E55J5JtjdtJukfV2xuyka9BHM+I6DrIRpuOBxy8HPBzx+kOBExa8/foPtOPB6DEjqntjdseE2UjSORiR7z6Xr2XxNlPMdc/efvDcejd1F9c8nPJW7p6xH4T5TjmTbHhiTZSOqRu2OR6mzF+B7D+Ct3j5/Tnk554RpuN2xu6epspuORg8OGD2H2me8dmOyeCurt544n5lomz5XFzPtIdp6mykcW7Y8PU2U+J7D+C9JD1NlPUXFeeeeeHt55OPrmp5/SkX1m/Cdxx62sYdWuNeHqbKR1SPrFw8HPHD18T978J0HrhgepspHVPbG7pHpOPwP8pwPWfj9KEddIwYv1P3nHM48MTE9TZSOus9R+Dx+9BGGT9bTN88POI/mI/kdc8nPJW7p6j9h8jSPCmJg4t3Hh6xL4Ib54OPa5HwmTn5xM3rI4ecybp6xNxyJsxfjPteHY4eOJgGG6epsjwj1P8AOcjBwMFpHhNsbunqbKR10+MH+A8MGvCOu1xcXo3dTz+lM3hGn81pHhx7CEeBnvoPUdU+V+Np1PykeGDd3WJ6jrI+x6XtaZvxJ1nrt3T4DjX5mkeGDkRpGkaRyPWb9r/EOPDzHp88Wnti8JunrEzeH3sPiIx4dBxvvxi6u2OR6xI5GD8bTFhg4t/1/wDP/Hm3EjHhNkeHqnHI3HXDjzb/AOxu6epspHIjkdTSnqHP/8QANxAAAgECBAUDBAAHAAIDAAMAAAECESADEiExECIyQVFCYXEEEzCBFCMzQENScmKCJJHBNFOx/9oACAEBAAE/AvxPe5fiYrVb3/sH1Wy2FarfVbLa6G1vqdsu3za9mQ6V8Ww7/NvrdsuqNs9rXsR2th3+bfVbLt82y2YrV+KXa1lCnCnBLjrwRqa8K8KlSpUW7KlSvCP52UKXa/gdlSvCpUrbXgxWq17q2ezFtbHvb6rZ7XQ2t9btlvH5tl0sj0q2Pf5t9cv1a+uNs9l82y2YtrY2+t2y9NstmK1W97X2tYrHsK1Wq+hThH8/e5W97X+Gn4aFChQS14U497XsampqalWR78KlSpXmKlSpUk+FSpUqQ2t9btl6fm2XS/gjsrYbfu1dUv1a/wCpH4ds+3zbLpYrY2+t2y3VsthWq3va7Xa9hWPYVqtVsfz97WK3va7lb3tZVH3YeeD0PvQrSore9rFbHvb6rKE9uFChQoRWhQoU4LqdslsUZqampKuVi2XCpUqQehUqVKi3lb/kXxbP0/Ns+lithtb6nbLeNsthWxt72ve1isewrGK2Nqtht+fvaxfidyt72scamLGOxDSKRjypBkfppYiz5j6KU80oO17q2WwtrY97fVbPa6O1q6pWy3jbPol8Cthtxpw8lChQoeooUKFCW8fm2WxqampqakdjUqyrKsW74VK8HuuNSpLbhXjUjwqV4d7XvaxWPYVj2ZHa2NsbYbfn73L8TuVve1knSLZhNS5jMfUvpXkxUoLNHc+ljvK17q2WwtrY97fXbK1kdrV1Stl1QtxOhitw+hWrv82+t/Fst42y2FbDpVq3dve2Vy4UKcaFChQe5QoUKDtYrHsIqVKlRFSpXhHa2O353vxqVGxMqVKlSvCpXgypUqV4K3va+EcCEdhJIxsKOLDK/wBEcCXqlUiqWvdWy2FtbHvb6/1bPt82vYh0q1dUrZdcLcTpd2H0K2Pf5t/yy+Fa+qNs9hWPYh0q1bv5t9VsrXsK1Wve2QrGKx7CsewuNOEeFChQjt+fvbJpEJRls+E8WMHzfioUKFBFCnCh3KcKGvHWxVrxqVHuipUqVHsLYqVK8I9ypUrw9f6tn2+bWQ6Vat5Wy/qQ/duL0O6HSrYd/m1f1Jfq19cbZ7L5tezFtbHd/Nr6v1bLtbLZitVve1isYrHsKx7CtjYxfn78Mz7Es5F1iSjUhFLETXDEipRdT6d8lPF7uXDMj7kfJnj5Kqv4MXGWGiP1bfo0IyUlVC3tdrEUKFChFblChQoU5ihTjLtZqOpFNI1NSrKsjuypUqVH1x4VKlTE6f2VK8XsyHSrYd/l2rrn+rfWvi2fp+bZbMVse/zb6v1bLtbLYVqt72u1isewrGKxisewvz9x7GDNc3keolRE5GGuE+kwNnwVr4OVB4vgb+p7I+59R/oL+I8GTHe5/DPvI/hYeWP6OHaTH9LienEP/lw9xfVtdUGiP1WC+4pRezHxxqPHyS/RCK2iiMcqFvxzIeNBdx/UYddz+Iw/J/FYZ/FYZ/FYZ/FYYvqsM/isM/i8IWPhP1EsaC7n8VFPYX1mF30Fi4b2kVXD1Wu1i2tjvL5tfWvjjQoTWn7KFChQezIrRFDKZSj8kOn9mpqamouqRrZ6uNSpP0/JUqVKkuliZUzFSpB7/JUqVKleYqVKlST1jbPYVsbe9rtkKx2sVjFY9mLb8/fg8KDdaaijThPDxMxFYhGvcxNjCVI8FfkctyOHFcVb34NJ9iX02DL0j+ip0TaMv1cO9RS+q/1EvqGYv0bxF1a9jCx3hcmLDXyffwn6j78K7j+o8I/nSP4eT3kL6fDH9PhV6RfT4X+p9rD/ANUfaw/9UfZwv9UPCw/9ULCw/wDVH2sP/VH2cN+lD+jwX2F9LhIjhQXYeDhS3ih/RYXaqH9FL04jPt/WR2lUh9U1ixjjRyu2Xa17MjsrYby+bX/UXxbPZfNsulkdlbDa2PVL5t9f6tl2soS2YkUKFChEpwpwpzFChQoNaooUKFBrQoUKFChHjqanezUda2VJFTMVKjYmVK8JbCtVj2F+fuVKlSo2LhPVi24L8at72yFtxlGMt1Uf0uD/AKkfpsOuwoRWyse6tYrVb9VgLGi496aH0OM8XCpLqjo7JdrZdLI7K2Pq+bfX+rcT0/8AStn0v4FtbDZWx3l82/5P1bLeNs+lithtaup2y6o2va5W93a97XwpxfChQoNFChQoMS4amo60F+fvxoUHwoZNalChQoUKcGuGdeSvFGo50Ksz60sqLETGyMtCpUqVE9So8RJlSpLdWvYjtbHv82/5F8GBhOGLjPy7Jdvm2WzI9Kth6v8Aq31/q2fp+bZ9DFbDpVsPV/1b/kfxbLqjbPpuhsrV1StfUrZCtVq3t72ve2XYVkhWPa2Wwvz9/wAaulsYcM0nUWEkZRi4Yk08RRJTio7n08lKtmJJRRhYq/iKsxseFNGfTtOO9ktEffccbaqP4jCfcwVnk5dihQaKFChQaEihRmpqR78NTUn9RGG4vrcNswseOKm49ipmMxJ7fJUzFSo3oyL0RUqVKkGub5J4sYohiRnGq4+v9Wz3h/1bidDtexh9Efi3D9X/AE7fW7ZdUbcTp/drI7Wrd2vrXxa7WK1W97Xva7WKx2y/sFa7ldjPlMBcvFiMTGgtKmFh4c6yJYcM6RHDgtkd+P1GJClGYeHgyhWiFhQeI6bEcOC2VmLjQjoz6V4bqfUxw3RU1MP6eWH0T+Vxe9rFarMX6PDxJ5tT+Bw/uOng+gVMXG8WS7WUJbMVKcKFChjT5lBbtmOvtxSrWTPpc2H9yOJ8owG5wq/JlKcxQoUKEt4lH5NTmOYnXKzU1NSrG9GQrlj8FTMZjMYbon8sqVKlRPnl+ipUqVH1K2e37tezI7K1bv5t72y7WvYVqt72ve12u12y/sFa7ldjvVIiqRXFiMSEZzpQl9LBLRtGFgd2xKh34/bjiYjqYv0sY6xk0Yf00lzKQtrMSmJNKhL6bCp4IfTSlrnFhYv/APYJNLUlJR1ZXZn3FnUfPBNPg9hbWx72/wCT9H0X9b6j5sn6fm2XSz7Up9z6Jt4Tr/s+GNjLCQvqoShnXnVeD6hThjLGiYOC5P7mJuT/APkfU5VsjlgkuHqfxbLeHzbidNsul/BHpXxbHbhQpwXVLhQoUPUUKFChJbfJQoUKD2ZFaIoUKFBIoUZRlH5Ka8NTXhLsampqajqI1KsqyoipUqVK6lSpUqN68KleDdsuwrHbLt/YK13K7Gmo40an3cP/AGQpJ7PgxGRZsw1USpw78VhpScl3JxbaHsLi9jCi1Vskm6kVRcfqYTnh8m5hRaw4xZDAxFiVcqokqp0MCE4yk5d+DFbHvb6/0fSf/wAr6n5sl2+bZdLMbE+3hN+x9JHLgR4YS+7j4kntFk4wljcq+T7Odxfhn1WNkjljuz6bCWFh1e5r9Tmr0n0VftOvnQ9Ttl1wtxOn9q2XS/gWytw+m2PVL5t9Vs/T82y6WLa2Nve2Xa13K2mvGhQpqUKFChQoUKFB8NTU1HUVeFeD/sKFChS7XgqmpqamvCeFGfVE/hMLwQw1DbgxFSpmKlSpUqVJCtju7XurZbC2tj3+bZTip6s+nf8A8/G97Jbx+bZbM+ol/Nw4y6SMovbg/pJqc3CdFLcwsJQRPEWHBs+nwpTl92f6MVN4U0t8pgyn9tYSj3IwUFRC6nbLrh+7cTZfKtn0sVuH0K2O8vm31Wz3j82z6WK2G1vd2y3VsthWr8Xe172ve12y7f2C/GvxMVvcoUKFBlChQoUKFCjNTUdampqamo9hVKlSpUTMxUzIb0JYP3JLMYf0+HhuqKlSpN9PyVsm+VmlNSis+1HFUa9mbWR/qT/Vr64/DtxPT/0rcToldh9KthvL5t9Vst4Wz6WK3D6bV1StdsthWr8Xe3va97Xa/wA7Fa7l+Jit72u5WvdWsVse/GhQ9RQoUKEt4lDKZUZSS0Yo6FCjNTUgampqairnkalWVl4Kvwa50/YqVKmYn6fkqZjMZkYr/lyKlSpVFSHSuFeMPV8u2vO7ZdUbZ9N2HtauqVr3Vsrl+fv+J9rXv+di/ExW97WL8Urla91bLYW1se/zb6rZbx+bZdLuhtbHqn82+pfFsvT88KFChNcpQoURlQ0RWiMplMpQiihQoUKczKFCjNR7o1NTUVSdcpqampqMhU1NTXh3ZUqyrKsq6oqZjMVJMTKlSpUiypUqVEypUrw729/xO17/AJ2L8TFb3tYre9srl3te6tlsK2He31/q2W8bZ9Luw+lWx6pfNv8Ak/Vr3jbibfu2XS/gjsrYbWrd2vrXxbPa17EbV3+be/ChTg7XsRKFChQSKGUylChQoUNShqcxzGvDU14VHwqZipXm/sNTU1KleFSpUqVEVKlSvCpUqVGxMqV497Xcu9st1bLYW1sO/wA2+v8AVsuqHzbPpd2H0q2O8vm3/J+rZdULZ7L5Vs+l/AtlbhdKtj1T+bX1r4tn6fm2WzFbG3vbLta9hWr8/f8AF3/OxccXp0MN1gZuely/BQoUKFChlKFChThqPhqamvBbvhVlSo90VKmYzEsSOwnoVKlSpB7/ACVs9f6tn1Q+bZ9LtZhf042x9Xzb638Wy64fu2Xb5txOiXwK3C6FbDefzb/k/Vs/T82y2YrY2+p2y7Wy2FbG1W97e9ve3v8AnYuONsRxMq2E3KfDMj7ka0rwYre9rfBSqVPuR88O9ruVr3tf9ViKFChQijKjKZShTUoUZR+SkvI06o1NTU1JVocxVlZeDM/A2/BCqikV9ipmMxB9XyZipmRVH+V/8lSpUqiXXD98K8Z+n5tn0sVuH0K2Hr/6dv8AkfxbLeNs+litjb6na+1sthWq1W9/xd7e/wCdi44mrRTQS/mE+kj5FF5q8JzcJew8RJGFJy3s724i5qmcgtajcs9CUFQh0ne1jdEVm9ic24mFXLrw+5q0IzLhOUq6FdiWJQePJS24SdEYa0bZLHjAhLMq2Rt9Vr3Vs9rXsRmqK1d/njQoetlChQyj64/BjOkfkwo8hlKElt8mUoZfco/JNcu5T3NTU1MRtRZhVcInMcxqakO/yalWVZVnrZVlX4KvwV9iT1RUqVKk+kTKmYqZiD0MxmRmRVFeZjxYJ0qVKlRvUqVK8JbCtVqtVve3vb3/ADsjxca8Kcw1UWCkU4Y1MuphRbYlSzvbJJiw48KIkq8O9rJRrEWdKlDLzKohmGs03whB/cfCMUT7CarqTeaSFsYvZGJy4R9v+W5MwuhWRsk6Ig5ObG6I/iPYT0qfciPFWeNs9rZKbqOKyIw+lcJYkvSQxJKVGRtXXLjPGadIowsTOPrXwPnxOFU+E94fIpKgpJ8JY0YuhidH/wBDkkLEi3xx32IKkY/FuHt+3b65WumZcNOMtro7cKFCg6RqyEHiYmbwUKFCiqUMqKGUaEUKGuehTjqamvHU1NTU18FWPE5qCfCpUqZjuVK8e/52IqVK2VKjZizq6GEkolfwsX4nxlGvGEEq0te6HhxZRZ9ODVZn1S/llXiRUaEFSKVkbMTsiPUzHrREFm7aEtIMwsOu5jrnw6Wz2tnJKLMPmo+GI6IWWKKZp1Ibfu1dc+GJLLEhRIw461MR0l/6mFHSpiOkTDwpRxM3Ym6IVZSjUhWUn4IRpiunglohYNdTF0wzCUsSTlIxIpShTzwxMXK6UOZ5pU7EK0J40YH3axUkIxnSDPpl/LtXVKzFk5YmUdYSROdDmeLoxGJLLEzuVF7isezI7LjKSih40uyM88WeUWWESM4y24Sk9kajlRCxZOVKD0R99pjxcRmC8R78J4qiYTq6j2JY0I9zDmp2ubekSCl3dr2Ixq6lLacKWd/zsRQoUsoUMUw8PuJGUylClzFw1NTU7mpqVKjKlSpUqJmYzIqio5c6JzVNzDXcrwlsRSthY1UXW7ZR/mRds9rcfNzeDDlyx07CJRzIWD7iSRDb92x68T54Ykc0SEeGJrifoRiKtOGIpOS8DVJYf7IxUURjQarwnql8iVEJVdXwxIZpIlRQfwdjSrqjDwv/AK4YnQz6b+krVvL54t0RCE65jI/uVl4PWKEa1SEjGU5SSWxkypWy6WR2XHEjmR9rEej2MLDUako1kQw4x2MSTRh1O41VlDHm9jBwa6slDYXCcU5EUY0qRMuaVDBwsis6iMUuM50RguTbrwm6uglf3t7/AJ2IlLKfxKsxZzi1Qi6rhOjaNEhcMy/A7JTUdz+JgRx4N0tdyKFCiKGJhVaa3FheTIjKjKSjoJFChR+TUjXhqamoq5malZFWZn4G3mjoV9ipUqTehUqjMVJUoyLVEVRUqipDYrZHrxPm3/K/+bZf1IfsrZN9P/VuJ0PhkjXbjLMzD6VbHeXzxlzuglRHr/RlRTjLePzbLpYrY9/njjPQh0nfjKCYozjsOugiTIrhiwzGHhKNmI6RMKxxzMw1QeiIcVb3t7/nfDHl2I4SUakHyk5vNRFabmkkbIxMTWhONNanPJamDVMk6Ik3JmGqRM6rQbJY+LXRGHLMuLsx/BDCjlFhQrtbK5WvdWuadV3FtbEnIw1Lvwm6RPp681eGNNwhmSFqq8H1xtntxoUJdLEtEUKFEaENihKPKzCxMzyvcoJay+TKUKFD1v4KPyampqOuZDTE5I1NSdeT/o5jmKsqydXFlWVKlRvQg+VFTMZjMRdK/JnRKWhCiMyK8xmRVFUVRLeJUqVKk3ysTtg//wDeDqZKvViPVbPsKx7CskqojG1EtdBcVb3t7/nfCcc8tCOHPuZaIWE89WTMNUXBYPNUnhVZJUiYa0MQhBUGJP7hiuhGdVRIwlRcWLjPWYthb2uxTTdBySIutsupcHKhHFUnThH+pNitjsUrVmE2468Md7RIKnD6h8tCPSuDj/PhL/xfByiu5UTTJ7L5Km/GfSxbcJptaH2p+T7Mqbn0beWVeOLyY8Hwh6vm1f1JfCtf9RfFs94fNs9rXsyHSrYd/koUKcPUyhQoUGtUUMplRlJR0MqMpQymUiihQoJFNShRlH5KPyNPTUoyjNTmHWgqmpqVZV8KlSpmFIqVMxmEypVFSot7Vu/zsk9DDXezvbIRKNRcaJiw4LZWSFxxcPFz1iV+qMLM97XZNUeYbzsw9FbLqXCWroRw6SqS2ZBaNit9DIydMqIqi4UrjfAup8PtPPSotjGlJSgl5H1xMbFyUS3Z9vkbkzCzSgkRWXH02oYnSUxJS+54Ppul/OnGfSxWTdIv4Po1/L4/U6zw1ww/V/1auuf6t/yf+tst4/Ns9v3bLpfwR2VuHt+3auuVsupWz2ujtb6na+1r2FarVxoUEUKFChQoUMpQX52ZKmUoU4U14a8WanManMa8NTUrwkIqVKlTuVKlSoypXhiPQw46CtfUuElJSqhD2NoC2thsLDgnVLio0k2Lqlww46t8HCs6nrQ8NOakYkM8KCjkiQj3MfoIZ5KhCOVU44nQ7ZQxdTAVMKHHrx68MPv/ANO2PXO3/J/62y64Wz2XzbLpYrYbWrqla+pWz2XzdHa3u7XvaxWq1Wr+5YvxMX4n+ChQoPhQoZNTKJFChQoU14a8NSVcoq0OY5isirI1KsqyvsVE+ZlSpmKjfMjMjMjMjMib6fk0K8cX+nK17Mh0LhiOkWYMaKvDD2fy7Y9c/m3/ACP4tl1w/duJ6f8ApWy2d2H02rqla+tfFs+3yKx7Mjtat3a97WKxitVqtX9oxfif43crXcrXvbLYW1sdrY7yt9RQoUKIktvkoUKGUktDKjKZTKNaCWiKe48NvuUoakK0/ZzHMcxqR6p/JqVZWRml4Nc7+DUrLwZmZ/YzVkipUqZjEfR/0ZjMjMjMib5WJlUVRVFTDfIipXit382vr/Vs/T82y6WR2tXf5tfVbK17CtVqtX9oxf2ruVsrlb3tlsK2G1sd5W+v9Wy3j82y2tezI7K3C6bY7y+bfXL4tfWhOyfp+eNChPpKFChlRQitEURQoUEtX8mVGUymUpzFChT3Ke5JaooUfk1NSVcrFU5vJzHMakampzFZFZGtTUq/BUqMqZjMZhy0FIzozozIzIRUrwqK1f2jF+J/jkK1b2u5W97Z9LFbDa1bu31/q2XVG2W1sul/BHZW4fSrYer5tXXL9W/5P1wrxlvH5tlta9iPSrY9/m31Wy6o2z6WK2Nve12UGtBcKFCgihQoUEihlKFCnGj8mouKf5GKpObRnxk6rYhi5uxV+Cpm9jMVKjYmVKlSpUqVRUzLyNidq3tldHva91bLpFbHa1bu3/J+rZdULcTb9q2fRL4I7K3D6FbDv82x65/q3/J/68Vwl1Qtla9mR2VsLfU7ZdStnsK1W97ZdrWK1Wr8S/O+GKiHQhdd7FxpxoUKGNukU0KFChQoIoUKFCWhB1KcKM1Emc3k5vJznMOuZGpVlWVfgk3QqzM/Bm9ipmIsqZjMjMiMuaRmRVFUVRX+Z+ipUqVH1RtxNv2rcX+nP4I7K3C/pxtht+3bHqnb/l/9bZdcP3bPb92y0iyO1sNrV1ytfWvi2WwrY297WKyQrGK1Wq1fnfDGdCM45FqQXczR8lTMJ8WLg5uugq01JYsUfe8EXVFaGeL7m+ISdD70PImnYt+Mq00ISb3MTYwrVa5fzUuOK5VSjwlsK2O3GhQW7KFEURRFOf8ARlRlRi0jE+nTo6j6kZURzSxN9DL7lPcn2+RL3NSj8mvklXKxVNTmOY1MPPlRWXgq/BV+CpF0T07ixK9ipm9jN7EHzT+SpmMyMyP8j/5MyMyMy8imvJJ8+H+yqKleGJsv+lbidEvgjsrcPa1dcrX1WyFbG3va9xWSFYxWq1Wr+xxdZIWDEeiPtp6kBazsfCexBdxlVmdUU10FsS1lQpFbGHHufU9Io1MHosW9uLKVaGHoibfYhWmo5a04fco2QxMxJ0RFybG6DXPFnYeNLshc1JGK5RjoTWKo5qkHWKdsOkzIWpVcI7y+bf8AI/jhU1xZ+wlRD64GLLSiMOOVDaQpKSqifb5tn0u17Mh0q3NSBBUirIbz+bKHrfwUKIyooPrj+yhiNRRHVIoSW3yUKGUyk1ysSMpT3KcILQo/JR+SkvJzeT1M1OY5jmHWpzGpWRWXgdTUq/BmfgzP/UzPwRehUqZjMd2VMyMyMyGypVFUVGxOx7CK2K1Wr874ODzp8JKqFhNbsoKKVjEUFGnBxRlESwk3UWGlwnFPcyKhDRWLfj34TFsLq4Ri8+oyG7RGFJGLsR2Jqp6kT1gzDq1SgtFwx+ihhqkUrYdJKNMRGyFDPrXhHeXzb6mYk6Soc0q02FyQSQoYiaeavkxXlcSMHOW5Gq0PqZbRMCGVE/T/ANW4nQxuiM6oZ40E0yc0kzDknFfA3QjKvCf3k3TYws8nwzJtpH3lEjOMnRMh6/8Aozqxdc/1Y2kbzj8cOvE9uMvT82z6WK3D6VbHql82+q2Xa17EfwMjq3ZQoS3QkZUUMo0bIjWUxIoUKe5R+Sj8nN5NRGpqa8F+dmZFUVKoqiupVFUVKjEytne1itW9ruj3tfUrZ7Cth0ig81XwjHKuEd5fNvrfwPDjLdCikSg6poRjxcnGhFYngjGhixeaEvHCfp+bZ9JiyekFuzJlgyEaRqzDVIFY5G+5hR0qYnVHwU4Yj5TBX8uJiVyuhhQyxflizVehhQo2yU6Rl/0YUNNbF1zsm886dkRVJx/5MV0gYUaR4z3h82SllVR4ry1poR2FiZpURKfZGfEqh6Igm1WpgVc5OvCOK5myFOX3tNq8JJynSo3liRxMVz25RSrNq19uNVwexElKhHFq6cVxmLQTMwnwk6Lgh8GyWPHYlLNojDhSxfiX52JFChQoUKGVGVGRFEZTKjKZTKUKFChQa4a8NTUS1NTU1NRiqampVlWRrqVfgq/BX2KjfMtDN7Gf2ZnM6JyqhSMyM8TOjMiD0KozIzIqiL1l82153a/6kfi2e8Pm3E6f2UXBooSwo5JfAtkYlWqUFtwaMLoj8WLcglKv/Ttj1TsUKM/yfoxFVL5sn1YfzZiuskiesKdqiRDDUB4cs2hGNCarFkYOm+hgLqMVNwdDBw8kfcxOhmDBbjkkYespMxVWAvu7UMKGVyte64zVHUc3PRG0CJiqVTChrV8VxaqynGO/CbqNyVCOxXhiyq6EkjBh3JSykcar4q1Wr87Fb34V4yeovxMVq3tldG3vbPbjQoURHYojKjKjKiK3MplMhlFHmY3zpGT3Mr8mV/7Myv7i17FPco/JzeTm8kq1j8nMc5zHMYlcpWXgrLwVfgzPwSk8r0E/Yzexm9jMZzDfIjMh4iPuIzowpJJ/LMyMy8maPkqiL1l8lbP8n6tn1Q4t0RCNdWYvR+1a3yv4PuVSSIRorI9/kcUxKnH1O2W8eM25OiIQykthDsjxpwfUKKKDK6mVtooKNODwXU+0kIm+YjHM6iGK1Wr87FwquEp5TPzKhOdDLXchuT2IxfklJpGfF8kXVce/FyoLEr2Jzoj7z8CehPEyixpd1wW9sjNoYc3KvD7sPPBW9xtITT24VRLWJi4so9JB1imVRUni6MjiYy1poQkpKtkO/wA8GPHddEJ1SY3SUjDWuZmeFaV14ZkfcX3UvYzxrvwU4t0rwl1Q+eGO2o6MhrFV4Ym37FZidEhWPZkOlfHBpGVGUg9DQnOENyGJhTdFuZV4Elr8lEZUZTIinO/gymUyjVFWphTniYlHsUKPyOLfcUX5JLT9mpr5OYalQyYu1TDw3E5jnOY5yNTM/BV+DNL/AFMz8CfMypm9ipmG9UZjMiKjEzIb0EzMiqKoqiNvqs0JboVkhFEU4MX4l+diGR6uEoJiw4pjimMSJCWhKGZCwpdxce/GYtjGUiMWxIlhpmTXgt7cXpIQxK6kVRGJBy2Y8IWkSPe2cqHNMwo0RidDFKvLEplhQy1xNeH1Eel+CDlisx1SngjOsVFGHHKrIer54Y2yRHC8iJ6zoT0iLBSkmYksqIQrqxrPjqnZE4dKMR9iGDR5isp4zSZHMsWKrwx+ZpIw4zSVWYk8kTEniU3MGuRVsxOh2Pne9DEnL7dCNY4Mf+RQnJZs5Jym4cMWWWDZgQbWZjeVH23iayIYFHXg5vVLySlix9RhtuEWxug8bE3UdDCxVOb80sx8TM8kTDhky/Fs+3zbLpYtrY7Wrd2veyg0JFChRFERKFChlRTUymUylBooUKM1GmJPycxz+TnNRVNTUqyr4V9jN7Gb2MwvzsTJMgr6DFb3tYrVvbIVsbZRUnRiikqcVGK7GJ02JJE0mtTDiklbDv8APCcFJCXCnM2NVXCWHGTTfbgoxWJp4Ka1JR1T4ZEtUUpJcIquJm4Y8Jyy5T7NMmbyKzG/pux4Ea1MSCS/QlWCXsfY/wDIhH+ZwaqYfRExa1RHbisGTbafccOfKLQxq5RTco5Uj6aFMWfsTllQsOWJrJjrhzpCRgYfdj/qL/m3E9P/AFbPpYtlbHa2O7+bXvbPYVsdre7tdrFY/wAa/OzIfa9zKUZR+ShRmpqajqanMcxzGprU1NTU1HUVSrKvwVfgqVddir8GZ+DM/Bn9hsTKmYzGYTMxmMyKorzGZFUZkVRJqhVFSvuVHsQ6VbHvanzSt/y/+tsuuPBKnHE9H/VuN0O3F/py+CD0oYk6aGFHvwZDoVqkoxdfLMJVk5caJdiEaYmIzGUtKFcWSpsQwUtxKhjtzxckfAo/YW+7sxN4fNs+lithtarX1Wz2FbG3va97WKx2sVq/OxfiYvxMVq3tdyt9XChQoiaKFDKjKhxFEymVGUykY7mT3Zk92ZX5Mr8ijzNlH5KS8lJeTmNfufo5jnP5nsVmSzZolZ+Csv8AUzS/1Mz/ANSTfLp3M3sZvYz+xmJusTMZkZkZkYjrhz+Bp1zRZFKtZMzLyZl5Kow2skfgquDxMr1R/Ex7JkIyxHV7CVFZHqn82OVFUwms8pPwRri4leyslvH5txOh3YfSrY2+q2QrGRtW7te9rFYxWPYVq/OxW97WL8TFat7WK1W+q2e1r2I7Ww//AG1byt/yfq19atlvD5tl/wDvGhQmuRlDKjKjJHwOKFFUWhkj4MkTJE+zDwQisplKGX3MpGOste5R+Sj8lJeRxlTc+zOUqVIQcFSpzHOcxKrcTmKz8IrPwVl4Jt5XoZn4KvwZn4K+xUg9CpmKmcjNGZGZGZFUN8xVFUVRUk0Kx7EdrVu7Xva7WKxisYvzsVve1i/E7lvbK5W+q2e1r2ZHZWxtjvK31v4tfWvi2XVC3E2X/StxOh2y6X8EelfFlTD6VbD1fNvrdr6o2z2uitFbFFOGhQoqlEZUZUZUOCMqMiMiMhkFAy+5lfko/JR+RI1NTU1NanMcxzHMPMVZV+Cr8GZ+Bt+BMzexn9jMZhMzGYqNi/OxfiYre9shfildHvb67Z2y2ZHZWxtjvL5t9btfX+rZdcLZ+n/q3E6bZdL+BbW4fQrYd/m1dcrW+eP7tnta9mR2tjtbXmtYrHsK1W97Xa7WIoUKDWgvzvhVlTM/BXhUr7FSo2V9ipmM3sZiupmMxmM6GJmYzIzIrwzIzIzIzIbKlTMjMiqIsqvJmXkqiqG1nK2StlsyO1sNrYby+bV1yt/y/wDrbLqhbP0f9W4nT+1bPol8CsZDpVsNv27V1Stf9SP7txNl8islsyO1sdrfU7ZdrXsxWq3va7XaxWPYX52IZzt6CV7/AAMWJV0pwYihQpwVlBooUKFCiEURJfzImVGVFFmKIyoyoyokihlMpQa0FAy+5l9zK/JlfkgnTcpL/YpLyUl5ObyQ3l8nMcxzHMLNVnMVl4Ky8EsTLFuhg4sp81DM/wDUz/8AizP7Mz+zHLmRmM6M6M6JSTcPkzIqvJVeSqMR8v7RWyfS7XsyPSrYbWYmJGCqzDak5tWv+pH4FZien/q2fSxWMjtb6nZUl2tewrVb3tYrHa7XsL87FwWnB4iQpJjn4ITdaPixWS2Odsw9iRBa8GKxiZUzx88WZ4rvxquEeG+JwWJHNQ9XByS3E68HJO17CtjtbHv82rrlZ9S65YLuQiounta+uPGnCW8ShRFEZUYi0XyjKjJHwZEZESXKzKZTL7mUlHlepGHKtTK/9mUl/sZZf7FJeSCdNzm8nOcx9Q22YUXFFZ+CsvBWX+pWX+pV51p2M78Gd+DN7GYlrl+TMZjOjMiTWViZVGZGZDaoR2K2d3a3sJ2S2FbG3va7WKx2vYX53wbE23walXYUWRgJc3FitluR2GbPgxWbsijEYyHSPNnGSw25GFoqDIxzyzPhEnXLoYcXuS0izDgtyboYdaako55EI5UYnSUVFbLYXCUnXKjWOtTCrl1IuU681KGDKbxGm+EJ5jGn6T6dNJ/JOeVVPvzWrjykWpJNGJLLFsh91Tz/AP2YeIp1p2JSUVVkPqYSzexgxz4ksR/oxcZYc9q6GFifcjUk6Kph4uJOe3LwfWrZdUCWI8+VCb4VbehKdaR9+LxIp0rwn0u2fTL4I7K3D6Vxm6IUc8/Yj6vm31/opY+1lCWwjQ0KIaVBJUMqMqMiMqMuplKGX3KDWxR+TXya+TUdRVOY5jU1FUq+FX4KvwdypUqVGypmMyMyGJlUVRVDZUqivBvQX52L8atprwkpV0IwffgxWUEUMqFwfCg9jCTiqNcES2I6IaqKNDvwy614TdVQ2UbZ9LFtweHV1qOB2Fhx3MFayJKqZhQyKgo80qoh3+T6itI6dzFlKWHtRGGqYcV7H1Vci+SLni17I+njli/kxGp4zUnohYWeTpGiMOOWKRKf87E5avZGBDJA+p/oyI6JcP8AJ+rZujiQrmchIn0sTZl1XyfcrPKh6JjjmVa8xgSk40fYn02y6WLYlJR3FNvsN0VT7unSzAnGcOUeiKSxPgxY5ZpRkJZI0FLDw8Srbt9b+LJ47W0ambNkZOdNFuRxufJLR9uEpxhuzPmWmxOVNB4VFWup9LmzSfDEdIsTkqO1d7XurZbCtVvf8TKFChQoUMqMpkQ4i/OxSMyMyMyMyKlSqKoqhsTKlSpUrqVRVFUVJMTKlSq4LfjXhITtVvqs0J9rZbC2skxypAw40jZDv88MSX3MVQj++MeqfyUH9Phubn3EqcFFfelp2XDFTny8f8v/AK24zriQiiMaLjREt4/JGKWw1VNEcGhCNDE6f3bPoYimacq9uwjETcdCf3stKUR9PhqGGjErkdB4zolGLqYWDrmluYuHm2ZDAVdfNvrfHE6GQiqD3Ri4c204kMJ/cTl24Y2D9wolFInBvVbjjivqPp1yv54Y9cpTEmjBzKNHZHv82ve2WwrVb3/E7WKxi/OxFChQoUKFCiKFBIoUKFChlRlRlRQaMqMqMqMiKFNShlRlMqGjKjKjKjIjKJGUymUylOYymUymX3GihQy+5R+SS03EtNyj8lJeTm8k4ylHcw8KXdnMc5znMZ3GWpPHnLlijCw5Q7alZeDNLwRb10Mz/wBTM/Bm9mZ/Zilzy0M/szMjOjMiq+5+jPHyZ4+TNHyZo+T/ACqRWzE6sP8A6txNl8q3EfIxDS4y6WQ6Y/FuHs/l2rrlZQl1xtmIxZaUMNUjwn0sWwlZG3vbLYVqt7/idrFY9hfnYvxMVve1itW9sro2+q19rZ9LFtY9iHSrftxmtSOHGO1kPV82rqlb/k/9ShRGVGVDis6KIyoyoyolHWJlKGX3MvuSW3yUKPyUfk18k06OrFXyampzDrRkcyiis/BWXgrLwZpf6mHWm3cq/BX2MxmFLnkZ0Z0Z4meI5LMiqKoqVMZ9PyfcjTcXPKvGfSxWxtfVbLYVjFb3te9rtYrHsL87F+Ji/FIVq3td0bfVbLtbLYVj2I7K2O1sPV82rqlav6r+LX/UXxbLqhbLt824vQa1Vj2YtlbDa2PVOyg+tfBQoUKIlFH2YeBYaRlMpKOgomUoZX5Mr8kUc3k5jmOY1qanMVl4KslUq/BV+DM/Bm9hy0EypmMyMyE1UqZjMVG9SpXjW1islsL87F+Ji/ExWq12sjb6rZdrZ9IrHsR2VsdrYd/m2PVO1f1H8W/5P/W2XXD92z9HzbPptn0v4FsrYdNseqVvr/Vsu1stro7W97ZCsYrKFNeFOFCmpQyoylBoymUymUoUKFCjGL87F+Ji/FIVq3tldG3va+1sum17Mh0q2O1sNv3bHqn82rrlb/k/Vsv6kPh2z3h82z2/ds+h/AtrYdNsd5fNvr/Vst1bPa6O1vqdshWPYX4u9rtdr2F+diRQylChTUoUKFBoSKFChThQy+5R+SnuNFChT3Ke5QpqU9yhT3KFChQp7lPcaEjL7lPcy+7MvuU1MvuU9zL7lPcfbUo/JR/7FJf7FJeSVabiUqblJeTmOcecjWhzHMVl4Ksi2kKZV+DN7Gb2IunYljRjuL6jCfczIqJqsvkzIqjMjNHyJrPIqvJVeSq4f5P1a+uPxbLeNuJsvlW4nRL4FtYzD6FbHeXzb67ZbxtkKxkdrfU7ZWvYVq/E7Xa9hfnYvxq3va7lva7MyrQYpLhmQnw9XGUkh1xdhRypIQ3RH8Rr08J7cXJLdmeHklsyDVjJukD7UqVqYWbLzcYbE1nxcp/DR8iVFThnblJLyQjLvwoURFLPMojKjJEyR8GVZjKjKZTL7jjzrXsZfdmV/wCzKP8A2KS8jTzR1KPycxz+Tn8ks2nycxWRWXgq/BJtxegm/BX2M3sZvYzGG6RRmRnRmRmRF6v5KoqivD1O2W8bZWsjtb3tluuC4y2Fare9rtYrGL87F+Jit72u5b2viyK1qTfYolEg3kIIi6YnDvwniKIoSxHWWw+WOiJzxdCFcqqTVYsg89E+E9hcIwc5Oo8GBKGMl1aGFhZaOx7GLFuCoLGnGmZWYfSYuBWWZGDNtuL4Yz0S8mDKMXR+bY9U7fXK31/q2XXC2fp+bZ9LtexDpVlCJQoURQpqyhkRlRlGtUZShlfkyvyOL8lJeTmOY5h5iNTU5isvBV+Cupmfgzexm9jN7EmZjOjOjOhyQmVKlVwjb3t72sVjF+di/ExfiYrVa+LEicHuiOHN9TMulDLiLRGHh01fDuTxKbEMLvLji64sY8JyyoktK7EXoiewrJ9LItWPYTpEn/MkqWQ6SeKtkYUKa8MdPlfgWbEntbHql82r+pL9W+v9Wy/qQ/ds94/NuJ02vZkelWwt9Tte6tdrI297KD4U4UGihQoZSgkUKFChQoUKe5RlOGpqajqampqajF+di/Exfidy3tdrFbOutDDw+8t7JQ/mRlwnHMj7Unu+E9hFSrnoiUHB5lUniTmqJGDh01dj2KVQopbEnQwq6vhHWIsKKsw9n82w3n82rrlb/lf/ADb64/Fst424nT+7ZdLI7K2G1q6pW+q2Xa17C/E97WK1W9/xMVj2F+diqanMcxzGpzHMcxzGoqmpqcxqampqampqanMcxzHMKpzHMcxzDqampqcxqKpr5NfJSXk18lHXco/JSXkpLyUl5GnXcpLyUl/sc3k5/JLMKpJSaIRlFGo9hZisvBWXgzP/AFHJ02E9NjN7DUs3sKXsZiLokZ0ZkZkZkYbVH8mZFUZl5Kog1zfNseudvqtf9RfFsuqFuJsvlWz6X8EdlbDa2PVK31Wy7WvYVq3te9rFavxd7WKxi/OxfjX9q7lb3te6tnbPYVktmLaxkdlxpwht+yhRGVeDKiCWvyZUZEZEZERjzS+TL7mX3KPyUfkVc71NTm8nMcxrn/RzGpWRml4JN1joZpf6mZ+DP/4sz+zJuq27mYzozxM6JSWViZVFUVRUw2sqtW7t9dsu1sthWre172yFYxfie4rGKyWwvzsX4mK3va7la7WK1dVsupWytn0isn0sW1j2I9K4YuZSUkfehpVkvqMOJhOsE7cPv8u2PVL5t9crfX+rZdcbZ9vm2XSyhQoiiMpGKoZUfbiZEZCK3KFPco/JR+Rp5jm8nN5Oc5iWbQ5isvBWXgq/BmfgT9ipmMxmEypUqVHvbIXGvBfnYrJbC/OxfjVve1itW9ruVve19StlbPa2WwrHsR2RiYscPcxPqMyoloJORh4OZmGqQVsP/wBtjvL5tXVK3/I/i19cbZ+n5tn0sVsdrY+r5t9VrtfGnFcKFCh3KGUoUGjKZDKZShQoyj8mvk1NTU1NTXhqVZUqNiKmYqNi/OxfjVve1itW9rFYyO1q3tfUrZ9rZ7Wz6RWS2ZHZGJhqcaEVFVjNEIZpabCikjD6FbDa2Pq+bV1S+bfW/i1/1F8Wz3j82z6bXsQ2Vse/zb6rX2tlsK1W97XaxfndshfnYmVK+xmKlSpUqVKiZX2KvwZvYqV1KlX4KvwVY2xNlZeCsvBWRqc1SsirKyKsdTmKs1KyNRVOY5jmNRVqcxzHMcw61ObycxzHMTrocxzFZFZeCTl4NfBmf+pmfgz+xKWmwpexmMxmQ5KjIzVEZ0ThCZHJHYc0YbWVFUVRVcMN8tse/wA2x3l82+tlbH1r4tnvD5tn0isl0sj0q2Nvqtdr2F+Lva7WL87tlsL87Fa/x97WK3va7lat3a97ZdrZcc6rQUq9iXSLhnWfLwlsxbIpwoNIguVGVGVGVGVEVoZShT3Ke5FFH5KS8nN5OYjWsvk5jmKz9isvAs2dlX4KvwZ34M/sZ+bYz+xnPuIzom9YmeJmXkzIqvJJqgivGWzI7Wxt9Tte6tlsK1W97XaxfnYrGL87I/jVve1itW9rtYrVu7X1K2Xa2e3Ff1WypPpE+E/6q4S6WR2Vj2ZDpRniu9kduPMsT2fCNsd5fNrfO7f8n6te8ShQyoyolFGVGUyoyoa0YkYrkqZWKtNyj8mpGpzHMc5zmtWVl4KvwZn4P4if3KU0HJ1WgpGYzmZEmqCZmRVFUVRFmZebPVbK1iF+ZisYvzsja7lb3tYre9rtYrVvb6rZdrZ8JukWRyZdWRpTQx+kw1pwhCWZ6mLXKRjlw3UW1j2Yukh10mtTZH3MTsJ1iZssUQcmyboiOqqPYhOSRB1VkO/zwehCdd+EObEl82+v9cM6JToLUbWZIlKnB4kUOaFNSX7JTyowsTOtip9yFaVJbMeJGC1ITTlV2Qt7vhKWJLpPuYqVJGBD1EmkQxIS2fGg1woiiKE9DXWphw0Jow4aamQy6lChqUY0zU1NRtorKUiOahVlWVZXhUqZjMVKlSpUbE0VKoqMX52Le13K3vaxWre12sjtat7fVbLdWz7cMSOaNCOAkRjQxW6UIKkVwSJxqT6HbLpYtIk+acaDIKmlB7Dw82XUSoSjmEMw8NbkdLMP1fPCRHckYapmt9f6JbGvgUOEpUxSEa6sn0uhkywZhQ5WQjlX/sSjnlQjFRQ5OcqIxYdkPo/RNKckLCjTYxpPDVEYWJNyVXwhtb3Zi9JGcFESc5CVD6h6pGBCmtjFZiqW6MODe43REY1NuHe18aoxJdkRhRCuquDkhWZolUMSKFCg0L+wrqZjMjMjMhsUjMjOjMZhSM5mRnRmKmYzGYzDYpPwZvYzexmfgq/BV12KvwVfgzPwZn4KsqyrKvwVfgq/AqmpqcxqKtTmOY5zmNampqVkVkSrVFWVl4M0vBmfgk9tCpm9jN7Mz/JN6CkZ0Z0Z4k5LKxTiZo+TPHyZl5JSVGKlBRiuL2ZHZW4XQrcPZ/L4NFBohvP5tX9SX6tlFfcXxbL0/JlVa8IwUdjLrUxOiRhR78MZSz6GDhU14R2t7jSaFgRRSnDEX8yIrJbCtrQSq6myJOpgp1fi58MSVCRgx8k+kgpqVrZkqNUGYVSUtaCJMyaEYyb0fCosSLdOLF/YdyhQoUGhFChQoK+nFit72u1itVvqte6tl2tmU40JLQSKIyrwZESgqGVGRGRGT5GtNyMdNzK/LMr8lJf7Eqr1EK03OY5jmKy8EK0Ky8FX4Mz/ANTN7C7mb2M3sZjMZl9yRniZ0Z4+TNHyNrOvi2fp+bZ9LFbDa1bu19VsthW5aiR2Psa7ijQ72vhiYecWBQiqEloRtjvwlh5j7YkUVeE8yew5swokhuo5JdiL04MX9h3tYrV+JitW9rtexHa1bu31WvqVs/T82z7fJ9yNaWYslFEMVOyXSxWS2ZHZWfUy5cp9NGmGve2O1sd388KcUuaRQoURlXg9X6MqMqMiHFIcdjL7mX3KPyUfklXKLN5OY5jmNSOZIzPwZn4M3sZvYUtWVKmYzIbWYqiqKoqS2FbG3va7Xclb34SZFVYiex9vEqQw3m1FwkL+w72sX4naxW97XayNsd3b3tfUrZ7x4YjpFmFHM3VjlqlE+odIL5Fkiq9zBrVtjm/uZUIxZLNqOsjD6Vxn08Zyohfe3H0fozz9JDET3epKSjuLGg+5riTb7ENIIU4+bIdNrhm/++DdCOLGXBNZ5WVR6/1wckhOpiqsGhKmRcMauXQw01BJ8J9IrGQ2tju+NChTmKGVGVGUaKFChQoJFGampqa1OYrIqyrGxMqZjMNlTMVKlSpUqVXCUqSHMSqLgxFFxkL+w72sVqtdrI297XayNse9vqtfUrZbx4TddD7C8kYJGLFSSXuRwooUaFF44YmHHf3HGyfTx6p8MTol8EHKKplMODcszMTr1JtPSKMOGXDY3pFexKktiC5Vxh02SehhVpwxoJ6mHhLfhCDeI5e5iSyohsYr7CqtiOsv1wlWUxUiuEuqJi4jjRLdmDKedxnwlixiffgxWMhtbHd2vqtkK1W97XaxFChQpwoUKFBwTPtR8GVGUyIaEihQoNC/sG9TMjMjMjMhsTMyMyMxUrqZkZkZkZkVMxmMxmKiZUzGb2KvwVKszPwZvYzPwNvwV9jM/Bmfgq/BViqalWamoqnManMcxrU5jmKyKy8FXmRV+DM/Bm9jN7EnzIlOiIfBmMyHLYzIzIzIqiclp8lUVXnjibcctHwn0sXCUIy3FCKJdLMiklUyJWQ6Vbh7fvg1XjD1fJThKCZkQut/HDKiSroIl1RMRS+5Uw4OuZ8Psr7jkz6nDioVW9SOysezIbWx72+q2QrVb3tdrF+diskL+we/ChQpxoUKWUKFOFCnCnBW9/xMVqt9Vvqtl1Iy1slvHjQoSS0+SiMqMqMiJR0Mhl92ZX5Zlf8AsSTy7lJf7FJ/7FJ+Tn8jz0ZHPRFZ+CsvBml4HJ06SDdNjN7Gf2MxmRCSoZkZkZl5MyItVl8lUV4/5H8Wvrjbi5pNLtUVj2ZHa2Pf5t9VsuwrGK3va7WL87FZIX9g9xWMX9gre9rtYrVb6rfVa+tWy3jbLtbPt82z2tewrHsR6VbDYoUKFCCXN8mVGVGVGUpzMymX3Mr8lH5GuZFJeTn8nOc5LMVkVfgzPwZ/YcvYTMxmRmRmREqiqKrh6rZdhWMjb3tdrFavxO2Qv7B3K3va7lb3tdrI7Wq31W+u31Wy6o2y3jbPt82z2tn0u2XSyOyth0q2Hq+bV1u19atl2+bXsLhQoUEUMqMqMpl1MplMvuUfkaNTm8nMamoqmpVlSp3KmYqVHIUkZkZkZkNidq/E7ZC/sHcvxO5W97XaxWx72+q312vrVr642y3jbPePzbPb92y6RWS6X8EdlbDpVse/zauuVr61bPt82vYVqt9Vsu1rF+Gg0UKGVGVDiUMpQymUoZTKU9yh34UZRmo6mpqcxzEhf2EhSMyPvQQsSLKikZjMjMjMipmMxmRUbEzMZipmEzMVM3sZvY+485V+DM/Bmfgzew2ZjMZn4KvwNsVSrKs1NSNTmOY5irFWpVlX4KsqV5jN7Gb2M3sZhy5jMZ0ZkZkNrOiqKoqio942y3Vs+3zbPYVk+lkdrHsYfSrcPZ/Nq6pWvr/Vs+3zbLYVsbfU7ZdrWK3va7X+PvbK2Wwv7CQjF6TAgpJtlKT4JFDFMNcpQoUKFCgyhQoS0RGSoRsZHXEtdrFarVvb6rfUTdImEtNShQpzlEURQoNaoymUymV+SUXpqUfkpLyUl5OfyTzaGpzFZFX4Jt02K+xm9jMZjEfIxSVEZkZkZkN6Mg+VFUV44e1seqVvr/Vsu1s9hWxt9Ttl2texG3va7X+Pva7ZbC/sJC2MfpPp+gl18Fwxd0R2/AuOPPsKHLVmF0jblKhKeXRGG246mJ0sw9HUU4vhLH1oiLqickiFXrYxcWZkzPRlUh40URdVXgt3b34t0R97xEjKr2J80khE8ZRdCLqqnrtfWrZdUeE8aeekTDx25ZXwxcVKgsZd1SyeJDats+liKFEURJaMitEZUZUZEZScvtoSqkyhR+Sj8kU6y1OY5jmOY1zlX4KvwVKknsZhYsWZ0fciTksrIsqrIW+p2z7WvYjb3tdrFare9rtYv7Bi2PqNjCklAhzSqYkssTAru+GJJ59DNNbsnN5DBrS1i4ywazqTWhDYeG66MWFQSoT2Kc+ph9WhLYw8PybDrPFIqisYuOM+UUoxgjCi23JmNmliJIeGlEgqRXCO7t9XGSrFowNqHqMNatj2I4SlqzpROblNupgNuGpOeRVKyxnpoiDcZZWPrVsuuJ9TNppEKczMBUbk92NuMJSIS2k/JOsxLEhCVf0YFcupN0ixxjSvcwJSdVZPptlJZZfBhtOKsboiP8yVsd5fNvr/AFbLdEtEYK5myhRE0sokURlRQoRRQp7mvk1KOpzeSskZmVkSb0Ksr7Gb2Mw3oJmZGYzIqiupXhXg7ZbCtVve12y/sWI+oi2LCkyEMqGqkVR8JwlmqkQw5N1kOFSMaWsVjI2MlhVZDDUbPtqLrbLYjtxnHMLAiiNse9q344kprZGDBxWp62JU4RVCfSzBgnuJUMd5mooi5YVVlMODbzMfXa+pEl93EMTBy7GHh0Q1VUHgwUo08jjtxaqj7MUYcaWT2JOTehDNTXhiy1oP2MBUfCePTYwsfO6GLKuiMCNI2x3dvr4xw3GW+nCe6MSVdDDVFw1JdIrUVXCWxhp01O/DFrsQVFwl2taEUKFChQoUKGUoUKFGUY60IpmpqamosxzHMcxVmtSrKvwZn4M3sNlTMZjMMX9gxMqVKlSupUqZjMORmMxmMw5CZmMxmKiZUqyr8FWdyrKsqyo2VZWXgqyrHUTZzGpqaiqVkVkVkZpeBNmZ+DN7Gb2MxF6szGYqjMV1KoqjMvJUVM5KSSMGNW5Pj6/1bjSo0YKJRqhcJdUbZ+n5txegwlxnhVdRxUYsgjFdIkIKlWSp6URhoQ2Ritt5UYMHCuvGHf5t9b4Yk8qIuq4YnYWHUSHwn0kZcNxtoh0jdEQXfhGebhKVKi+oRF5lwlN1oicZmBPMrGK3va7WL8740KDF/YMj+CnBq1itVve12sjtarVat2UKFCh3KGVGVFDLzGJDNQUKIymUpzFCjKM5jEg5tEYtI5zmKyHXNEq/BV+DP7Gf2JS2+TMZkZkZkYj0E0ZkV4T6WLYxI5kJYmxGFBkOlGaSk9COLLOk+/GHf5t/yP44SjV8Z60ErMTWJCFOCjKpKIloNC4Qjw+pfYhGpFUXBQSdTF7UMKGWx7CtW7tdy/F3tdsv7Fit72u5Wq3vbK1itjarY7u1bu3vb6rfVa+qNlCW6KFChlROKMqMplMpKOhlKFCj8jrQjmpuUZklmqVkVZFvX5M3sZvYzGYrzFTMjMjMiUlmRVFeMthcacI7WyipbkYKO1jJVpoYeamvF7CtW9rtYrVb3tdshf2DFa97WK1Wq3vbK1isZG2Nse9sd3at3aup2+u19StlvG2YrJbWvYjsrYf/ALb6mUKFCg0qoyoymUoSWgolGUfkpLyc3kVTmKyKvwVfgrqVKmYzIlLYqVRUqPYjat7XvaxWx/E7ZC/sGK13K1Wrf8UrZbEdrGRtjbDvbHd2x3dq6nb638W+q2XVG2XYVk9rZbMjtbC1dTtfUrZXR2t78KFChJbFChQoOIolChQoJcNTU1HUVSrNSoxFTMZjMJlTMZipUqZkVRUbKleMv7LuVKsq/BVjqVZVlX4KsbYmypm9ipURVlWVZVncqyrNSrNTU1NTUdTU1NTUdRVOY1NR5iJqVZV+ComVKmYzEXuZkZkZkOSIPczIrxi9XbHqlb6nb6/1a+qNsvT824mwrJ9LI7K2G1q6pWvqtnayG1vqdrtYvxPe1itXChQpwoUKFBooZTKZRoX9j3tdytVvf8TFYxWMjYyNlCJQoUHEijIjKZTKKJQ1NfJqRrVmpqamoq5mVMxmM5n/AJn6M6M6M6My8jlzoqVKlSb1h88KlSpidNs+lkdlbDa1dUrX1Wz7CsZHa1dTte6tYrVa7WK1W97XbL+y9VrtYrVb3tdshWMjYyO1jI2MjYyNsbY97V1y4UKFCmpQoZTKhrnMplRlMpKOsShR+SjKMnm0+TmKyKsqSegtipmMxmIPQqiqKoqLqdr6rZisexHa31O2W6tYrY2ve1itVvf8Utv7LvbIVjFare9rtkKxisZHaxkbGQ2tjbG2LKleK6pW+p2+v9Wy3jbPt82z6WK2K0KGUylBLVmUylCg1qUZr5OY5iVTUqypmGyLoZjMVRVCfMytkt0KyWwrVa9xWSFare9rtlt/Zd7WKxitVve3FewrGKxisYrJbENrGR2sZDa2NjIWrd2rrdvr/VsuqNuJ6fm2fS7obWrd2vqtla9iO3GhQ7u17i4VZVjYmVKleCte4rJCtVq3te6tnsK7/8QAKRAAAgEDBAICAwEBAQEBAAAAAAERICExEFFhcUGhMLFAgZHwwfHhUP/aAAgBAQABPyH4sQmTq6nmrhQzN0+FLFSqcFOQxVDMqXh1T9wqcdK9Sp+tQj1D0VP26foVP2xUfeqc3Rg6py7tYIH9dIoyo9Ix+FB50gggS4SIIIEFoRoas9CGQ9F4JxqSyWwqQ9ghogSeXb1XyZaJbkPchjTFJD0XLl5Lly5LJCwSSS0J3oUjySTokYYkkkka70n4UsVDG9qXh1T9lLwYaV618Uegz1VTj2Up/wAKXqMVHqBUekYuqfPt0v0KnPsKlY/PZhUY0sxjQ8GNSCCCBZfZBAgQf9ar5HSfyBEaQQJEEaIHkggggaEqAxcEaIZDGrSGXIZcnIVi0SJD2B3/AESyWs7HQqAtfsTIECA0gdRJRJJIvWqcwnSdPfHrKnJ2+dofTFR6hgqcX26f+FRVGf43zpyQqMBUZqeQxXxfPunH9/O8amHxiodR1EQ1NJw0aFxNs52Glul4U4swVDPu0gggat6III0IodoghoiOwTChQJ6iCGQy4x/uchBWm/6JP9BLJa3sOkG9RJJJI/ZJJJJGuc0ekYU/e9J0kT9dOF38UZhT504BfCZKWDpsw/IjqYGFPkVNYofyDyhvAVvvC08yo1nicCTOdn8YMVDM+1Lx6pwdoVDMdP1qfbIII09wYrSNIMP7IIIECV+1INeh3O5LcluIwJMuXLiy6FqJ2EiaUnYcGoMylkiRJ9wTJ1Hn9kJ6JJGg1kTqSJ3kkkkn0iZJJI4xPwD1jBQ8Mwpxpw/iHU8ipqh4qt21OJEKrpIeCNu8hntRvyXHLPxLIYqHg+6l4dU4rsVGDLldP16fYdPo/GudN4uFKf3YqP8AlqjR4PUp9+l4awQYfsggggasxbEakCSl0gms7EhBIhly5OCRclkse4a1DdjHsQIEBsxE6vDMf4AmyWSJaDooTCuJ1JG0QIaGxySSSR4E0lDRKXpNzGiYUeW2YgkrQTJKoKjMYqGZ9qXjSw6BUZOj16V9dP2KfpU+D0acqZUl92nB2qWTo9D4ueHVPh2KjMY05OpVDY7MKMaWbVBGghBBAiwliNR2MwfiElxBkIE7BNxIoalDFnSCCBkECGhhNSNDQkQ9yW5AaYp0XLjkuCWSyWh3OvDFQD3D2daIaJHv31IEkqITJJ0x6BUYPo9en3lT6FL633S8M9en7dPp0vUdPoBUesYqfZU4aX2Co9IxpyfdLKo8TCjDVNcyU3hmFDWZj8z0NwhvcBkvdEQ2Pa5ZYtD0XCeB0m8tFn4jHJQ1+UccTMKTJeli0mjN7BXxMyaQQQJdaQQQJYSxAhrXO1LYejtoghi+wky5fRYFNeCRO04TgGf7aQf+bJ0QIj+j7IECUShv4DfxRKJJJMfiWP2Kfqio9Ixp+xS6b7BUZDD5zJCof4kwpYMxoyGP4BZYZaN2PB4SIQhI8j0e4WOwfwCkyMe/RDhuWbERZqBMym+HgEQYtrukuiZtvsWyl6EMvbHnkQAWwyaSNGWZoxkBqWi7jlY+Q8qdJeRswKibEkrmuBpxILZQJmHp49U+PYqMGYiKQgggg9sQQQICIdNESJEWOo/hHc7Et9Ir8vL7IECNCX8tEsl7EsePRLJ1Glgtew1rgtogQ0xPYEdEND9JAgQICP3CaJRJI15gTUnXzpa6FR4d0sRUYUJGtSf+Ri/Bf2MECCWcyiFkRVcOYEZk6WPAnrrGBWj+AyiGQXtCZMZ20VPKOVsXPBci55JjxYkLKQMN6ZOFQeTiWVJ4YIYSiuKOUAkvBPKJxKZHjJJqFFgv+ECuN2NawJAhZPwxUfYKj1D1/iP2YqG/gp9VnoU4f3T/AIuK+NIEv3EiEQiAi/UIggRIERZRAhECC5iBAjpi/fUEQkS0SEIZDIEC4uXL6LATcEslki6NC0YlosESJIwaxOrwNRnMV886iBDQaw2NAiCQbGuySUSSN6zo/jMTFqghXYc2dCrZGPaH/vTiY0+fdMTLZPyvB/1Imzo+wVHoHpfiTT3xi6+JPSJup+3UMKcdLemn7FUqGY0qkwiRGkGSEtEEIXAlYgR0IgVAJYZuQ9yBGmYfMxCCCGhBLRHSMKgI0MF+IEdxPRHokJNjQJ2CbJZLHHwOWllFsksoDCJERIQkIDf3EySSTMNZS9VI2wqL6wqPSPVp+58R9Gn1TBUPB69OfdSvXp+wKjMKjwz0qfcp9Z04fuk8GNOTullUPYL4Rgu6kvxIqTFQ6jyNDCfHGLbEic6MR4J0GFLIYP5POjRdROMhQIZnQnxKSCCCDGO2N5RSla9mbHHBHRcVHnuN3LGSW5yEb9CNPky5IkTEiXrKPMwuN14JbEthrwC1sRX6hH6iBAgQJF3mSrPAtFKJRKCSfgp4fwKjJ0P/ACU4f4XpT/mqU9lLej7FRgzH1T7vxBiuxUYMxpyqKjGKjNCo8e6WIqMBfMzKoqHUZAxHN+dcDElWuErMzuLINiVAtSzZhdZ/J42iNcFEy+G1bkavKksIFxyZMa4KcTBUM8+6JAabrwbNDoD2fwgggs/cSIIICfyLDohECJEh8DS6kTJd2Jy3UdCUSy60diW5LcRwT5EsRvI36J1MRkSOAdi8MdFR4E9jqdTqy4N72RIkSGkoESBAf2kolEokdR6CZKJJH/gP/IkknR6U/rS3sKjMYqnN0+VQqMkKjxFRgKjw7F8zPKoqHUeSTdEQ41wMRPbQrGO5sQI1McWykKekEGym8k0k6sW6UE40m26Itms7MS3CgmkW+AaOJ2eGRt5wJJSHjTMYqfuqkhf+3oz66fXHAbioJ7NxF1pPGpeyLlXCLzSL7ibajkj9d4Hhx0NiU8SQri9Sn/JxT9i+6fZC/wARBBBB9zIIaIQvrIIENDVnRAiRIio6KfX+RH1aO2iRefZLc5Dk0UvPwXOx2Lit/sKyiWGSJHAcBLYlsSoWQWhEiICaIECUXEJkkkmVJ4io+wXzMyekkkjCdDqvJjGheIsGOgSd4iCEikxh7kbDFtArbRsRhuQBEetY55DL6sinGHYYllFteViYqn7KfFjHoZEqPXEeUwGSFDct9vSReEkIaitesMaO3Z1tyO2tHlIu2Qh2hZj9FsZuP5C9ap+xTg/xcVHuj1Kbk7dLUp49fEPRZip8+3T50QZdhUYCIIII0QQQQZCCEQID0EdMR3CHc7EtxXYSe5G4jSxDCWS2Jew10L5mKT0SJbkPcaZDIZDIDkQRoSJF5EagZyP6edEsYZ0jCSBEiQGsMoJRJJI9I9UYviiNCrC4U7YfCHpFmnCGxZfpMQcobmfljfbuByTnAzumgfZU5S+GKIfT+JP9bcVHpmC+e/8A8fCSPTMVS/s/jihPXJ8as0+dQqMQqSoyC+Z1HS6nmiNGBBBBAkIENRBUAwrmS3OQjeQEgEJEiQ7YdEiR01Ypt5IEdC+jIl53ZF/88kSGhEgkJRKJIOgvSCYk4SVDYJ3RJIktIWy09Ck1ukvVM9AVDwz06fZ0+XVPvMWjFVjMVPtKhGa+EOusunzpZVGMVD4FRmhfiGQqHUm9XClVKpyfxTEwog+wgggQIX8jQakSAq/YJYIHcdhK6iw6JbnIRuI3CNL9ulrz0SeHWRyjYb2S2Op1Og0/r0wIaGA2EpAhucg0hjx1krcgSiS0U0L+BU3ftoQ936FQyxafYoTH/lTgL4iy6fNLKoeac9E6IxC+bCq8/ghhT5pwFQzJ/F8pg+Kf8/H0VN6vun0n1S6JAlwggQICp/ogQ1hCT6P4RAhqST29PdncluL+JEtyW5yEbhXn30QO5yit+y1Z0pQ+ixonYTsJewp/YS2OAe0LaGy14JHQSabX7LOlGI0hlkgQI0BDfRKJuJJ+A86TrkqcAvxF5FRgY/gZVCpz7fFshgqfspm5UvfFTl86J4/7mn3KfpfdPuj1lT9zqSo99Tg7VObowVOehFCNSDx7EiCCEJcJYgQ1LhAgQEczsNtyQluMskbjsLTlkidhL2JbDOcCemGn6BfM8CEidhPYlsS5JEtiWx1GGp6bkCGpYEQQIEolCd+s61pOjM6jVFrmKnCk8/jRlTd8XH+f3T77+hUf6W4qPbHqUtLu6f8ARx8a1UekLZU+fbpf1p+wVGQx+Ks6wQea0EaPJBBBCGV+EK5Sgcici8XSCCB6IIIIPJBGowtOJDSrtSHuRuEe4k6BLJIJexwHU6jzqcCAxMri4ESBAgWuwhuTpJN+qayclRgz1KcqT6tXKjHpqTBU+v8AOrkC+LMX26fqVOfcVGSk6mVKyp8hUMKhlfNgY6sWRtxZaE7XEzDE3zvlCcSTYRJbDRCkjQqhaShEHlrBAthBBCGhZYhFCIESI1Ew+9KJ2Z3ZmJ7s5tZcx8kbzvrXsigcNAaPAMEx1Oh0ZdCCI6knc4IgQ3IbnIMv1CUJHhk6fVEydfSMKHg9WqJo+rT77FTsKcaV9dOYVGSm6vlSsqfNLCpr5sTHW1EUqgiDwzEXYaR9zwKs5kxTJZ/COSeBGLMZIMPPyLS8jOMiyqXwzjEMOREVBiXsGMsc0J3FgzMTZCCiIq6Jl6TR3kWtFGrPLunz6p98VCX0uk3Rm3gVyCNFBIggQEv4ohpiQEtchVvOBbSQ0qLszuyW7SMTBMI3EbiNw1/MEqnwdtEmTL+gxwaC2CXNF4RwayTHh9zqdddrixpgRIFrJDUOYSigNcxKQICoCQgQJQy0J1eH8dk9W9E76qo8xfNiYapZPytFGQhIY7IisSOhDvAtYXwkEMWwJQOaYuYAlCFlVtSGAysBIQ0JkiW5FhFzVh4GnIkOBJ7BEbwYBp7CD+izNRYvfxR590JkGx4FzMbTtJVCcpkZTy4FR/wpuNQriMGYQjvEjrhBE8p5dun0FrcIEriGso96Wy8JCSSFiPR4BdJMe9EVmP8A2/sZ9kS1kUdiPcKWl3/idII0X0UNpZHaHZiRIsQfchYIIIGrMRQIRDYgR2HkCVMMJSBEZI6ESAmBNRt4nYlGRIhkbiNBJl6EryS4DxBZwLL0xIkCb9SUSefz4DwQIECSbkohoSvJYwtECUSSJ3Jp4E6sTvVWNEKLAx3B5oiNNf2i1Q8EDwMdu4lmyiKWMX3QksFhHBcljyNcEgLwhiOFpExJuLFH3oVDlb8MR9QR+wHk2ELk7U/U07xk2/LIW3l5EEmWSnIqyuyJey6Vpf0RFCRNYNKxt55P4GjCh4EBno8/MmQbIaKV4MxkjgrZchjSGK5+XT7dCAmCGTOxBhZZF+zNyxwOsZGgrZIlqPSPW1kDIk2DiUipIyudJ3lEpKdhUzE3CxrjGxm5xqGm3fSfXkuoyCAJJVEpD6D90OWdHSZl9iQWSCCEQIuQIIIQrP8AgEpEXIWpFI88TBAhqxcghkPch7iMRxkh0BTIkTsJbEth20Jo1IkS+yByHMQFxCVlx5pDchTJCYilCVOD7dCICR0olOwklhaQkKdO+9CouymwZAvASLQbkhZCRm7fdPqPrSU3WBcKciEgQSEhqQ8MWBbhKC/yB4hF49xCQJQkhYHAVEtVENJXi4qIJeolkTGS/EpjSH6RPf8ABinMYdfLE5GSxClIq9xoKI5CRHzIqPUPQJEPgRasgcuksbwN21yK7InvH7P+DJiReDGihqbRKwqS1ApLA+NeTGCKO7QJdcYMJraMShEtFl/E8/wGAtJYmNQpQnK0m4xMCPY2ZN5HZDJ4ejTloWiqLVRIfKeNnUWsDQmSBHbSiTrgPbkpGNKAqVyyjuT3ekiGRLr+S++jvpuA/JI4Dh0T2wJiex0OpNHlCXYZQIjN1H6kc2nmI7j+7IEolaeo+tbafQ+6fQEN6Iu6KiLnoiHfZCUDmLFymhUo9qX184eBECPPoSZQkVEKj1DCn7hbRVpiP+SNEeCwpKGzKLmBAh+WIdG+C9+aGMge0sT0Y65JDgeRiTfXKmb6Vn+AQyQgShj3d4I9grISMlaGOMfHIRcmTKmxOPQ7EpneEItnIfO1QWNXlIQja0QqSxT5UvTMvGMFDMP2RKFkRd1tFuYufN7aX0LqwyQnlTpH+hFCWdrSEQICfwP5BEhoRvEUSIr9ApiIT2JRYOx3Z3JbkN3PDQRuI3kbxMi8MY8lqknTvdAmJ2HCcBE4yLYJbE9mdWXFvBFY8HXRAgXXdhM3LpIZV8nOQ/k5DmOY5h/6CTchuQ3Ibn8AQSiSUSWH2JG8CchIjz6Joy7jDvrkMaEMkWvItY0M3gJC1ypWYqFn+Amw6DIjpMhWCJ/AK5SLONSQO7Grc2LAQyNomkowHptYHI3wedA2/Rw0Y9osUa6qtWTyQpuIuVLDIpJN+xlxMVS0P2xpckqynSR7xNa0U1lliwvjR15aBrTKCESYRnoCG4mkla+mYutI21yXJaG4DKmbvqqQ2loRl3/ER7HPSCNEn/HAlR9q1jT1BP4kEEECezRAgQhL9EECGxHYjsK/qR2IHENRSCi0xIkeRca75nKXPcnucg9cocpykFXZL7VztOEcGBSS2JbDHUcxIiJAgXiGsYa4lE6+x+MeKiDMTfmGkEhpoe4aWGjJpDEjcdDa3qrWzP2PhWBLFK6Ks0RsGh3B2wxVL+0aUI9aXQ+qPBu9TYwIzqu7o9JjGWkGkgwK8PA+BtweJbMgFdmxwS456vXMKJXyMnd6/wCpuLCG93xY8f8AM0/5uKfrCo90euqcn+L0/Vp9F04+0LFOIVC+ihmQWsaCWoeNUEELRBBAgIiBEiREkkaKl2L5sSAUFCZLcluNMl5F9yNxfcuSEoZoUlTJInYS2JexgNSid2iJEgOhJuQJQu2RSkZsmiOjAyU8kmLLoiyYuqGZ+2PWRryKfW0vPy9HJ8Uh+lj85SJicFpXgibfLLngg4whCdXoioXvbackS41XUX/NMKY39F9U/wCv3T7r+qfU0+qzBU/e6fYVPrCo9QKh4Zi6pXuoZhFRjSeKb+MWaVl/gMKGefiGLNVKxGrFlkUBBIiNS95EiRd0PmdiW47NyHuRuIei8LK/jTI4DhHVYOAWwTHQdJGhIvBAiJTONY5TlEfxE+JDclEoug2E1uSSSegW9OlvZOdPT/S3p9F9U/RJ+Fsad6wsU4KfY+MBhR6hip9inCKjClhTdV6cqVl/inmoqVmqqcnVVDHu6cNOcxV0VqBpQ6IESGxxCEyiRIkBCbSgQOzLq7weceCe4zJT4MjcJJD8iNx2Wqrk/wAsTxOE4NAnPjwJ26ThJbzxe501YEqhtIahzif0CIOQ5jkGkO4q7sQ3IEokdZxKoamhIKj1DF1Tn2U/QKhsdiozU3ik/jll/inmlioYs1VTk6ioYuaXjTnMVQ6n2qXh8Ss9PrHp0+Xl/fxGvUIIIIE/i9SCBLjBCIbENhEmsIQ2I7HANYYuaNKJEiLeiokOTsx+s7Et2T3Eg7L5E0Z0UbyN4tw/AsbMgo3n6aUu70ztRwnCSxnZpJ7E9h8C4s6HTQqQpI79HmHA7jkCBKIDk6To16U7/gcKfNRUMWacTCnJS4qGPml41DChn3un3/iPZp+5U+6PSpWP3U5dujFp6dJ4LSvhcKjJ0epT96ny6p+7UMPieekEEFsCRBGhQVEIgQGkCIgRIkRLIkDudhCOSHvoI3UZPHyYjQEmDKT2DF8HpJbEh0OtUGOhXEdKO+mUxEEolEobQ2qSdCdDwZ9qWJUZjBUOq92ny1zp7jpa3/F6fcHpqjwNS/bH8LP/AF3pA2nuP6pw/aFR6h6FOH7dP1Kn0XTl+N86cgqMabxSdRZp8vwCwTIVIIyjTyQQQRpQghaIFkgQICExCECBEiJeg9xIZLvgluQ9zkGtxMcMgILstSJnhOLQeAFBg5JLcdWYYLeHphoSeRMGzOU5jmOQgpSYbkNyG+h/6smjH/q9PtT0lQ8Mnc2pzEzzr7S+qfLp96+dHpDWdBUOmdkzB1T9zp+hT7qn76TqedOapYUsPwBl+AWBSFkJgvB4oEJIElM3A7AxbhmSGRAvca5CwBdYtZZGFsrGrMmsb+Qo3DnFuhnnSvoyIg8zBYWlgtIIGrGMgggQF/uQ2OI4tKMkODSmN2Pud8CKHscBNNNAluJ7hHEnlENXkRu0UEt6/AipX0/qfoO1kGGI0C02nsO8RJkFtPkzwzuOw8K//BEgSaEqfgtDn11Kbk8DmIbkCVvpSSSST2561L+7+6fo04eqcV3SZcqVn3S9lJrUsKbx+UmLBYBOHp2zNiRJMEoorA0MKgYFgLbWEhRs4fJFxsO0hlISEoyaytMAsIxlww5bM+DxE3EtEF+J94EZC35kDcSFtgVWXglKy5GXxXOflQzANPkZJKL0TWH0SRpEj6IUhI+4PXmMRy+RJLZNCUYddQVHoHp0+Blt/ZCCBYIE0MEEBekQOJHAJE8CKHgRJHAkprKIikusgRIHY/illHZk9xLchm/ovMApykbz9D9T9T0dE7Th0DvFvInt1j5w2J3joWOp1IckBP8AoR0OY5xMoR5jmI7ioECaJRKHDEdyRMePiJ/Blge8TSzHmhCSRpKqGjE4aM5RFuxKEXWjSEoFNhHYhIVRk0Y03oVNISEQt86STGAjkLyRTFcY3MRDgaFWmswQQJAttJ2PNjg5UPBgFQnZ5RCtD2beQsVB9SIxnCJckuQnmzLDjwJR2SRhmp3JgvNyf5ufWqkgzOksHIklMTk+CAX4C1liVlaNBFtYiLeFOkwJayNqGm9x8uF4PO9w7Ipri+twSmFv0TfGFbTP4wGRSvhL/in7BUZDBEEEECy9IQiS0KFIkiERIj2kLjQiQLY4YyfcuBsEtxtGRPqygI3kqFf8GQcxA5jmIDmOYjuQGQggSiUNieidJMTChj30qIhas+6oIhbawypPDMOlMSoLRWC9AvU4ihKw80x4JeRIZKWK2tH3Nyx5RT5CMqfN+iZ/8AeElxoIx09jn6mDIuRFkwSLGjE0ZIugdIlyQBGl3t3N7cHbmQxS/Sj3F9UOiBDNhKR5sds9f8nAtVNYckv+RpkLb4hifkHHJTLHnb2E+yoJWsVhtJNjJpbi8jH95oY7ECJn4QpMFrvCVOfYWiwSSPf0YEfkXMUa5PvVraEjGiFPGiASlyYkxCEiYGxNK6vFRUP8HRBDYgQGpCSOhxaLNI9KJE/YSzpnuT3JbjNxJ7kbiHuRuI3jJ3I3HfXnqZ2nCPYGR2edRJjqNBLdoobM4mJbEi486fMco98gVHMcpyo5hQJJJJFY8Imj33wDOn1C5MX0Q1BCIEYF5Cx1IklbsSzrSYTWWksF2qQij2l9UJY15EMRC1959UKauxZIoRBCUExGWTDazE9yD8EbOLBB+wqsyJnsSsCCcLyNYYr8OPckM+ZI5NaqLU7o4fQjAuCQ3VeWjGA7IGoIQjXDRliGdw3kJXoyAxdKMi0pZFoOiagTkePyzw0hznR6ob6MxzChiz8QzPSgqHg8u9Y0at1ggS8SsQiBAcDsRicRwHCPbFz2IESBESbkvMPPBKMzm6Y5DcJaFGhJesdz9SeJO1Et1roUOFEzauVYbCHYdhBeGNIdmQJfhDBHTXhZcjzf1nPouAcyEI0NyVuSJiz66STpdxti0kGImvJBQX+HRIhsW4hlUEGqPuGfQhIWqpftC08aRacmUxElQJRUSIgSWQlowGywYmJlygUIHWaYkLiwiNpQxMIEMKb/ABlhonWT0traYxUJlkK1GbCy9yXLdltkeVaHpb0YtUUmZCphEkRn7xPQ5RmpwGilJciG4Ghw1PB50sJLi2WkbgtTNhlYIBBjDLRciVOw0SuITkRCy2iWlGWkySlimQWkyj9ARfAnR9GjR5L83ittD+t22iz/AIYEhasMdt5RfSMelK3qMNXBH9R6YgkHANF4FR7YkywIh/EBrTTLRxaURAl6kIjnudmIcz2OcqGJ92cgXRMQUB0JfgRuIKNwyylXRCmthdJTZPAnYhPYhPySI571fYOWNwHVnYdWQ2ZMzYScjYoMBoLboWcmlzHMMkSSiUSjzEydIEAwobGiXKEnjTGmxUP8GwGtro4emsghLQRmJAH5CdfYSFGjFqQVJIJCaUoyqggSQzlojCx4MlKNwQ5BXAmIVqwLhKJFgWyPspQ8smV+D92x2mIev9C0CIShEyTlhYnArHgQRsWGj7ujOB5ZFlIkISXoWiR5goTyDp4hniGCG075HQkyxV9ccYSWTKhS5/mivLhCSF48j90k2TOpdazdiRkF0sjNstIXCJ+BdTfDEWoN6ONOU1kEW0W0eb+XHKg5EGrikbZHaTRngmC2jaXkkf8A1hbL5lIqPriot6WYuqfsdKf3pxaQQQFQIIENjiOIRQQIkdKOhHdnZncuq4n3JbnIRuN5oUbiNg7IduhO0nacJwCb2JiQluHZj8C4iC2RX180NGYGFDYqEFqMKclNxhQzypUdgQEVhIaGkpD7BJaNJ5MIoGtIPpKsQJj1lzolcYXExGZQJJIamkN3EQY0PAic0Q2R37nSa2TpxpMkpsvEtUUfR+xasvJrga2sK4WwxAsw0bCUseHohGmLHUK1qw0oLSBVeNgzl+RIQhv63HjvCGOC/ouUuASJ5hpq6L/mI/ufYmt6PpCo9M9Sm/4hYeviTqlTZCo8ahUMRGrVvwOIpLLO0TJZObSS3OUjcRvOwgS3Eb9P6jKCdOTO04Btpwa6S2FK1Ac0luJfBZwdTozox8DMQIa01hocxynMeYFvENzLCCG49wyCUStGfdTatop/1+6fs6KWNcugVHtL7p9kIhsRHhkhuy9MGeqQRq9m/wDQe50gWMiEIPLX0PJ7hWLAvjSxCWEhl8xqL2wWNf8AHwKj1zBU4aGefdP0CpMaHgwpWVOMVHjSwFRg6bw/wfCnz8Q0ReiNOGkEaZNY1LBGkDQhBBBCGlEhECGxwCII7ETgOARAqEQ0o6VOXIwSLmnJMyu80BqNw0fuj9CQ4ENiqVI/EtG2cBLcdhDcR2ZOJbojzpcxzikOZgHKujzhOEcIcDusGUIciJQ56s+Gh42mb6DsKiVH+njWSZ2IQJJKqmpUeiLGsjYypsX26X9RUYfulgzBU+1UqjxpY0slN4/B8KH8i8/GZfinVeFP3CozdGGnF9qfep8qXqsXwzal00hECB/JEkYOFHGcATTt4OvNJxDdlHlOIUZGO7OwluxmUebqqwyuJmyhZQdkdkJ8S4PDJjaNE4IvMWEBaLcgnuMHZlioZ1Z+2lohWe9PlOQ5BH8i3zmOYhuJLIy3JJWj3dDqHVPsVKpqjGlhSwZj+JP4wxZqKhmWoqGedLCoxdio9Q9Cn/qn2qfqU+wp9x1UVD0vuj1WsjDU6X7aV6UKj7lOUWkEDwz+AQQQQIjRbYgQNqcRwHFpWlvItokOwhuxpGWI3ZLcc05g96OTdyNxG876XvC6E8CeBOwbyQtinQY3Y7jsI7MaNaECBERDMfxTz8QxUmpMWafAVDwfdS8OqcF2Kj0j0KcPiBelUtYqXuv6pv8A1C1kvf8AVLx3jF1Q8M9GiTHtp+jTaaX3oVHrGDqhl6051whOjxpZjGnJ0SMIkT0yQtII0JEEECWEIECAj8FJs4Ce2glsSzoTEtiWwzYT7jqdGdg+DE/idWfsR5OwZNCYIahETU6hyHILEI7nIcg4silNzjHCOY5kQF/AkJW5KJHsuxE6+kYOqGfZ8R+gqXg/8vT9qnPop/2c0+4MF1Rgz0aGZv8AF6fr6zo38QnQ8dGl6Rg6oeGY6f8Anonr9oqPWMaHVYVGSFSVGH46mGiOSvp51jUiCCNFEkFiF6oRaIEBpCKSCEQQFCECJAewKr2HtCi4DhGrDxpcBxaSbCMCGm+uKSyxz8ie85pyTzLI5stS4BHJI7I/U/UnYhvCmxOzU1zXEicsNR+zfcnoZSDxr8iWMM7TlOUvRvOXTcY5hH+HkSbkrclEnpiwidfUPVVDPvf3R4EjwrNr60Y2SN/YMTrh1Co9MxVGDMdK1ZEM+4sUZqTrlRmqhUlRkMfwGA8F5okfQXREdshmgMKGhhz9iebHsSVhkhDdmQSuJ4lPBOmck7hNPTwSPB5jF/EkahyPHrTNoEpKY3A2ST8iozGCodRnTfQo3Se4trT9ZkEECEIv3kDgOI4BGD/2ODQcOktFAhydh2ZBdYZ5DhEQczQMcDFhG1/D9BPiXaRFQNGEH/7x/wDu0LkHiIPIW5FzHRn8kxJsyHOjOPAuDmOU5USF/AySKSBK3JWij91DRfKHRlMaHU8xUZoVHjSwFRm/BkRIwoeCduERybbG3fAMsCwhfYsuKpsu8QmQwtyDVkLCjsiSsYjc4FbGeBoTJtlkx40OjMP5l44O5GXLYnmJNPCLNJa7Ep6FRlMVpvoO836l9ysWBcMkhpDcJi1lDJgySnIVOPf4wlNShJsI7s3ZwcnIZICxDlb7D+hjzoaWEMRRDgS9sIRY79PRdPsP6IDZPKPA5XBCG80dZIur3tD0lQ6Emci9lyMweiBoggoCRGmfcWkIgJeIoP1I4nEJNYcwOA4zhIhJIhp7Ce7HSgt4IIKN4kXfQ7I/QkztNg4CXtrpL8DqdTpouCENYeYE6XMcwgSbnIQ3JW4qRj+EQtfNLpMg9F+EidTCixmTGjyh7AkLWhKm3uLLI3BB6b4CQIQkMiwtag6POk4vkiEKkYutF3ZMhXliUfqNLNSKn5GJLMHKiV3QQ/oJJUoD8ph10GRqTazIIkHO25xDPcmCAUItz+CD4XluT6/2IkliNHhTuLkmiZNwlaIkJCuWvEntI0rZCGtcdjzhGbtCo9cxdCaWHdrdxb28F7AuSxkeRma3AYxHupLYy8ixJzDjH7p+prgYu2RgvNxkMgtly/o9FkxGWDkSZZOzhGbb20/XieHYTmi99vgydYdOCBBBBA1cghEISQhAgRIjUS6UdBSRj+BRBynIcxykZEhzHMcwncRBDcgRICTyOZHIchARAmMkNyG5yDaGuJRKIbkrSglEolDY6LaSST60RsPsE6M5i6oh/YlCWWfuqMezRmCK4VlGn6mAkWBhJlkQkLSSw0IJVbyxWSWjx/zNPkNeRC1rBhFvKW7aZFb4oEPLckXln0BUeqYIS7+/9GA1LIRrRCECstXFbyBJ3YEATVuJiU76S9S1sYJ75LV9jK0TAl6IKTZFGEK1hCuWSgg0SSNKRQUQhZBMOj7FOGhaWFDwLb4jyKkvhsPwRCBEiNTISENjiIjUQQIkSIkk4dSiJFAcelwDXYSCOhHQSKiIaC9ECBAiIEd2dmdxjuxc2T3Y23HMGzuGwu1QgHhfqR5n2LfJ2R+hPET9Qh4PILcUzBtlnH0Mt156Lkk9JMmlhEA7i5pZ/XQcI4hxBRM5Ibia31h/l40Wv+1uKiBvBgNOYuK2nojT1NIW2t1JfXogsHoPSLzq1l2tEUGWQy0yBAlUefbpf1+IPHxEjyKkvhMn4DExp8/GKpwoZkqKh4MPiZ9hUjFRk6PUogdiYbMSoyp09WsIhFrf8uQ2OI4EcZgfhnEcBxaCv3ERdx8hLcbrwFyZyNHBOERqAymJ4DfqCoLYOBqKwMjcmknuOjI7M8c7wcTO85jkH+piLmIbkNyJN4SyQygZAURrsafPun6BUfcqWDozosqhUZIXw2b8Fxp8i+IWacDCnJT4ioeDD4j37iozmCozdVb7qcqX61OTxp9jotftU/Xpzdozk7eR6I9Y9an7HrBAn9lpBBAVAgQInEWCa86bDESAqYmPJ2ZPdnJOSMjJAdjsdhkh1Wg4RoKwkhacy3mwOOkJhiJASEBBSbkNyUSMJomi1GUx/FPPxizVwVOVVUYGHxM+4qMxgqM3R61K0vsU+0qfRUvH4kZ0qzduhUWd49ShmKn2aXSZdxUZxUMxfFwXdJLMTSCENBQcV9CSIDQR2OAgR0EhA/c/cfMXMluS3OQVx+D40zeljClZpwMFS1xNHgKh4MPivfsKjMLFHrHp04Kc3an031THoSp/z+68L4Ex9BUe6MXVDHs+fD2RUfaKh4MVP/Knw0LXNTYssWkCGFRkKkqM34aex30MlE7HagMtyW5PcluRcluS3aSYcJ4yS3Jie4nuxbxPcLmye4nuxvuxPuye7J7iW4ZGTlZLcT3aDsPDLOwnuG24bLzElhtOc45mhScLaIjcjsiw5aLbBPAnYjhD2TASXGklvJbiB2PJ0f8AxInbkaEC5TgGd7HGOMcyJW5P++dJ1b+yn239U/4W9WYuqMGZvFPuafLqn7QqMDCjAxU/8BUeHYha5qTRkKh5FRkKkqM34LjQzzS6iqFQzJT4C17owN5pG4kQ6SW4zosW5cLQtzYkgm0biMotMGImwp6Q0kk/FGBd9xQ1uO01+9mT2GBKNg4S0slm25BA4DANjiG/wjg0l5bxoR5FzZ2Etxlrg5xzS/d5siNxG0RtCvfGJ+hwLUZRvwIAmOw7BpGGQKHZHdoc5yihcxzENyVuJ+olErX7dNiXYqMGYqfOlwVIwoelfCyF8Jj+MfP4IKhmSnxFpgSOHMXxkzL6EtNstCxQ7zSwQ5STcDszKD9SJyyUCstPAeBgTheBpYgeEpC8XeKMhsIHK2P4JytcXbGTcPyPgxo9IeQxrhvKn2l9Up/yWq0eNP7FOQqiwFRk6LujSCEQFV+2Q2IbHEREKOqQ0Tsye7OQckiXZi3pG47H6jQ8Fgkzs1mlNxpZ7zuO4uKwkFzi3TlHFkRBAgcg2hiVuSTpIVDC+ExMfnwq+fjPPxDMqfEWiSiAduqT6yGgOUixyQgk4lzHN0WkoSL4xztoSO4pUpnokJKfFGboQpvYZrpZMVkkJoY0IJeRl6/nR6HyE8JenNpej8LTPQqEqMn6FR6x6lOD7dK+n4l49ioxZgqUriCCNGSIICS2ICoEmiJAaiCNHy09yY5htOSHuRuI3kbtBaEmQ7j/APBp5qKhmanNCpPT2pH5KC35qEWYskmEKySPt0OCkb+BC+1txoaQ2Lb0ZBJGzHhaySNvkeBEtbjic0KrCi/4p+jQj6H3S3/YKj3xUfQ+xUP/AAPS1S0+x0+yqXh1T9wqMxjSsunFQmPak8VyoeRfk1wE3636kh36kieI+tD/AKDKv0zr3odzujuPkXDudzudxN4h3I3kbhqGRYZIKNIQSm6A97q/BaioKNgSF3oxuSCWP1JprIaGFQOpi8elEtw7cmEJRIaQ7C7Jnfpc5ziUj8zkOYWyORExZuZJ1+hSmm3VOAUydfcf1T/tbk0e2PQpw0+xS8OqfsFRm6MKcndOIWsGFJ4qeaWF8Jj+CLS80up5pYqVmnwFQ8VU76sqMF2KjKYKlYutIIEsxf5EFiBCFX9NHFpOMbm0sjjIfGnzM8qx2EtxzDlCrxEdhrwHdH6DtPyP0J2oh8LQ29uF5/YcWZLQUJdgJdmdhzHKNpnwKSRzHMcg03MoJRK3J09+l/Sn7BUZTGnN3UKjAaxOuFXyL4hw/KC8i/ABUMydOSFRhVyVFUePdOQwVHpmLqjIeporSFDBTZapb6EKMOXTh8SpfQKh0n2SCCNE9QiCEQhVg8CSCGxxHENIISVocB2EN2XODg7E9xzNF5DwRoU7kTxGBOHg4WtrYnJYOrOjOrIF99kSO5DchvopolFtMNU6G7aJJ18ioeRfnwXkVDpOswpyU5oVDxSYsvinj3TlFhUZzFUZuj1iAuuPbB5F6Y0FILFOD7U+5p+hpInWfUdQVDUx4Zjpz7aX9KfEWkECWEiNEECIggRIDWjAjr4EN2die5NeRNucmkgu5Ehcydc5kTHAS2JbDthnsdTodS1+BwqsVD+MYxobMlPjSxMVOWoKj7KlUNcYKj0j1hybPhniy8nFxAEvBc2n7HTn2/DUi9an2VRKjKKjN0elTn2aLXy6pzCoymFOTpdWqMNEawLNLV6UEiCEQJb8DgM2J7ExLYnsNhNsS2J7E9hvsM2J6JIT2J+BPbWbiNiQ8HG0XChvahMOFHCcBwjMxPhoSOgdhatSCTXI3HYjejuJHcSLsj9D9RHg9z9SeA9lHEIF0JVakZbx07iwrjoyOzO4c6iKeYOUipcMVEQILuQqTmRyIk8kkiPlk0PP76Upyf8ABCE6+wqRUfcqXoD/AMKf+qfKnwFRmqKl0/EVGFVZp81FRk/HpawNCRGkEao1xMNYGhZU5IVDMfiWEVGXanD96yv5odlEW4wWl+6uQQ/UL/AgQQITsIwHAcZxiRhC4wdjuye4nuHw7+XqBAK7J5G5/UnicA4Q16l403POST3js3YI7iOzOz+aCZ9jn03IcQczGWidPSMfVLyv29VWMCoz1H+L4iow0KhZp8i+Gx/AYGTpYqHSdTAxoZlpyQqWHzoZ9hUYO9GKgpHhjpMKa08PbRk4GelR6x6A3oYmdcZOiUqdDB9v4otgtYQxgghEIX3ENiOxwHAQMeRBDS7iO94FtK7GKNkRkuOSRuEuuRLJ+pHA/QmjDOSMGAWMM6sgt9J5xJynMchyCUnL8ib4EokkbpNjsVDWqFS3cXw2P4Jk6iodRhU8aGLKnJCowMaclLwFRn3FRguxE8GwB5SUI2j2YhSXnSZOQywTzYasxi6o9YnjmCE+A5HASOcOhiW1DjBHdQSp4LuPAw0M9h8vMtkO6Pt6PCR1qQMRt+FS8zMF8Sq8jwk30I9sixJ5AhSrlneAuck3ZDGi0h6wmy8EjBa4fuqbhSPr4J6HsutkRLYxi9pBAVAkji0omwS6SEeBUZFJQhmRkOdDsS3I3HIbwXLVWSN60OC2dDgJbEslsdTpoyEYkSIjRR3OYgOo/GJhUMahjCpY0My05IVGLMFOSl4U+6Kho/YRLSgTXciFhEwiIhpAQV2ekLCo9AZIb2G45iSmh026MydENvBEZItuBIUCSoEgkIHr9nTEQvaCZ2p8ugrdopKC2VIkdzDHMDNEvT8l2f6JTkZrEETRy4FQsxvhOxdCcRLe5KxWImhy0XfyTZ4EpC09Io4UsNkuCiIkMaWSvITTwMqmtOQe2F4ZHw9EiCNRtC7GTweRQWGjyhNw0QEQRIkRUfgGKAS6XdpJYjk7jsI8jQQQ2ZxM7CHJng6HQ6l3g4dAkJaAyq6peJtkWFsHBrM4Q8cE7STIk3Wj9T9D9dOTO04UcA2D5OGiFud3kS2JbtJDYS4CIO3R5B43lk4hwCfwMiWCRejCLX1j1qfO5rFIhQJHVmBxogjRtrQS0hPJBaGDyNSoJ/cLOLeo8zSbaSjIK9csiBMbSJMNLpFhI+IOAfM0FSkVuDyKmjAH2Y53FjCS/DELRjW4RuMZbI4sHJhsk4HOyHcbZiZDEmkpIpXL4X1x/AMSECBAgKEsQIEBhCEQiEQhpSJECEQJYWxBBGioQZoWkEGBjTkxfL8H3kEEEGC7EhBCIF6IjBxHGOEm7CjVjh0Ibi6uwWV2hcsW8IUuCJpId0fqfqcIh/Z6mcolvHaduWdhHcR2ZASGbpC3jl0HEJBIlbkrXI1TlSSoZjp9ynF0Kj7qTHukA1LI8oUltCo8RCUEeUkImfUtGIEjeCiQId/FxF7UkOKII1JYkTokbqJMmR6Y/gGJhUsKGZUvIqWNDMtEmaFRmMH4k3LUlaOSzlydb78s8DHYqJhQ38j0KP3B/TKb/wCtYIPdEECCEI/kQInAcIaVsWHAceggmYFN32k7iW45+iWZNioj2J4n6k7R8RPVue8nvPEeSJEgcpEOfBzHMcxAf2pPBhSyqPAVGAtFo6iRIlIvzEgugXGx0ASFpgYfOxBUsKGKnIVGBjQxUs0KjEw/AHqj2BDHlsTRgye7HwfMSFa4V32RzbZEsZph2QiJiEI1NrkFp3ZKov8AQ8u2hvrJCRJS2iaWhCKQxBlw0N4WjFSmd3yFhCMmO2lpCJvOjek2GSSMixCSmMU+SBsaNKsnYyKRpmMKMGYaIPZ0ggQGn8ENQgKSFo92T3Y23G7nIRu12E8ToOE4x1rDdjqdDoyyIwEpEgRIkNzmJQlkifBPlsRJEj4IQJGr2MPnelfCMypyFRgYUMVLNd04mFOXzg97SfEXgZGBGAQ5cVIvTCd9HWo3gSC1zC0z7IVlomdnJCzAycHstBHP2mQOYgTEixIejwYqIGFllzd6KV5IXxuOyHCDUx5JNGyJKRLn/wCTJKFbl2TOrFDR90WJ7QzcLTfTNu+w7GGr0sGYafZp+gVGP7MKHWKkiNUsJoSEBhJECBHSzuhCSiGhHo9iW5PcdBj+BBSokidQgRFTFTUSECPJEcyDwdToS0SU4OLQT0V5oToAZwYGgTrbZe4kSZ4E6OeBOw4EcYeG1hkOwa7Pk8KW3bEdmdwqewkZOc5znIl3gc5wCVp9qFopLTzqEUIgwAxKLOlltvCFChC0eHTmpPtaxKENC3NqxIyJBZIWFcNL06AkI+8R6rwKeRpNdpIRwiF/VR6Bhpy7Ol/QVGC7pOr5io8RUYalqqfIqPGlh+FEiBEiNCSIENECSkhECBAaEIEIgNCkEaPVBBAxaRpgY0PBm6IFSePVEaNpAgghCL9hBCIEdjxoUWDjOPQWk7Qk3esrlE5cJSVx/gjg/wAOo2jBBiwKS6QLajDJcBJR2HYR2ekp+z0ufTcopfyeZENyUMXoU+o6bGWBLUeoYKfuUv6U49qWDq+QqSowqKnz8Rh+WgxZoYxUPFN1GuhUYmKpzdKypf1+I+1Tn3FRiCoaCqMxhRm6PUI1hCmBDYjsRJXacBwaUBKw7snuHuSMOd3fRwH6k7EWlvIocLXGW8su4t4IaXPoMlPZzHMjkRI36Co+4ajBmCp86c0KjGk6nkVHiKjD8FmKh0nWKh/GZCoxMFDPOlZU/wDFLw+Je/T9IVH3oVDQCo9U9ZUOqJ7afRVPqsVCgtIIMwtiCBAgIiJwaVg0enLdkt2kda/kS3aCYktx0J2HAT2OpOqiRFStHyHIcoiMiBNbkkolDU+RUeIqMfwlUOr5qrFD+MzQqMDGhn3UrKn/AIFR6FPqP50GLoKi9lS90etQ8M9Sl7dlP0afUqSozGK+L5U/eKjB0YIPJBCIICBIRODSRAikoiP7HZkxLch+RD3OU5TuYBLfrTsGcfgsBGk8psx7GopNkB6V3GZAgMokpZ0QIjsOM6HUkGwcdRRhZhzasJtiW2okHA8NQktxLjJE8SeOjcC2NNxDbYl4EhPcdx1Zkw8HV6HIc5KZxJzHIchA325Ko90ROuPV8S9EwdUZOj06fYU+5TgqZYoyfGf8qfsFRgzGlZU5oVGAhUL4mSF+LcBFBNM0bgQoMEKBE6LUWRAdxAgQICCSNEBwZuaIEEIgilp4IIIM0KNIIMTFU+dDMmkaQJGCCEQR6iGMZJ+RAiNYdHAcREiJiIHZnZnIJV/JzCPSkkEiu86Z4HHpm4BOOw6M6Mwux+sHOcpziv1CFI/BzECUSZe3pOvtql02fcVDQ5jpOuPxwqMhhSs6c0KjAQtWKh6FRmhfijDSaHLP2MHZ4Gvo0qEhRsbU0sw1gsYxAYtqOEjKLiIw0AynMxL0aosjltj27HbKjExWrJK4sEjFyPMY48sSpKws9VMb8F+RmxrE/C+RISLKSJUG15eBaNrT0XS1vsbSL6WIuqSUOUV3JaJwTTUzrzqUJEEaJ/MRQiBwHEI/UxP6jg1hpBC+XOC8Duie+sXZh20yJ2DzR410nsT2LlnkXFjaFI0nIM3BEHIStySRrE0f8iaMu4sUZujClZU5oVGFJ1PKoqMfwWOk9lxAUnVj2NEzYPByAjr+J24kDbqYaMbNZhItgPs4BflLIkCSxNsmhH6xkFS2MB214TIBUYmOsA3Wg32LCKpxuQNK+5EB1BZa8wIy7GYboc2RoZjFkkuFIscLwJbCmsO7mgUnSeg6fsEhfAkGu6wZ5AwOxeuGFYvQh7hlBz/BEyyGDHZYoyC1bSGIGrMNRPxQpjYrneExK3w956rECf1INO3kNtJJrCDi0IkSdHcluLAuRuCCgS2hNxBxIYckKDBPRdWSsRaEDkOYSSIErfRJkIknTIOLWR6VnUVGAvwWAjUIVqG0WgSlzDDwZPHpSLSDBFSwoQydGArbMWNSJQNShRpXkTpMWqEhjiclqaII1ypZdZpTSOjzYl/ESGpRhnpjZwEJCGmr7HOhfB1T6rEcKMx7eRKpEMZWIEdCVsvBCauQkIYmOC1uSG6MpDnOz1RHDDOCBsmQESFDGt4CD5G4E01Kc6p/Wny60dxyaZt40sFSQYlaQyZH/LVbRmImedFvgQDy0kSXyRqIISEQQiEIhi2IECBESTpjrPT7nMzkF8huNHcneMxPOieJPHRmSwtjWCYfKsLidWR2ZAefwWGlHY6nVnVnEzqdTozozgMMM6s6MhszgLR0Z0Z0HxHS7aODScQ2xwHCcZLYdsLY0nGcA0MEWxIkyWMwg6DiRwCQ7aCQmHwG4joyOz0oCVPpc5wiD8iq0Dm50hQtHSd0TIEIjJJKdPdYqHj9IqMnaEROjMugjLYjR+1E0B1diTyMnhEmOyGOSerS+6lerS5IgXvp/wBxTSyBaEiCYkY8DkJIGeRiBtmJhCpLbREzGG1HReIIGnF1Jj43lUYOoshUZKnGqhas8i1gyQiEQIGP4LAQghEEEXEiCBCECSIRBCEQhBBCIFuRpA0MRTVGJgoeKbWqCEQKtBAgQEk2I6HAREkh8CFIS0di/PwT3ORnKdi+WCDI/U6HAPiXFpp2nYJbtYSedBbpyC4Q/KFPItwhp65i6LShqGwLGD6LerSmLdtX3qV6GjL+BKFokjAtGpIFlXKIBFhDhoRBjSZih4ZA5EM/Ys4RGLRqTySjyD5z5FrkqewKjIVDowSIWrFlT4iowF+MuoVDpMypeNPgKjAxoeKTPP5x1lSs+qf+KV92sEBf6kCBE4CAuxMQkIkS9EJ7slvori/gSDgM2xbbHCjhPECWg6MhyZyOjznIZDuLeIEommNGeDFrGjZwMEozRc+Q2LfXMY0Myd05C0dY6vlT4Cox/HOCphQ6TMqGNVCoxHtRhTeDypy+c16FOzin0KfvCoTHY1GcVGTo9anF9tIIIF9JAgRImFaECOn3DkOQ52haK2TxODXScrHU6kBgiSlOYgQHUhlTk7FSLRiMabxU80+IqMPwjN05oVDpOmxqTzUVJgowMKHg8uxUZd6Hg92n2/nsePVP2KfsEoaHFR6Ripxfb+dzH9ioeGYtII0i8ggQICZ0I69ig5bkty4Q9zvq3BgwnYS2GYz2J7HQ6HQ4tMCBEzIaHMQ3LyuJNyBJJchfgMuhLY4tJxDbBQYOLScRsCBgnsSE9htsO0cBxHEcAm9SyGDciTJkzpE4UO0W9EmS0CUEji0jaMDttHUhsxmLDzqHKQciP6GjyJNyST+yTRf20r1Uuk+9pOuYKj7VS9E9an7nS3rpx9CowXaFRgzDSvZTmhUYVFmoWkEGGiCCBoQjRAaiV3ogRIiRLoh+GTE8SNY0ogggeqCBoUgggaFRY1cggiijXEWxGkGBhpBAljAgggYTJAgRECb9j2CIlHMjknuRuI3DtqGTJb2DAT7HU6kNmKGDgdww5BGV+lkdyFASaB9yFR656VP30+9Th6pw7UsGYqfZqiowqZOnPRa40niqsqchC1wF+AxVKx8IzN0MVLJVMKMTCjExUYGNGBjRgefdDLp7pa/YVExjUgQn0JBqQ0Ew6IaUTuf0CW5zDlOUWFwT1nPYuR3Cx1OjIEBShpcxzERl+0lEkkjW9U4LswozdF6Ur2VBUYupk+6XCVGNJ4elULKlipl+OYUYGNDM3Q6r3QqWFGJjRiYKMTGjA+yhmItWYPuiTN2LQnT3RUJ/yQqHjUSox6BEEEaDFFixCGkKgRIECJ/RIas99Ct4gux3LancVhwE9joWXYhJQRIaXMI/aQJRJIypGWrm+/iWFN4qrKoqZfgsqnj8IzKh6FQ5WbmC+ExMaMDGjIYKMdJa4H2UPBhSw/YtE9Pcp+iKjzpfa+MBY1keGYRUe+Kj6afDsWCCCBLjAQiEQICSCEQiEQLZobZyC3hkDEJyRMl6FpJJhpYfH5KsvjH/xAAoEAEAAgEDBAIDAQADAQAAAAABABExECFRIEFhcZGhgbHwMMHh8dH/2gAIAQEAAT8Q1Oplr/MslNLmMx6GdvThMGl6DZn2ehi7EOnjHRYzN6GLZg7aGsV+o6MJm99P2kOh7fSYdDhmG5L/AHqxnw5GpN2iHV9rCdUKvQb+OT0fZ/WYdCr3/dB26F86fTaXrbR61MpwYEpA02U5gbEqVps9iYtKJRK2m9fcCVKNDU0SkpKwDYyw6gZWVg1CqUldD5u02jeeZhyyuUS6AgJcj3E8OgaW13luGerA6GC82hCs8krO/pMy0P8AFh2wfOgrh5ZyIdDQ0ukGLi58MSMRoNouX0GxKl0HfFtYadJWBWZskrERPMTUNKXKRSLPvulwZc7LITZ6TS5cRUub9nWtxY9rygyoaBr6QejYpuTqkdDoeZIaEVLxLbCz0b1/u9TS4+IL0bpeHQ6l4x0IqThT6rQZei/tz0/AkdGH5/qYGl6P4pg6GP8Ab0q36Tcht0WjA6NnpmLo2qbw6OiTCUlJWBhPyoGeDQTU2D7aLFvqH+LKkNam0mECVE1EqVAgINoxURHZCWJ00lINpCKysrpnUpKRr30Gsl+YrnUGy6FaSuczHExHEufDDvk5CXNsJdpsYiuIWMMYbylsZoyhLiHCD0BXG/afK55pXmVlIyEMvS58eSBlIMcz+dxDUn9fnU0Df/NoRl6LZ/qyGOh48wxjr9lPrdFx/wAXeXBg6Bu+B07/AGsW3T8Ohdpj+WHR/wAMIdFxOj92mtfpzYHR9VjToHEwvW4sz9n0w1Y998v3oy6YOh/gzfA6MNK5ejpOniRjGYTJ6FmCHQ6JV3agM7NCwRBGHZhNit4TmFQYOlRIWRpWhkPilEqVAVBvOpSVlJ87hslZWUgkkGeCV0Dt60mEJ7Q00RvBFuZ5meaVLO7G34gJHlgu77aAXc4x6kOKPFLcMHxGEVl/vXpKMK7l/SUlJSUmbx+4gJWU50bbyf0sNRECrGwGl6XHYf4tlmgYx8FA6Gn5SCq0NMvsmGly4tmOz0jfSvYmGho6D3MP8Z+szcHQNn1Htehm49rB1Zj9uqQgf4iJYh/iSw36hijozGO7jqxdkMas3kAEChssUzcz4gcmov8AKWKLIgshbeNDRiouWB0ZJv8AQdGE3dD7T7OHTIStcIKHp+nIQJUqOg5f6hqKhsOQ+SYXAQiJRN0Fty/tKyuhWF6oQ6ymYUvmljuhyNBvt7q91oaipCWfwlTbl8ZejeCEs31SOCeKPdMp+p4p4GeCDYlesQkvDQpA/hghC0TKwxAIVgZTmVhfllZWVlY9ugpzKREHb3Bo1XM0w0NH8ifQ6H8UG3oWbr+Xoca++k/wXbB6MZh0MMoodDGOuabL6HQR26MJQnJLnAcQTbdLK0VjDAKIDFeSPtRpRpelw/Iwxqmm+oR1pabZ30L5MOj6+4NEjNjeI/JEp0JU+I/poan5n66WikCg0HQxLbnD++hivx0+tXQ34jfL03f0bQbaVKIfv+0G0rQkrb1BbvcStKlQXOEqUSp9dgEqUlYaNcICpSVlYdldmFT1KykrEzAu8BA64g9T2gjvLcp5I+28esyjvA5amqEGHgniio12jU2lps7MBCfUwQwSeSeSBUYBASyWR/Ez6MOp6TRgaVKOI8UeGeJiVidglztoJplkGkGVgbQARKeSU5h1BtgZWUiIyQJZLIse0NFBEpIibs3dheIZsR4qho5CHMODGw0S5ei6JbdH04vh0uXFNkZrZU+1/cGGr6eH5UL0QZUnL+mt6fw+Ompd4fLA0uDHL1rZqi3z6d48fZcroe17/UDbotsSwNUmz2oKHx6XftQeh7fn04+iY9CpeBmCXLlxxF88Hbo/RF0EX4h2HS5c/bMIak/BMJUpKQFvUKiViZ4okUKsbz3Z7MY3u0Nen/CugjF2lSEam3MQiJUSVUydyUqFNgBSyUiCJYkAkNKBKSsrCCSqR0qsIIaRE2aXyYtN4cmkYvNKrCTOi5uVSUITwzwRDsxfDHiPcJ4WGmGGh4lPrSmlTmJSDVFCU0Kcx/I/3oVgZcT63iJelz7aMXHJ6X/B26XR8/ohoaC/Z+qGpHXqZQp49DFdjpa29ML8Ezof5TmPRt9iHZ8SomuTzrGnC/jCV0XE6PvJg6GX/IhB1zdBhtPmGgRneExTDVce6YdH1JgdH1mYeir1Mez1/sITcsZBc3JYRs2TeMMCWppXCkJeILRCWUPUYINWZEIsvTGBEu8yHzRHITLn8wBUm0HRJjBsRIsXeKKMMpmK7fyDww1GtFYmBABCUlZTiBebTUkcRBB9EJiJQ7s9mbLlnf3QZ3YPmHLFQLtWcmVFaCD9Qjtg2nhlWis1vrI/UtxLcS/EIubj7yE076QkH8/0oVS3vDnhzQT2IGnQICIgDzJ9zaMuDN/vH104/HSYCA26FXvzH61Yw7+WoQm5+n7hjoyhj047OhY932w1uLvhHRZuhjokJQHuYRnfRbphouj3zDoT+Jm0+tF0HwTH6h0mh1M5xKWaZSOpqhvSFxkYl5l9ZtKPTGXzoZOgaMzJgjRYbQ2mUb7mwUTMoZsxib3+JBDeRA2PuHlRMWTb3u5mbW1Nl3+IFC3hGIj2IiogUTSOJASk8yW2A0aTHhMPEstpctBaJd2Hflq/4o4QbQgFERLFinZeahAzpFb1CprN3BD8lCSI97mEX0xqKB8uGpDZ4hmECVKlPwMFr41VpR8FPrRSUlICrzQErHSkC/2wFYnh0woLeHCfXnulryjbY4G5T8ofmKO8t76ohTK/QlwcOi8EbbW94cbFnZl7w6EBwX6mxhiICbLL+6WQAvE2riMAznZSJ7r8s8kpCQYAvX9wozpeSElBfd+oI0qwECb2SkslkslN/bCpSXFl3M20WLKDi21uOTolxhc7PkmOjCOkzDR0bn1MCXr80n1SHSdBDVgb4YiJAWRsswUbFSjRbtK4aShksrRzPKHeDaK4ENcyZ4g7qYkmItpWJE1dGWHslzUfQxNHyFzaBOGOA/KQfGQLnfAyr22juMtMILowHZHxDtzBV0OCfvPK9CtxWhqnHwRQpf8AE4viln+qPFttxFP0IVS/xFll4YDS/djpp33JUFfiLv5qby4doSbLy5lXDPezjQaEVHpj6PtJ9LHo2Lz/AMJcvX4X7CLoq8p/cOjbK2erCGiz7i+9K1G7yPoaVqg+n/KBESpSBOFYnininghG4UQNop2jwwLBHhg213YcU8WhSUs9gngni0KQgcwF0+7ouZNonmnkiuZR3i1lnknkm5szySgmEum6JrtocceOeBiVtwwYYYPDKQkdA5g00FO8DL3T3IdIB7yyKMdNgS4y59WbC8H+CQ6WIIBKTyTyQqgog1K3YwLwQIUK6QZSGJBGAGNCkW0e0uX1r0Ufggy5T7eFy7T8qoGNRzB6BKDVguYHS5cW+YIMHR6dtKJVvff/AETchcI5Hc1Ij4ZjB1VL5w168Y6ov2ml6DGqPCPlhqTHykS9dj8fogr0NDR2Hq1ngZ07g4H7h0Og5f0Qduj5ZXzMHQkOk62eN/SHR9BQ6HX5EO2jpgzFoStN3ugbSpUqG/ATalJREQ1AUlJWeKF2d4ceLTrCflDnuy/LLHeOsucpHtw8uhQ7e8wf4nU3OAlNBEGHUQkqhUgVN6VdD5S83CInMraJgm4UiOGN1AbjFEIiLxcGuVoWxLiFOJV2jwwFFpDGpsQgy1qwahosG63bFGYwCyAqV5lICM2+IH4Zcsly5cnhdDLRfOXgqpxmzUmcR2g6r5/6l6Hjo9SDBnf6/uGhpS5joxeaQUXg0NFSn7j56GK0/go0NRufzbDpPDoX1/uPY6H6Ia0ia/Q/qDB0YtmRjoAk8JhqzavU36DRYJjo/UTDoqH3MZWuXtMNDWBsas2qY6hNj9kwIdR1uJmh08CXL0G0zZWqTFCtcTl8sSXb6qypFmwiuGCWMwVcrIzTQ3FrlsEDbAgS+bbNps1yJtX5wsGhcpK6UhwEQWHHidtTwLBtbQOLgRibYLdKvMGYWX5dIEW8emhUY0RK5i3fc1jwxcbxFytKUxIL2DxoXyYc+I72wfiJwyp2ZWu8GjPYlA8NDyTyaBhd0nGU7HeMfsqI5E7M80OYhdb7f3KSkslxvipfwwdbgRmOl6bF4UsVywvo3qY/XFa3CeUmPR+DJJcuXKB5H5jGXL0VN4Ya9LV0rdz0bm/xP7SHQbgO3Q69TMehozJ7hHXvig6l/B094zHoNywOjdGPRj9kx6Rj0HRsJl6mEeh39NbJt93YwZk65opHOKYZu830mEvbl3LlbIhoBF2i87GIBUXYLCsHdIjbDjod35Qm0Z2GgZcd5KQpjQ6qO7XqF0XmM+zDEvQZlh+LoG0OgEqWbjhd0rFJptDtKNzypSVlZVeRgSsBoAJXdCLUNkEBKnijwx4Y2b70IWLGmana8fnlMHhxPntgsLKkrsX5Z7MPNHmQCHIydPDUEzZsbb42lGu5K5EKZsgfLECeMnihPuH/AMUfr2CebLDnDm5WDUTv8y08THW4LnufQhLyzzTyQml7Qc0eaeYgeZvj+2FRvPNK8ykM92GuPZKSkpzLIT7NSyWS5cZXfeBly5cEPKcdGXHfpYtjx0dp9h0dbkdH65hqwrLHoW/vMdWYpj0YmMYf5OuMzg1dC26HtMdb0eyMLlTxBCaZoqk8a949Ujhjo8rZlTa4acIdDsGLFa7F2hmFI4SEFWgW6EVEcIDzKumXZUHB5reU4oEuIjvHqUJuYUPIMVhtMNCOg1W5xp9SfQNDRi+L6Q2PP/OEXya/KGogEJcGfcy6GciremEglzPmhkAw5i3A0Lpdo75wi7RgCV/3reMwrYtq4gCNjh0QdGN5ftCEoiTL5/ShiBKgE2N/FSg/4rRSViHtCN+f3RM8ERxPFD/J+krPDGQOIdPk6SmlVKy94UoleWA5YDlhHs/qEA4T2Z7JfljzSylc5tZQDvjoRmO6krnKhUDzg2/F5UNGMvhLtrtKQKni0xI0ww+08UvwynDPWWPdBlczyw5Ii99pSnknkjzQCRVKQELT7DMCXLixbe0xIa5wx1NT/DCMgJzHUYJQS4MWYzBlml6w83kjw+xCLA8OiAm8ig3cp4mzXDIiw2kdCIkVkIb1tmwAmBqR5WqHVDYWG94JfYixlqCo2e5Lla0i5ZVnNMaimreZfkICu22mWL4iDqzPyfTVeolD2/3E13egwbQJUqfczxFfZIYosfklXN1h7pbZAwQHDHp372qZx7Qdo7xjNumUPz3Sk6I37I00dGJ7/UOj+lw6bp4bS8dB1Vrn9mq6E+EH0Q0NFsef76chyYY0vSsL65rem8XP7tEiaX+AIOlaMHmBAlRJUbDtASkpKRDKSkpESjsd4GeKeGeGEyCowpFoYSbOXQvHBFrdK8MG9klHibHtKk8OiJmbSY/7DaCjHHdi3eeZGS8bw5pT3nlnkhrmcqUy9L4JTG0OK/C5I9ofUOo6PMq7RExAAVBaacMrpQss888mgDUYIEGlOZSIpgb/ADLIpLlwweWoY6NiZvTx0JN3qtQ0JEnaLCiE1Rh7xNXXkJDQ0N+5BR641tjaHwEJcTPyMGUs3cuWJfX2mPyvM7THWJOah4lZlbkM6gIhHgg1IH8P6w0dFXmL5gbQ1YXc5b8RL1cPqCvQ/vpAPz/wNRhEy9elbfK+iGI6lTecXRXLL8/s1XQT4oajN3tYtC9Vh0OINtBlztMvuGtx3gYl67j6mHQtvxqqVDiYy4MqD7Jj/tjMmGjEmUJeuPU7dalJUINkpKSkTWIDFmSeKUlYcBNY8mJWY7uOZ58ohuhpzPzOLSnDN7EaFZgEmCHBL8pfhnoy9vZQTsxOeSXX8NpaDNjhlvlzjyzzynMAl4MQZhzQ5iA5gLHCm+CUZLn1KEuDo/NGh2d+8OqgKDQNsB5qOIlOsQCVoQvMTS5cGbAc3xCXpWi4BoafQgr1dCOm70UDUi7HjL6P7HEwjoE+SBMOk/t/cHVJT+DGhFin7cMaDLi3RbS4MUXaGjTvoTK89DDUuZn6iYaXoPhmHRQw9Rm6OP8AletzCbx6FmCbDox1XHVGzS9MI9nR2gpQhHRbTHUjifY6En2oBUqVKJtcwQDVFQ3+WU4leJ4I8UCc8CL3qeCBSkJsv9TsUvqYN4pVWhkrShggi1SeRAO/S0Q5p2WnvPbRc09w1T0Twk8KHcjyo+wlqEiL84eaV5S1ls30wNUjod2Dd5v+RLQ3nnnjQbsiN7swArgzxoghcZUlPY3yynMs5lkuAjxJQl6XPxF/rS4pGQj3ftMYsNHszaYMG4y4dzx/Rpcubk+RQehFfZMZcuMcamEGfcg6s74O2i7wZmmGlwYdsIsWXD90IQsUejNbgdJ0bFHY9DMUIaqiLaXqzthqx0dIw30XL0TGJ0YMd+/W9Nns1vWfUOnH3dFwN7pdREQgy59eYnRUoJ3f2laVKgvwfoSpRAIErV5P3KlEolJ8X/TAcR4CHBA+xGDyj7hxTwTwQDBHrhQVu6HRVlOWG3LDD/q4+TG7IRhzyY699ibMeVqwksqgOceWJAjMMBTf98AEUwjct+9KTtL4Q0WO/FbVmKZYbFXljKMFtlPAzblRXZleGWnbs0yYM88vA9mWG4808+jSoFu/eUrM8SAjyaIFZlIpBIouDtL0NEdtFmjlZUCBpu6adZrgzBl6seyYQ1zR9BgwdGDMDocR2iHRuCYnQ41x1Xy9S+sdFzBX39DD0QdHUP5P66T+PW6XB9z96mg3eR+ulKHYboDV0HL/AFDGtxba/kQ1Z/I4go+iYrb/AFfQxX4UIugkQNEgVFGMSpjSlvlKfihpUSO/alSkolEQqeJSJgSUhIBUrK8QkJ6INIp2jIEpWIdpdF2480AIb7cHynIRFzogx90ezCdsDuSFI2w4IwHO0yywtYYeDoAjYnY/yL6qu6hwaRNqLyFcID2nnaRd5S4xGDGqGVnd1qspCik30PJPMRh8RLJZARm4j2JepbT7EGOlxfNF0IS8TP8AB0XNnsQYMvTHrQl6qh5Z9QIy9PrzAhGXF2Y7XI/uOl6L5fQTPr+/SWxNh0f3uEw6FSw2l4y9LjPKn/J6Ve/g/p0/CX76U0OR+lm41Z9xKC8EDS9O7/Vw1JS/pqazHo+pNg0YRdtB0LdCJGQQzlSoGiljiASkpKISsAkrK6QD8dQ6H+WwhslSiXRWdyPrsbLMoPDAOJSUhFYCpSVlYmoBtlWJ4lOIjiFUJMSkWgGLlTuwY9pbmedqO5srlLi4a9yWgMyvRV8paFWDsw2EST3QTuwDtmIceAnnnnjyxUyQUF3CngSvJLJSG18WWaIJco+B/qD0EO4ov50mibz6TLxPR97CXqO1x9jpWuF4X1MI61R/kbhsdGxfKfUNWOH1DXlT8t9O9/5tpeq/Afb04f8AdmY6On0piamn9vl0IypnQDWwflMOjZJ7EHXCLpze4dH2IG2rKlho9eH1mGpD/aAKHeA0M09oD1N4lMLKlmEHF0wY9pZqw6LAuxcMkeDOUAtYkqjO0taESVo6i2NEssoxErcbRJSUgRBKR4INRMZJ+JEt7ahxo6wvfPGz2ysCuIVd5sJsy4HG0p6BF/chsQHFPxl1jZjZjDBDhxLFoRb8vVTfMpmedL85fnE1B28d2nxEBdwfFwsq5c1cov7PwFZ55408aeJFeOFRakHEElJZF2vNAroKLB0Ld6Y69N+ZerHurlSXoQf5O7Do/pcTDoVfg/c2jpw/np+h0jfjuHYjrvmoaEGzBQQdXEz9oapHfs6GGcMdH69QSo5dAhD/AByTHqGh7wcBsQBQjEMab28x0bobiNDvafDN0S8QrA7augvRibRnwqamXAVcJCrshGmUQuVaQ6MdCO4tocZhNRLFZjG3tyhLpg7fItvigU0xg8u82erZsCFlj3GIB5Lh+GjpVNwAZ1gitA9nXBmHs0JUYX466OiS4fK/WolE2rlP3oBKm0afKFF7EQLJWUlEIa8tCk8JDhIU9TtKcTxSxxCO2v8A0Sg5VRTu955GU5ZaKu9PqEi5FNECjKJqk2E9s7NRnNEga7HUZUFmVTCDyId2pyhK78snmLbRCJXtoG08U/enQ7ol3SnuiO6IEBuZflPVm7sy8Kd0/c2GzKQiSQGKDkaPnnkjIxPJ+oPcxEThnmhyQR8jKGY8hPIQbvBZRkAQSFR/BGUQZcI40mrB8zCMog3LvbCVqu7pX8R/quDMnR47pHFaPXhYm8YIqXdMXKolhUroImGE7qWEQroNF6uzsm52giiL2HlGoIQhxDSa3pjFZKe0uV2XvFWzMAAl64IL7YntEUlugrZFDN5QRHq6VhjXjtIa9ZFAZYQuFp8yu6aER+ma9pavZoaOlKCYEQQJYyQsaJcp/ZHvZYJmEJUGKvz/AGhDVIVJ8J3lYBLKNCMr3mXvJlfaOxyOjdruJmbxfvziWt4/YQoysRMMBHkNTNQICHF/0xKwGYglyZNN6euTBN5XZfIlOGLgggqLi9bJu64HC6DCFQOY+qK1KqZng/WlSiH2gljLhszcqy4ClIaHqhKSkrKwLOBjErJPFPCnjI8Kdmgyg+aQHaeKeGVAHaDmI8cZqwoh1CXzl+dWJZovMOXSHJEpmFcz3lzfCLXclCovfTPflwXxEU4kamFMjPE63WyBqAYc0RzDdobEHU/zhFM888080RE1hLyQEGh8+TlxyzyQ5oDmIqBIJZLlxbR7NSEwlzOntmLQlvSYSWAO7KojEei92lEYDCb/AGxLO5IVXsMNhUW1gSzBaNyvULbcTx4dG729DReehGmCyohQuyVqxyTMUTwkbENwJ2bFsOz0aXp/N50GoQipGLgFQAEca7ql2IXeXpNhIK6AI78H/HQU9BCjLe4VVSYjHNg/LK+AlbOwl8NbV9RTPbabjGALZLbx0h208ykOIiZS2VZ5vwwUEGEBSqF9XAgsFRc8RBFZ6k2N3wIr0d0OYqHki4I2F8DKNZbD7ZXQ9jgfqEdNxIoMC7/4Ig4bYleUXc2mxvCi6TRH0pbEoJE1dexPrdCMH2myU5M74FulhKA3ZfYWZcRAJftyl2PREhutkhr2iCqpe0CsAmPw32wRZbZJwbZQTgjRRZ2h3TIm0LiumAAXcwIm0Zb3KioltyQBAWlKiONYpcnggeJQ7TwQEAf4X1YQEiIiIlbRFYN2lImWJ3ghywNAjADuw82O7LCV+WeZjztNUzBgh5JXKbZffAWGeDWM0EO0S/DPVhxMUIBM5Zv1oDzkG9ImAYG1d2btUntI0LTtiJBtpZpcWLThlxRPbGkIU7FMk2YCUQxCKB5KhjUn83mYQdMwAimqqXjbbksN4dtrhjFDiC4F7P16jRqXESypBe9AFDQ08RBX8rAEdiMYvKRbPUNo7N058zAUfpAoVsB95Ri+88QEJXDcSnNEei9S524EobjYUQ25/wDmd5C5jNh2eAoCFG84gLz8F0TRm9/5RCMcvYg+Col+ZW5Nh2q5uXabXAzDyyjdzEXUN0PW6Nsw1Ivlx16k3aA+QZZAKOILDLiEr4yla5xTge8tONhutwwmBiBFCb02VD3wQlIGGwNpc2KW5WDqEU5NsuSKrvDBdroRQGG3u0EUfnS4TGUbC2naXcUO8rydp9rpvdBlxYaBqf4umEdQtxELrRqyED2YpG0WYraYy+ym8MHeVWqbHeIlgAhmwyyL0KIcRmXSSodtbvUTtLTPyYsgFXKlSpWoNpUolIFYhXshwRXIngIqUkamz4ZWCAUIs23PdLVbaY5cEtzlcjmxKJhZX0vaeIlg3qWErASloLHhxjpuU5o22hSXHky/KHNQ6w//AAZykUNjpk72B3QbVWyX4hwpM/UOBGnCGoXc/dDknmhzSyOkXP0xZBJUEQfN9SmJehU3eD/jhaCJRGXMX/8AWgQDSu7vMDmMIhM27wMJvO6YSm8FsKV0Mu8KPo1Rdgu7CQYmfD+5iuwuYA0om0ef+EwOh1Bi0NCZKFJlwgtuw0LxF3wDOikRfMQQ2bTlpGKItZlp31myHV2QRsFZdGEc8qjcxgumDKwgDCQQVOxLSzRYhXvpPkwxGMGbvbD/AGwmEYC5g0sF7Q0ZbIhGNzdFAiIjDoYJbHLUCRbsErGhUN4LgeIlPtq4nmIkU0oLbZQyHNk25nvq+mofe1IW5uJsA6MCPQsuLM+klPmGqwDuzuT6vQNpVScombUcNiMSohmtoHuBX44lREBhPgzE4Q9MQmwd6sfiEVAlEujATwS7sQLtC/LhbxvSeEnjjwkeFHoVusvcSwg3bEv1drfCAjtx2pHyS0Fc4D3w3ks/YzytP48eyZeUUqnZk3MEg/EviS8Wsx7BZwSHeOh5ZexVKuVCfNjCvJbR5RB22ML90odmN+4yzmBs1FQjYgWxtm6G6KRuG9qkozHepDjzw4LS936lM2R74l+BHgQKRzFbMOaB5nklTvCf5d5XmcOzMbxCFEWvQIWNbILh2oDKG0EhBItkvUQhvKEDbRSIvEAKykmw7wyCLCqmf29Fzd7ZhHQI79sNL6L0uXBl64sCXZdxBhgE4IdBClZWR4BrvKWKiQbA32Jg1doFXioe03Y3aFQbgphEyKV3CcNEZgKVkUreiR0TBoqIYXxBQ8QpGly5iTE0WEp5CXh0Q1SyGtyqBLJRjROzhiolu0JXxPpHQ4m9MEKw20owTgI/BBiGd0HgQuMOoUZ46MYEm55objNgjlERIW2Sxl+G1mGvJOmxFhi4YQR76XFXsz6KVElC0Swae1OZXhLl+YabIhn5WmYR3oV6VHscfZfQE/Iv7JUrCjtCCHi3wtCpUqUH/FsDaISkqCm4UBs4ykrKSvEBP77ynEeIngI8RASrCLu08aPGhxoU6zBErklOITEaXkjMJQdiX9mC92d+4BfvvKrlluWC5UQcooeygnnk8mdg5uzet3Q7FYBKPchFkS4pUQa7hpyBiGOMgMeZF4Y17pY7MyQ6TMpm69w5p5JVhcwbr7w5pTmCcyzSDH+2LDEXmGW8sElxSpszQJcuLAFMAEJtkoksAdESoJHIyzFBRozCYtBZLQZ4hxZU7JKQUnQsTHUTOo3bRfcXQjCWTBqJh2iLAR4EUr56fS6GXaYVNzA8NvLglMCSlhIW0iulwQojIBMIJTGN2nfBtBBDCpviMiCxfJDrVMPmV3AYCaJ3uYJNbveA71oRA3EYDxrcBNqoKJ5WnkNCFG7P7jYHBLF89O78QPrU03+NQmlQjKOV+0OjAcj96HQlv7MQUX9Voa73kTo+B/xhrUF+OAdHzD+9KpUIu0VpFokCKY0TQr/PBomgxtJUTQ2oZRKSkZEgIiMvFDKVPBPBqYl71tOWFDLKv8QaV0boRbrUqkAQ5U8qcphuIDQFSrnCjMLQhORD1g91VHghLZ4tQvMiXCOBtPVnow94yQhKzmhy6aiVMJ5p5yWRFs5vYw98pzBjCJWTasykwdeDMxKlXdyJTgbzJ8JcuDMGC7JUMHU9sUY/k/SOGcopUqKfACH8ErfdkEcveTeGBYQckoUeSxC2DvtUEhGVEk2J6g6VFy9eRU/LP5dCGlNvAz5qEOiw+D6Tv6/vqqEVj5fiDVnzRhiGtqDMtnqOi48v4vWpUz/4qGpF8+YRNcSWPQ6bxDXrQOjfEOlwwJ6WY9G6sw0YzaulhM+nOHRn9w1qfeh1nReuMwdIJroO0G0qUStGSBKIBKghU0USiCEYVgJWImzBZ4ZTdpftFyvwLSsR7pblPNj5WugPeJyhQ3DTBhUw3RlPYh3RBBuWZuLYnPdSj3RdZwVrvX4nqzDIngZZzHINWm3lg3ePcE7NYtAjAeKRXsnkJ5I6C3hYUIHmAlIh9iVCcZcVGQolq4kV9Hrm/wDt2y+it7gvtlOYahX4P1hjoaHzA0rShxWhoakYrTy9J3Of1IEdCY3C/cOjeHxmDo+0m70nSr8ThqkHw9A0sOjPMDowYt+hwwIdGX3Do+5DU6DrxmwOhg6U1FkxNL0cTPDowmJ0MHRMdBB0Ys+Q6Vo10T6BKIhKImzDZ9solJQRID8xAgSiUjvYmxieAl/ZPHlNhhDuk8JHigMcq4gbYaK3d0lfPJcwFibcEixIMCgdoRsWgf2zhMTthdMkvxge8TfsE8EUdk8WeBE0Vp1+VjyID3fMMq4HmDkYhIqN0fFiDsxPsy+B2WAcz3w76ksxDq24prdJ4c4jMEYlYRcPGgvcnkieZWUZTyEuXBgU/uZZ0IXd9nwx7dCr2oK9KVpe+jGYPResrbooPIR7dGxItiGuSM0NMGCB0ZvuGrDXsh/lXQ6JgaLosHpuYkvXCXvL6HtHsS9UiJGrBYTAga4MofaEqVpmwZcvX/SOjBm8e3QdV8SGhp9pDQ03dMfyH7gajPu59bCOhvEJHd/ldJFjv+gErRgTfxV/uI0AiJvh2mhszZImVgV12fpgEqocRPEnjRZB2/cDiPCnjTwoPY7RNRaRbJPDoVdo+PZE9s2TM80B/wCyCpt2Mv2UdOzzo4VZp+CUxPm6Uk7NbSlj4HxPAnmwc6gGrlMs4CMjmM8WO+HaBR5UOfDmxU2d4ptC/Oe6B4YgqcTdAw4PhLO+iUR2Q6LYckOSHNGl3IB3gJZKRZvPbBly4u0uWpoanUswmPoWGm9GOMo6HtM0NzoUYOhx1eiYnRiyx9oaulqVHSn4IdmqTCYP43hoGn1UHW4vw/5QdDT7n9QdtHTtwGVoRUnH6IPh9F1KV5Xy9Ip+ZLFtB0UrV+kn7lRhpmdK08/oMIOiw2zyfvRWq+VNo+MZUYsa25/foS5U/Q1dB8n6QxHX6UxSoEqJDleWBKlRCNfiIBKaCCexhVKyspxLCUMEu7E8JPGQK2I7tB+08MeONegEFu7CuFBndNzMHynnar5QYtEY3Y9/5Gm3ZBjaL7rBgBZi83DJHmTfjyoJy4vlPVl+1M2CejqksCCXm0SORCs7Ss3g3cnmIcxKWYApcslJTmIQqbUEZcuOFAMuXGEWeaiix0NjH0B2hqvlhCEY7kOgVDsf8oMvRcW9/VQZerDElVqRg/8AVT+1x0OXqXJ40ZfQ5bQhoh8CPq+lY6DHZjKPstA6qjBWS9XXuT6zVjKW/reB0Dt8dJu8cDHQvmJjB1YdulN/wQhrZm9unw6M2kg6YaTozQ1SUv2gdB/ljpUPuecCHYiVtCoBKQEpAViBRKaVImoC8snijxwEWVgAU3AhViGtaUG5K8sryx8mX5RrrM2C0Y8yPbWjoxZKVd9NT2QgGu9R9hAmCPCiHbCa8JKFmiAmQioKtblm+SDmd3ebd3N0EXEJRvzBpOPPAniy1RBp9zjM8CeBKcwvR+iASXoacGNLgxfw9p/W46F8EfJVvpdr/F6OzUlvPTHfw/YoMWDQg2Sg+X9IMuXLlH8+8xly5cUuFP4IvgdDDuef3QY6Es/3x0LNwfxZDoznh+5hqRbMsHQzPvNDo6lwdFGOl6ZdOJcuOHQMuXplDVxMnvqHoenGGBNtFwAKfKIJYYBsTxcEsJEO8Y30E1KVyzyRlvcbPeWiSywyqQ61UsA14jT1YMsJQQrDIF7Wo26M0PXG4aEqT5JTzmWaMRUz9tTQKctDBtKQalJ3h+CHfWYB9EAiICFaG29ysrPATxkHBBxoD2TwJ4CKqLoaRSLjiiJAb5QXOIAm0rfMoa3idm5/6EDxIxLXyTA80XMyA97Hswsry9kMwbBHPcg0zN8IeIYiohUVEw2r33iDek5Pvo6wSjN8sesoiXBctkwsfTH9I8TM+fiGJcHa3uF9v/6lieWePPCitqTaIC/xCjCePDmIcSMa3/2gKiJTmAiP7cRn4EvVgOf/ALtLhpe7tdPjVjPt4S9fr5hqR7MVDDR0V+GDVlg+5hpcubf2R7HQ98W0uXBmTqK1g6DHEVr7h/gdF6YytIShlQ2PclUrYCXJCO0cgxK83rvAG0uLFZMURRH3ZuC3XEy/p2uIaUJxKjwE3bUMx6zfIlWYcStHZYhIUHRjHpLEqtiEs8/vDtkSFEBVWwwg2x2i5Cq0JlDASAwsvBrVE7VyCGz7EcWwwxdyU8RC+gVGxcFjDU8f7o6YMNexloJIJSyV2EeL03SV0b2dqPuJMw7tsEL0u+lmBIj/AI8QE2/UMhlv7RlWDLDA37kAgxNKgSh6JjXQfmSn4cIEQiRJm4f7S/Det4g3lEOi7xv9EQ4iOJWeCET4i9wI/wDVR4cxxCANn6qlvYixBcBNsVBridtIQneA2TUPZKGtzg7S4giQMPLm3ljgRlr+49hTyJ/AgWbwundZc4BPBj3m+6Qy7CSIzUb9hPBh3T8ympNsFPlR5sClsAbQBKxNndPdPFDws3/ffReZ0y2JyKFzKsiX4MeFEDfvKWZyiebSO28GsxHalwMCLdHNtLiytw0upuIKX3DrOi9RZodpKDtLC1WRKg7EJQjEt3pYQ1E2mZNSo7YrFQ2QAlwSsGu8fHdg4Eo4Jc2EzbRA0cQaAhjgnabId4PCErWEKjR8LUCsOJbDat9E1ILqFshW0cYUHghy3bRFe9d2EObCo0y193GzEL0qbFK5ef3EJF7TfMvQUAsQ4diQoRbQzDSGo0zKbcQzG8PGjHEzLFlpeHuTbBtKS6o2u4UvfQxik2VeiMd2GUi+UToSKeP3ARwFwcGwlziNhISRxbrwzsbpfGiNrKGtLyORZPcOUuVkFDeARYI7R/UGqb1B0JW91M29hf8AiiEKNq0Szd0I78QPqbSzSoHAzLLB9pMFs5HbAADto9nxh0L4JhL1cPqZD2gmHXM3/wAMEqKHeEajl6wia0mSpRA0oehm71RLKSkTD80Ai3aNGpvDgY0doIxL+08c8crhKG0O4a8Za2WI4NDYYFs8yd0Tt0TievhXvIkrLm32lkxFuw/2e0xF0nm0ChhALXDgTwJ4UeSOMyibk8hPNDkgVDvBKlJZCHFKTbXCWDeNGVEhITGLN1rhCWIA4iEo0RR70bl0GLod0bDMOj6zAvNvEcLEbCwktL2Wo9cWv7QTAOUHnCEzHarCQE5TcUEDmGZLljsQicWCcRUFG0QByIYgytPtftEE2gsAVsXNld6aiPstZoGVKlchKKPcokttn3CNlGnceNpvzLZY3M7ADzL55mbzu5Q2synqMQu55bL0Mzw6rlPHue5WK0v2xO9UD7lEp3GGj2OX+0WuGMhzFKiugJne2ypN90KMqiHYhrMKKXLELYW2RmNAWwga3g+IN7AbrBT2JIMLSEJH5GWFDW3gm/VnaOpuLGJFKBZklAtgbPKYvUPbL4TeYdoafdQdBGSgs0TblmVQipZWvKzBLUpqHYiJWBI3tzFfyIDa3cwNM2oiRNtJvpUwmT7h/thElQnjaXjgd6g2Mv7EeLSPBBQLecVz3T3Sph0b7M8ieRPIlTdQxlDkwiImiLqQREL8JfhLyAhiL2BPAjwZQ3iugjon82V90u982omUGaKIMI7/AMcKxurJKdQc7Q5n4lOV8Ojpu2A84uc5lBuYJhp4cyDvieZXmUiIbwkhFkvR/NxZcHRUHj+oY6CDd/LBCxQodLExFLDZKgrmovmpV+P1RWxKVwiAuQXpVL7byj1o6bE1uysL5QGPdxAR13wiR0bzJYtheP8AnEoLALBQQ0e3z9ahrRFAMdwgXzvUqLiX3cmYrep8TfFvuYKPdy/7Q1G6dnbMkSoI963UNTONHYRL701c7hTRMv8AYyjIfiMpbRZl9DPysx0Yhsd4RRruwbFtjj9RSUkLQ37aMy9mEwmx3aDsEv8A4g2Zs8jBcb4oVOTGqxi24MXVgd4NUecoZuiXu8RgLdtKgzNorVxoJejpIf5VrjMemYaMIOEGJ5EEcJHRLCGYvUuOgh3wNtK0bUwOjDQVElRNDGVptCWh3kEogJRCtrtAJtEMrD2uSHSeIngjwkxpiHkyzInhwLBIvM4D3kpwTcubt2/MQRF+ZaVbolr5aV5RSlPpgRX3yjEgKbVEOczyJx/WVxfEYA3h+CbDG4N91kNyzwnHNUwJ+e5QLb7h3D8zd7z3Eu/5gTkIELYmzMgMHM+KNswvaNfLEYLn4neWWpakSjbCJyxPJPDnhRxHzQXErLQsfqW9k8CU5hLmIF8R8yyEbJc3Lk/JFtoSHYiparYgFsbZ8YO2qAViKQbPKIy5M95WlCbwhQhQO8SnFGv3D9Q6HRcxhFhXetuyyVun1Zil9ylcNd4vl0rRKw2OCOXAjcLeuI+Bm4IdQdKbKTdC4gsHZsCgl0Z4m12JQAzPMOjB0GrF+4anSa30dojtGXcHaMqWsMW2LHMoQtZabMRhNMRACGskxiHvCQqcEGj2xtUzMVvL0Zpeh2Jcpio5liQiGMEnCXFO1PBiKEHhl0vOjOhhZQIvIxEcIww8pRYfMW4P21GMe2Wp0Sv0XUAWsHRFO8tzsUpJd4vvZcD2gWRIsli28fKnFww7cvdH6YT6DkcjE0Zu9vRWmxE4YmOFDXENrJUXOJW6w2lttsijlXTw0ygqtna4KJOYslgMC/bQvqd2Zlun8oVGLe5/cVkK13AzAKepRKIDlgCPKEV5/REsVRCXBZm/AhbK3/ZMYS6V9BKGAsUFgCNI+0bMjNb2iOCAVp3lVr/6Vlre8Cm/yhSACAFtYf2KIMlQmNLttqDgypnOQKZJvD+JlfBGnDfDCQKYaorN7Juo0G0bbP5Mv/7QHc/mcxR+7yS0r/8AXpkoAcOUEbkIN28st0s7wpO6QZS6LyE8CbdhgND3geZ5p5p5iKW81ClOZZNy6IwRwxGiyWTa8mPaOIsDgEYt0wg6XMHWaYOk6T/EzBAFcs3lRmMvYr7gYXSqgmb3Y1pAhQSiYlZQiCQ7StCLy4xmimoVQJb3Ala0IUwZaSD4ASqB1ZllYtKvmBAVBDYMzbOzPSZNsL6A3DHcLxlmV3IaGCC7rWNvdv2wWC1QkIgwRhSXhMzthm/a4sFbkHEapT6nUL4QKqEAAYIPLRuPVtS8O5cy7dgjS229QB23DwXvAt3osDZqjeBnasUSKhDZ5/gW1wJMqGOIS97ECbe0cRtCq3v0bfQH3Fsadpv/AHqt+5KIO97RTO4V9RB3tRlplDZ5vMFAeIp9khNGrIjo36hlAXaXYVrEihAJ3uZdheaWyCVRURCtgmc+1ylu4yTKA9so4RgQFDM732lL8+FqTA8wVmoR2gtKviH40NKNM38bwCVowhIqUSiUcTD8MqVlZ4oJylieMhxp4ESGhEWqPFPBPHoWLaB5YQCuPkizui5kq5zytD58oFyQ7vxPFj2YbO5L91SsngTxpzmXEFYr7p5elIreaT/W5UXGFuFtGVFOYJFlyNk2laYapFsl9A9+jGUjLGEp6hKJRHGjNWEH5gAa7TCZe0egoLGKYAgBRASmNxljbV2E2TUGE0BJg/0g/EqDBFNWOIKPdoQZEbEyMFBUGdEJuspnYnNlEMpsslACAVTae4FyRcd8iLaAt5SQdEnaWxhghBVRvQvMLUFARACCjotsfynQBFptDtDO3EB7aJ+I7wO9wPNTclQjBEwwAVVYRYskzwxqmxUuFR3hFQ/hRj95haCOIIbZddjiLy32XMdruEvwivNdiNrT2m1YNGwiKO7Sq1qk39IrAehN/wBNmYmhp9hPrNDSo6Xlehlt3nUNL0UhDVU/ZHtpemDMGtafYgy4RJSsxlSpUMYSpWgKhrorUIykolQrTGHQf5G0TsFL3ZXwyrT5Mp74owB36PgmpIMyntBwJ7E2942e0GJnhJfAngJxCNlMAMGAz/B0VpBKreIVXYeJRl6VZmSd0iU3T2aIMBp3Qh2OZ4GI77y3uzzS/wDAzzzxoh2wfBjKncSgbZ4UbBOQQ4XzDymGZgXU8kOQgkRFt7Y6XGC2/wDvIOtxure0h26AeXefE7SsiXqAUahNn9uyHRTfksDuYwEyzaIU43FvHDLx1cypiVKmXo4flUArONEJSWT6SCogu188ghYILshUMtpvefuwACMIAhHlhalG1rMWgTgXdftBtpen28Neo6GyGila4Qlvl9BFtPf7mEHS4vuQdDJ6ho9DGfn1NPpaa0dLs6qwhFXqjaGDpc+pAan+gmKGrCpNtWbehXjQIhKlaMJSkogJSISkKlHERKOITaE7JSVKwAhNykRKcTxQXpl3aeCeNPEgjR3IU4TxkpwYQWW0tmhx38xTK/MRVC/M3kRubPEF3+yAY+SAO0we/KRLYFzUeyiLYjwvieB8S23L/wDueP5yH5ZR2Uow0QwFynDA1Z53lQbPJcQdr/mYd/zHLMopNmQ250NPxzlgQJt/ZAd0H4lRe/wwmEgqOYE3YdmHaPonyhtBAXHyRpmZNzlsveCY+aW9yPCc1j8kNfYQqXRq98oMxGjNmGn5/QTaAEKQuSGeg+vuZVjb8TEIMI2OEnx0BlE+Y2iXLlIFMQniWTaNRI1/i3h0fq9I7fSY6Oir1M+tK6N3QhmP1MdWWuBDVbPcw0NZiS9CZoKOk/yxmLVJhqvXCYGhowz1dDtMCDq4j0b1217mHRhBVx6PqQx0Oz6RWdH30a25qW9Gzzp0tQ7ADo2ibvj+4dAucNokqVHRc7vhhKJRKlV+H7gGg8E8BAIggpiKZ+KHB0JCrlHtTcQAoGg7iyh2LgxkP7QOWMl/+2FH/NHObj7+DTOJx/8APHlQlVF1Z0sMuh4iTZxBmTtC0SuaqU7DfMO/80S/+kaWA+49QWcxYS8mUGaCA1xfiGU0oCEhbIJt5gW9/EoDeTjlhyMGxHhzxINt7JJSNs8GeHPGgnZklLYSnMOaWSj3o6nhBGOjMzzhjoweoNujImOl6YvcG3RvU29H0o7H+B01qxOoMaOmMwOhbRXrYx1HA1w6q8THoxjX8ul0PUW3QviTDoXzJ9Z0LtCA13T07vCf10lMI6Dv/wBWQ6N35r4h0JKeD5dBoQD8X7hK1/kcT+ZxqwoMy2al6XCAqSrV2i7mIPbXaE/L+kDRQis2e4h2JRKSkIeplXqSkpKxHEUduZQgdwg/Ynhij2YJt4Twov2zxwm3sQQVDkDPND2IEXFzKoh+mVY+eNlnzw05j3fd1R/upfIhWLEoM6Fzw9sS0U6GyIx5EXW7MAbuKJlo/wDmRjVwzIwn5Z54oh7TFCEOg62HaYw0I6TRZcUW2tzCLd0LKCUQejCZ4aJpj7Rweie2hcHR7EEvS4L9OYdH3E+k6GfvdTTe+h6IXL1/Ib9w6HRc/TBoaHY6UCPl/YhBg6XEyJ9SgPhqkJ+BitapT0NIxUc/t0StGHekag6XKOcfQnaK6Mw/1vHt0Ok4cVvyJWuDHZiRJUFJTnEATodfl0nXrYdnQpUd+x1XQ9vqLaMWTbSElEpKQm0KtCJWBbaCw4J4p4oRTEhDQh/ljCmJVp5Bfxm5iWDKedPJjyIjuh9mFwzl5X/6ZsSPa9QMq8R4vhLO2jQANwOeeeeLmzL2dtZ5dUm1Te8AMwm8KCxfbZuwZjI363uLhx5x/NEIHLacqeNPMQL3gnoRHMA95ZNuZ9xPppcWpZMMz9iM3g6MfY/UrV6shfOwdAtuP+MMa5mPz+hhBuMqA/L9Cba3E7H8E+mgaVBXqYaLx1TQ680g6JGff/TQdCy8eIbGjp7CP3MDStD8+Ch4EuXp9Rhr0x6KFoFOjdMDt0GDF0YTJ9utaZdNaXHB7as7ZjrUNwNujJMSH+L0uCybExVGwuFR2xqbQBKJSUQQlEpqIQWSjKs1AOC6uUMARRKcQ4I8EpQDlOIt2ieJ4JsoFYhxE8JA+0pOyPNjM4WbYO0AMJ4sE0I8GuXhlP2INRTNz3/MrywKrYhJMGLnA/zAsfLoLUzH3FoqwXiV9/xD/wAsO+PiDFuYeHxReUj3ksTYZsRQbG/c8L5lBv8AaICA3mWfmlqswYH/AMickmmfigAavxAa9svt4i7J+yf0J5Xww/8AHCLIHwIcWHGl2IHB+ZRWn/UizCeNPIRHJN58uMN7tDRcQM8tJBomirfnTDNmb7PTdlvKvfQ0sRYXm8zGAjobCeMNbDnOCvUa1PrM+jK1Zf8AOfqVoMgMVx4NDRVB2asxZ3dDF3ajS81tB17Zj0YdP6kxQ0Nb/wAuKG4ZzDEBcRIV8R2z8MayRzNNnV7R2OhEGajSFBHtso5YF/UJNsMDaGHbSowbdjahqNkojQbgQVZKR7ErXFgYRY6IJTfEzTYezMILntLsiNmukFQWxHmVRJzBFs35lJh0OvRH8WtkVjKg1I0DcY0ctDViY4JJtAI6/wCPEJGgP7hGpRKgEPPAwE8BPER22Z/qHGTxI8OHDhecXzBXjFN6Rg98yZVQ8/4Z5vlP6stKwNRLAibVPiGFLagCZv4IbH0hcktCuWUrvQ+UizNGohsRqWRcrLe++8oNFY4t8QZ7H5j0Aph5gmFUqKd/hlGT7DsQLZ+CU5PhNzL8QxF+IJDdkp9+2mE7dCdWMo3hsR5CeNDmJZzN5vVUQYxdywAp1uP4Zg6MGNrfpcXS3yxlw0dMYH+JfxzEhK6DqYaYTEiMhe0DlwGG5od1uzBHamFHv2ghXY1xlw6BZGqBFvRDh5kpDGjHWglWmBiqibmxGyfmihjzObDK423sxZDaWLgjrGBMkOz7mfCbmJeYnvBFAedxVC2MhW6Rl1di7ieGq4XmU3mGjGOvTM7xGKq+8VzLXnC2a2m3EUL1HwykxPmWDguMwdmmG2J7sFnLYWJvwEd6hYpEIsyRGdjb2wsd9TUCTYj6gCKWFhDRXvRwRveAkfLuRE3oLYk077eXTd45h0Hd4kzdbLN4GmXVmWwdizkm9wt3zTBlwOM0YnNfuD0bv6NoKPiVSomj6L+5RECIE5hpctmW0CcPRo6FhBSsX+WXdoYYgJRKhcwCpRLJ4IZQbygKgJrcy7Ap4kYwFDBVh2i/ZFoUzHaXGZczgv5m/uy3b5YxrkVu4LcKOoWhoCwmAe8Tt+KPunpnOIhgQ7sVw9jTd6wIM4PnPdN/Zl52YYGzG/vDkYckFU7MCVc8kOJDgynsk46HFnhTxojc7Q7IHTeh03phMJQ5IFg0aCWSBKOiNuhTfUlUREKTp4zBL0dybhIpYcZSoBK40dVCJCZnKNzhGiBs32YtoimFocwQIhwJAsGps1eIAEtkO4i1CAKwpVwkW3Rs9E3+tpVyJTUrkUuEXiFwbCtSlDFRjd0kEo033MAmRRTvtCAGIKab5CMNGh2qEB2kRlGpxG8Si8w7pkHmoK0r3tWjdgC8wCFSzH8TqYN3k2v+fqkO2qalxOfC2/MuXqCMBs8bTcCssowR4EVk+8TNDe9SzJpbtTzaMeDbp/wxFdZRfE/gc9J0vnBXpSgEh598zFAI3m1TvGa02hKRgoYCXFN3zBaaWlsxBbbte4TFae5XoTQIl+CAQIoFXacoE3pgAJAtHJZE6vYJV32xGpUYeYGu3JvGtqJqmS9mo5oXoNfe0L3Glj5lATVnyWB0b/SwxqiJFSYrNag2laJUqVKQF4CoCU0hAeJ4o8WgGyFEW7TxzxyricGHBFe08cUpeIaBqaXK/wAVQwu7WZiUNBUZieY8aPElfYSsVnjTzxDuRTvA7gQ/7aeJDiS3uQGUr9mIcaeFPAiDJDN6HNPMTwp5iIo3lLJBu88hPKQqzNxuZm6CGhjBvAnMslkBwJt2ydSzRZ9eL4UuXLIBBxGFoQJ7hXoOhon+2LRN5JyIAGCbd5eigA2QlBQq/MNDNF7QIFBGUPdYtZWG0yiUe1RvACdioSiHv0AjsN1h4hDMECbYhgBCEOx+mU6FKvuIFoa3uYB2I7rkVjoU5/bqIssj5z60tI3WL5IqADE75QjQ1gveAhsFSoFimbJ4JSg5YylaVriBEVhIYsaxWVXQLjBo0Lsb+oVQKLWAGKKixYCkZ3ZUPDE2gU4DudklWqoIzoLYPeOhvYd57s9LEqEShmS8tJT41Y91z0Fz6sMaMcW/2R7OjN6lQh0GcDQ02noEG5MdDTCYQ1zzYQ6jQ6sWCmNPwk8JOGSkoJ408CPHCmJQxPFPDPHHgi95PBngnhlfaNNyLG04oAwTduBkXBUv7TxRjsYhKlTEC7RTJAGwZQYq4iOkeZ+ZcTgh55Rj5J/Ziv8AsmG5OYtECEjt+mbUyvZRibVwEQw5sbSf+GUnDVqokU2YANj8S/8AoS+9mo3JUsMqiiK21YpUUcvzT+bC3hSpddodxn5Iw0cyE9v2QVrEfiHfL8QbsPYxNFvxBnLXpie6+rzcpyJm7WYPiSBt80CcMH6hSbYrAgnMsjyO79uhtFOKXpcPjoFCX/7DMNqGBcIgnfCUd00L7rox2X/waj0Kz4P11QcwFQA0KQIqbsvQC9q5PYgA25PMm/zoq4BDoeJhYnXzN5gjoR7/AGaCVo93RGLDKDLl6HOGpMjp49Jv4I9oPUaV1OFs1YxkNujGLbVjM0Nam0mDoxldC9Tj3MCGhM0W730OIfrDEHRnfxhDS48nEwfBpUqOvalNFUoiIWuwkaYds3y5lSok33GESiUdFKJRxPFpG7XlHjS7sj/103sYKkU3E5hCLfuG66fmJGst+CPK/M2cxbT9s3/+WMFmiG7ECT2SgOUxnENlKgIrIZqMuSvUs5J55ZdVXhWwIDDufPDvH5j/AOmA7vmKRYVz3WPJnNDyl/4EEXaGBuJKM/DP4E8n4YJiVkWgI4sYJgTwocKBb7hAwG2wMfAXGARSIfWfuY9GtHaGj2PQzHD2NKNHs/jfSGp+KYHrRlNHtnMMR1VRhqJoMOjA9zDo2tMSGl9A/wCG4mwa1GMrbp4mqRx0ARhuMWtxdAaXGH7THoe6Hd7dHRlfSGrKvXmHQBvxPrHRs9qfW6E2n3KGrBucroSKx82+OkXwj+VhLl6L+TuaDRl3a7/rKhKY6IO0I6XEP/RmFAlDnSm8EVexD8GUStE2lUp3/ZElEpKQ/wCjEolJXglHYi9gu37hwQ448ZCRoSjRIZCkCoQDE4rIB7Z3j5T1/wAzaqVRDlSD2OPafxK/84HefiPAQrMupsmJfYhEeyHDirO6f91lLdfMebOeO83xEynqxBkZ7iUd2OY94nljyzkQ553KVcJ4U8xKcwrN5SySnMElkpR7gQTVkMEOlh0HTxIR0WOENWYdJ0SGr2j0GXGLfDQ07fZMDW5kn7nR1rc+IMuLGfR6KixZ+tL/AIjXefZRjV0HEoPt/egarboyT+Rx0nf7f87qOm/xr9wgy9Ft+3waESM2Fyb+GGjoSGD+yY6VCKzwn1F8ToVQV+V+XWtPqf1CXL03j+Zh0WhwgSokdew/cx6MNJUqVEilzwQ0qVoANoBNohxAxdoQBKOIjiMuBGQcwAiZwoIYnbyC9k8DRqgWbSriXGWU5gBhjbynkQ5k8+eXLO2XqGof4XrhHslksiztE1IVqpCCMpLlmjFTlkuLL0K61xdpZIgSWS4vtEUa3HujqLiy4pL3niDFikUlZ8w9iXF0qg+JtEuGh+RGwGhHEY9Ez+/zDRlzMvMl9Fg9wurLm76yGErSzXgs+oxaiw/u0DR03i4T++kqVgPhQY6Yy3VSM3e3+tHS41f0/cIa7famBrcVL0/cx6Nq9Q0XiErRZb+IQx0fvj1MdeiLbR11/JDoQNplmGrMEx6FtMYa7UmMNb6rh0DZl5A8s9k90Ud5dkxu5i0yl+UXWWJWWJWWeRHkR5c28oczFMLRtirQHKZSyzvGGO8eVpCRJrboSE0sVJXgW9wB0TJAVvY1Yof9npY/+6W/7ZvfYZlv+2P/AHcpyyf5mPvGe0KyPbhV3J5nxN8QEN3sh3R8Rp2+KV/05RcinBAd5FbSntBIP+2gxsm3MAFNrlugL7hmv86JZ2460m0/MJEk+LmER7RMIfCX8/EI2+/DxKcr8R5p4sGxLjpN8qz8kf8Aup/60H3pKWbKrFkBL0PTTZ6PAiapK5CDr9tLfhQdfhDN/bPT/N6AiX68IQ0exy/pMDS4s3E8kwdGX1A/glapK+LpMpdsfRjRqy4g3+4dCDqr0ZhmMHXAj2hrWiHYgf5X0ls6MJW2GJWjpwlStHQDStMY7DSomjfA0uXHv7alqFTfCBMU0HMMRvBGbiIkYZ+tFiBcSijmBKtTMCYgiBN20TuBMM+wQ7Eon3QMEAte1xl3lAuqYXvKgEIN/qU1qRRGbyF1Nju9s6gf6Zm6qjF+I2qXkSErAoiUuCGJLkRvKOB7SssrYniSgUN/uRXJmW+KVYNzwJfZgYYgnm+UBP8AnhTb7JvPYTMUG3ySrECqP/lE34KKGvEaTZ/EeL8Ru2r8ko/+MPLG5t4gzO7Krs+Z4/zKE4szBDL8zz4qC+8HPuD2l7lsYnID8SrN/EuizE1+97MTyJ4E8aeNBvvagQ5NATmXN/u/SGIS5tGIeBMIMJcfxMQ+uGqT98CVoygfLoWiTYpi6MGbnQa5UDowzGBqotL0zzE6L63QlzGYmpEjBL0vQtuhhB0YzE6RqB0Df2mGjpS/OztEKtRfTcveXtmls5qbie8RX33ZF2nfFogiG8GEThzL4vrATvqdioLwMXUcJyZfoP5gADsTJ7IthLiqPvYyiELuzKT4YYNnZEuDH8DKeq9hASNaulSgTCXpc7rL+yI7aFPUYAp75JUbLcIi9Oq/USYho7TSJqyHEzR6Dd4X2xIhBqZhfFn8a1GU/C0VpUp6RCAaISiAFTCgE8iURHEeAjRgih8yvyJ408DSGuuJcUk4BJVi/meZ+YORwyrv98rxJR2PRmkEszDm3qQn8yVx/ErlF1vBMU9ib2LKO35nNJSJR73869y0QvswIKMG7vwlOHHLUMoQTzzmSXYEpZgDmHGlOZWWMqOIly4xlNBox7TDR0zzB/s3KqmEHV1GjMJh0MJOjGYGtzCZYS5ej394pcsCAZdjV7xAQS8JagoqGb17xdxbjsjRQTmexKz25CUABo/fXCEdiAYXe0GXwiVmWd3DHX5GrY3YYCMYNw4qmulGhpf86KfQR3gsYDhAiMJMGFZ8/uWERVmbyDFC9xgKqL2x2IOp9ofRCOu/03QNkU2cf8tGM2pR/n2OhILP3+DpYXL+2u9Gfnzb6ejib3O0b/Xnqog64Bwwxqzd+CY9B3vDBKpUQlT5OA0plOISQUxPETgIcM7ESpEs5CV4IAdtASDpKSq4ebL8486Ud8HmhXn0Moirm1mXzJ6J4yJ3kw1OitWV0YzGGlxYu5B0uLMJjqxZRJ/k0wxrcfydJUSwhqpCngbRKtZLK0YAlEpOSLaHu6ezG0TihDMBU3r0i2hMnYi1aGlnBkHMOqJvZAlGvQ/gYUDZMQ92I5UF2Uo6UchsGZaXmBRUIljLKGx2POlVDS9zzrR1ZZ/duh9oD4v+ZqkWo/oir6Cfk/qYdDDLfRLlmlC8OfQaO8oZW0Dln/k1dH/R2gQNTEQ1SHpj2hHT6DMEGXE0zvMOhP4oY0dtUvbozTKB0GWi+jw1qYkG0qVKhLQbdZ/hnlRqAJki8yMOWokeZjkY8Uj4IQOu8VmSD4y+yp70i8YIXHpl+MHvqFQCbMrhlwDfCpsYQXUz0/EodkrglcEUlwSG8TtPxo+Sbu4PsgqjzophznhjWIdtxmC/BDvP4NDR1NwrK+kL/wD4I8P4jf8A8UpE0uIBSRkQXCiPeKzcgbPbdoU7u0S7PmJVt87yvKfzEbRZClVhBtokxNswMBDxHBbDDrYriIWJ8YOWL8MILIFu4/LLcGcxiNj5Jdj5o8g3LIDklNGNVef10Yy6ZyEGGiRItrzfuVSsN4kN+OQNbj2ojUT+5xPrI6EXaXU8v76dj8n9QI3TWYXo5Rl67oY9H30xQ1YvlQ6AKQSpWh1vmBLl6PdpNLlwzg7asZSY9DxMOjbL2h011Op2mxKIxIkpWbV08dXQmtbj2m+OqTPDo2Pto20rSpXQza5UqGjr2sw6MLQGGn05T8UZUqKm8QWvhKJWUgfiYClZgEp6GxiKe3/rEcEWyZwieDFUSFcsKdk7CMuyXwwHHywnYKpmbf8A6zgP8zhmytzVbULE9qfEA5+KLTNpaiqKnwsWmxBE7RoMbj5i3CxofiANj8QENzwMrzBRv9Uq1KL8Nypv8MpL/RhzPhhTJZ3KCGS9iPFlO9YNgfMouyUJN7zzEvwPmU5ikoJzaCdG8aw0VMKUaXoq9MwQ1Z9lDVi2Ew0dD95tNBKg3TYQdbgt/cW0NFmCYGqTs99AxUpj/g9eMW2jozHF0CYy9LjLg0NNhN4RNVtFchl6/cmENK0Mehg3fEOhbHMVBptoLPVCENHH6kdV8ifXadtPouhEZ2Bk7QNGuGOia8LmcND0svS4Mp7f3dOz4fwdDC/gl1B0SdnxfuGJUolEBV4cpKREomxECpTieAhxEM9LhgnjS7IgWBErbsxNCpFiqn8VgOKfmP8A3kwa7vwluWn0siBxCsBbb/xAPZ8Sn/4wjsWDMJgo0bfJCi3d4Z50IkIYznrTbICweF+IG+OU8+i8aeFEIb7QRmeYl8pZEJ9ylTaEUhKjJWU1M5hqsM3hL0xPcW0Nd0Yn+1zGLaEdGY5hpvHTh1B0PaYIxvRYmRqsXyTGGuaHbR30XTrm6Z26ca3P159SDHTD8TaXgly9FXvT6aEMrtqXOTvC9hVSwt0G8CehYQ6P7PPQxXEI6M3/AIn1KgjUPxB/cNCXKeaYdD3HJmEIMuXemYkTQmxvDFa+NQjN0w0rSl/SBKgaVv301AREC8KpSpSV4ieIhaO7KM8E8M8UGko9tA0tAe4ME3bBfcXzJ5cSO9nO6XytMFN4EW8p7J6ZfjL4xSGYnhQ0wQEcpFHdPbKctBgavUQ6Lj3R3cHRjMyLbRqLMZaENGdkGXpc2pgjGMapeQw0YqfeLaXLlxU4r1ll3HcRl61hh0Ovww1uZvZBsS4MZQpH8Woz7afTzYwG/ExJsbVG2Ck3YzoQ/IGrKg/hzDRjPndJvY4HwGjLhKvxQNL0/r8kNWWP77DMNB02/h/cOxqRV7UFF0GCvL0jPrQxrcN+xmPQ0Ui2dDPsPUGrMT3DtoGmSb9FaiX9wh0ANoEolEKj3ClI8UrCnAhL/wAXoO6EWrbzydN5unsYZyk8+eXPN0AUp4g5keVGqbRU7Oce2/mc0ENLesCKDLIPaE5pU5EVBCdWYQ4829xCmxmGCyPCTxkO6UjSxK6w+RPaVyJVczY9Y9gzxEaZAcn4iUd8D2P4hJhm0J7EIKFbocchxIp3s9xdAFneGMr7lJv8GV98pqf7nk9QSn/XP/Am9/8AEEC91FtsAspn8xlwpO4QGogbCbTbpYbksx805vmhgGIIFhn9kBLlxxPxAQZcvSrzD9aVEjKtEAutnxyHVjKvL9RbS9Bi3fxvFt0Kl4cu9PoWDPtGXB0/WdFzLqNgaXou0zen9JDox9pj0ZJsgxNcsHoWDS9O2PbozphK670vVdMITeASiIRqAshKlEolOIEKUlEpxETaKJSUSiAglZRKiNJ2UqBq69kG0ohNpizBNtGVDWhWtNYS9KMSokCA+KEQgLvMRJEQy6iA/BHaCUEAj2bleIA1d0J9SMK8TwEZeapiUpid0EeHK8GBYIcMN4Dl8z+TFsfJESQaESeyo2S/+CDta9QugAWTwQrll4tLbLdvuWgWwq4gFX/M/wDYgNQpzNPPYhn45/5c8J9xb3fiJsZK/FQ2r+rGgQUw2wLD/vI4KZP3K2SU5JuixCfLm0eBLlmiktP6plxigwxetXSseV6LFU8OhxLb9ul6r9IdDo9pjK1e6LTWjoBpcuLK1Jge5h0+H+dy9VSiyQdWZ6HXZFLlwYtowMNTuisasxmyBL1PzTDW4tmPZB6o6XPpMIaGh4dDr0YYmEAlocsxYy8GtyG0R0o9xQY0EewSk2mJwNSfcQJbwlbwygEdmXHYn1ZSXtHtqbt2Iyux0V7TZ5G6MqJGCZsINiBqCzx/9wERxqRYu9viHGipVJ4EvyYE12IgqjQJeb5MFgtlFICw7wq7NLi4g1Ae5GuXiO5nbGonKN7MiMyW1F7RHBdFtW/eBg1O8YVlX+ZsrkD/AK4q3PhPdBMd2FN2eDPDngx4EWBN2YRsn5hyEpcBBv6IJt0bEsSXCMJQMEWNWZQiwdSoMuDHsdF0sP8AC5cXQ1wY+/DVm9Jh0byWl6rFs6W4ZcOl6YdW+9BtpemabhA0X/D0dKYx1N+hMYFh2j6GVvdhqS5CGLA3L7w4hUVFpYfdbiwg0qwfC6PsIERUtr5hCwTniLFDYJ5JbDF08u8GXd8BKEEC3xjnN4PEli1Wyri2M6U9yMuLFv4BCXkLtkRAXGjgVAo0rQxeH7jkjcFiQG7iUOFk3ANi1ECo2xFtXE5YckGWoktWYCS7d3sREU6IBayoqi4XEVe5CQxwOYvznZYyimGiL+370IGn7oTLBEJtoAROIJ384im1AYssDIlQCU4nhIhlRxieBPBNvEWGcSClkQdTMTvSyjUMAw/KV72D7KHKnmRi2FwQQvaweZGqSMAlMolRlzcQA2NfwF2lUK5RJ3Qt2YhvTA4YeaGhsDeUMwm8SeUjso7Og1uPRcuXFtHSIO0uXFlUx6Ht0imDQaLMZg1uLaIQ1HTZ75sNagxTf0TiMmdG71QxL0uK4sI61PI6O7J3gQZR9hi0O6bx0MxNoV49RpLEKCztPwaEqbvbjkUBuW0455MIlXb3DZ7UfYTIzOxDBXZQTBQSwWEgLa7vaC1KL6G4jGdhxK7VtUqocw9jun9a1KYZ/B9xR3xpz99pv40OJQUSoux0QJ+EZVi2qlDG7v5iWNjhNvHfjukMEnacFrCSoEceeZa3dSFm41cLEYglysPcIFqp+SGJtPt/cNLiz7BFdDaK9wStqSfCgIyXhj2ilIMGXHULboEl4DtN/AcTugrabv5SBBBBQnJMnSBZpaJ4Ezqh0m7lhZsPqAQKlIiFEQymhpjcLGNjQIZkpF2qB1URhHgnjngnzsKBA6bl6Oix1ezCScNngZ4/hDz/ABOegws+Eo7fCeD4S/8A6R53hFsZT/8ACc0HBXwjxxxQAypU7o+WC7sRHdAGTDlx5UY6f/1LmGxBEhjRmU1pmz03+zpnqwQwCPCnhIJkI0uNOHxg03Yu2a+oPcy7PMPFE3YQ7kPBmCIBMZ4fzGzD5hLQKdqMry9CSZ+KD/8AygjSyZJXKPxEM/SeV+INdTXTbUNbhoyQhblfdDASB+6SsKIi47ZE20e4ZFHbPDocMvyrt8ujKlbT5KfcC4FTGitWWLDatfGmNGP0vuuGhEqA5Ubf5JQR3iShZAhRCUeMCFhSnhgOsJAKN0svr2xWOJYHI6XcpVbXBJWXaJtGIYaXoz8scHYxuFYdQDS19kNwwbQl6bfzI9jocMukhO0iCPBBUoy2s7EdI1yIdpYOcDvX4i7eo7Q1ziG0e9Hi+kSCO9EatIKJVwKWpdpSwgMLHLmUdiRPe8kCMoWylGU4Mz/krgxeg03kK0OEjLxTwShiHSeCeGeCFWINul4p4ot2gDBlnbSpxCtAlEpoQrEzypUAlJQ9kG0o0UlRTE6VK62XYeIENcXlYGlQEJfpgKlOJSUgPx5UleJ4p4SGUHEGCkUyIvmHCYm84jruwh2IfP8AMXf+aPV8iJtnt2ZxSOTgXdDyEbCByEAR1A/60TnIgxOzC42N0lXZ8zn+8r/+0FIOZfd+oczjdX0z/wAWbfeK0aH8RWfowjRqyQ/76KOaufcHMJ5iWcksIx3OzRcGXFn4JSXGiHBNphNyaOqua5ejpeGhoq/FMOhbMqFUlEJ5IJdSaLiBgRd+o1sYCFp5lbaUEAJtCGjE2i0ezCEvLCqXrGMMgtw6qirR5SlQJYnBE9hEvZYxDNubJtLz2zE54026RDqb1dL0VGlwjrePZ0YzJper2xbS9cGYo6rboAwjd7I9tGXPoRnQdp9iHQ/pB6GV+WGtxbWhag+ElwqXakWO+gHuRqECu+gCbOqW4s0Iz8Ewasobyn0mgaFQO+5ivSnU202r5/aVK0UlaV4vURNiV0sB7xYYjwk26TP/AAJT1ZPuW9kuxD54kTBluiPo1c5sNvljHEqoeXN4kh0s7dyY4fE8M3whMVGIcCSs3+02hI54JO8VuvTHiZ755YydgkHAhw54PzPIQEekZU2lksjpeo7OgkuLE36T3jHUmbphtBHECjRjFDICLN4rltcAQVco7QVyiC7iCAP92ek2l6jbUdMJm9OGDbozdNhM8damwfOp0zzaZerB8vS18YStSvhuYak+0mEyjGybEoeYNC0+RU7qAgJBRFcbtiW4cIoBHqrbPJPT6hot6joqjgaWiehLAlc4tGNrJaWAS7Lj2Js8vWj+JBUruJO5wHfwS7WgZsdj4lzfRX7X96BqFYEaBphQFugLhSgURgdxwwbmwvY2hoDRa1DAH03N9K8X8zCdqoMEj3IIm5qbvcPghiBZR6McBTudO35P3MHQD8ToKHSjiUhGUBlXtGHhhAVF+SKdieKBYJYnmFUpyy8NyVN3zsGTy9PXOeTLbDUCwwdwjx54MbApvN+UsOeisWzKsjDyaPyxmCwpzprMCLd4CYbRZSj4RDwVKcwvlGt0UUIUSyUfmTeP8HpuXMJdCLV0LaXL0wmWMvRYtkx6Huii9cJk0Ojhl655h1WLsw17uhYb/jDVvTDtpelWYaJ7Kh+45DDKen5lh4RDNhXLNpd4CzYzTdhFDvSIAYGCgNVXuP3NhGUicdQABN4mVEVNNCBNK1hAZQjZxAqnChCuG4PxFb0LoRWqTeIhaEqbV6n7PQjjNbQSLaRFddFQssPebqs1GWzZjYN1UWaUjhUvMLF9ndG2SrFnDcwgDRUCLuqRCTDNgcq+CXsPgR0nBNyPhlVLAvHZmVjQgL5j20NF8TB8el6nc5cIOtKRh0CyeExQ1WzHsdDO6CBKlEJtDtKSiUQLbQGU1AFYl7EOKPHPFKEal0FiMaRSWczZVc2ssvyj2n8w5cqbe82CHTXRepowCd4Ud55JVmC4X4iu8pzyM8jHkY1wTuiWb+IjzPO/EU5i0d5Uwzv0y3t8I8DDGGGMo+SW5R7KZcZQ35BKwHP+YN3fMpBFMK48nQMDd1YcUE8RLOxLihglmso4jxmieIhlM1PHBtbIi7SSzJlnYymDnfM86Xg0j2i+bW7EXd6w/wCgnj+EeIP4QQ3fEFxpe1dZg9O1BjYwXHyTyEsnZvP7puNH2uzGEpDCO0ASkoYBRkrS7StyWSVJlTENPoQ7vjUhxuX87wm2GGAS4YIR2UzJcrKJRpuogNhB4T92m7puxqA27ykJg+IJtoIbXFK7z96LRoyjiAzVOu+8StyhYa/eQP4yGqTf0kbGsRn1cxg64sxOow0NMtAho9/RLHQGrKnDo/ZMDQdN04akvV0Ix6FlKQXtPFPBPBDCOMTwaFImsaCt2ngnhnghWbQOJ4J4p4YdTYiJSUcQbQAcA4lZTiUISyAlEBKh3QbYkqEBH2YEqVHZNiPECURCIMJMEqUSkwPcfTggQxAcRlWqzIaxL+0eMmzVIZAMIvcJVBI9u4Eb7k/lgT/kjw+aPBfmPbnvxoYGCNu2zhjZ7kAcr+KhRNxRKAjoEtzhkzAu4HuAxf8AMpjTdvcvN4lssgYr/Eqz8cELL+IpG92xywHu/EZ/GinbHVNIkFNvmhwp5iI5ice3/NCtKLlz9RgFbmhGJkw77gBqENHteUNek1NCD0x4eEMQ1+hi20NPpR7CQ6ZbaszOnlghDR0mrLk1Zvr3MOlxOg1XqTRmOYQNQV0SYdHUEOI9ujNqdQMDpccSr2THStHv1TKjiZ/noWb1eIaVpjYNCMN+AYY6PtuhJQ884akwuR0rD2QCEDQn14dkqVKn20J+HASiIRqxCS1lf3PBPCivZGvBFJRsBL+yduKtyUbwQbwSnYo/9nE4GGQ2FFxqjNrb6wq3D+JRcshhVje2FNVBmnfcO/Nfe/nSLSQ2lZ3Q8sPP8QkswxTf3M8fRhsfNEcwO7si1uPaOwQZcGfWZs9UNK0Gz8wNukbToy6CGrNhqy98Wly5lDlw0dfnMTSumv8ABYLMexL1xjg64QsjOtQS9Q0ZvIK0dHEuoHS4sG33D0C30nFj39uhZe7xoMuLFuB0V/GwhoT9iENGbvZegj6U+/oBLlwTE0NFScPpdgwVrGlXskNauL8GgaJNvg6JUuPASlEqIjAE+Rmx2gWPBPBHgjh27zv1LIeKAwig8QobL8wDEnh33FO+VQtgYU5XZHcpCLlYSoxpAtPs9xMjUKGGUOzDz68KBu/EIqeyCYMWqE5U4aV5hzRozAvME1Y5sUGXpnJ2NDTD7JjrfTXRXQtyVola4x2sNLjpNLlxVK01Zh0WJNtvQx/ORbdGabAdGLFbA1ZX8MOju0EhGUlJcNHt9mAaMuI/Iwb0NLPpsHbox+Q+9IRI7T3IiaIOvyg+pgeGhLjr1MVvzAy4MWE6hcGb08jQ0Z9jDQYxV7CYHR9Rn0OhxMH2wg6/pNa0DdJxIECUQb3iYkQlSkTALwOlWeCXCcc1R4IR1CTecMgIiPkzeiVu/lL/APdPKjypvi0OdODSKOIKQsFgT8YowEO+IsWVvHsQ6SX1OtyKBYxPKx6rXARfeuOJYQz3w5usG5+I8EJqgzxMF5gOz8TahwQJTzLuzPEzhMendLc5flG/ODLigRUJGXzPmPLlsU3lHosZyxhxsTwk8JHxRixGaud4thIcvw0jRgiuJvKeE5hoaUZGVQ50ZV5A7ysJ2qQFWlDyw53xDuy/dAfaHfMvwZ4E8pGLU2YOSWS4M3RrYhuly45RLlxYqXsiaIa/awV62rNi+UNF0mrX/wC/SviQ0NF/XmDo6fSGbxHVU/iYkHQ0dn5dTRfigxqzKB2NDR/FMXT9qDt0zA6M0cd6uIahqzuhjpOOtQ/YmEP8HV0qMowwtR5xm6A7CEYbWEZLCIm1Byze2eKHSEvFPHGiDxKjaU4nghIzYOYUNQGgjiXL4lbYCpXiVlIT8sUAMBKcSl5SzxqxqAWp3gaVAQrMDRURDt6gJTSRxEQTWQi8ktocE8MotFWhpIv2ifaPpWby+JMQHcru1EFAV0SO6MtxGQD+ICEY17ijCTbjwYRoVXcgwuBwxskFyf4gX2tdQl14doP/ANNIL2x9blwZGyDgw5CeQlJtC/8A3l6B03Hx+iEYRZjf7v074XRHWz+IhtL0XF2iv83pz6CGOhU+0xhDT6kwQOj7MMQ6NjoRJm0bdcJnoabJe+LW4biujejyQbEOk0uWxerYmOw6INvlMSkcIxuy52lWwy8EAMxQ3IYI6LU3kWyOjV3zBrNsoFved2AmERa8x092PQ4jSJyt6LRcY0g0sEKmHDcm4iuxCq1ydCVKolwO5uAu6QwrL5lKD0TCyxxN8DVjrSJgSFspgMZ1T7GMK7IMx2IfF/eoTihIY2JVwgMoSxMx0HQDKeQr4IBa1BU1Nq5Z55iu0u2veBXsdvJEKa8w8Aj3hU2iEAgJIQA7SjiFgilVgnhjwJ4Exv8A8o28vZpFMmnyFQkgtglIBQ1PNnCo8klzsM0O1/E9iU9icxlhAsxgOROaHnzyJvttoELduZrPUyizyviUsZSWw4sOJKVklKgu/NspLlxg0sHQVQYtA0+2j2+oQ0Z9+HRlTGGjMxpKlaYTLoYfdCGuZ1JbQ0Oh1elIbU2iLQLMRm4IvGMOhVl/nc2I4VUXaWBziLF7pfU2wxHSpjHs0tUBbc7R0BAr5yhCXeZJcmkq94mxKr3gAjsRJVxKLW3NlriFBYBM7Goxbpi0Y2z3d4sWW2BmYE8E8OHYm5RXfuiTMJ9yHSSBC5oIhWbyvwycz6oReOGIw2sro1An0H6yyxbq2AVYdonIg+20P45LB0GC18QXmDeIc1QdpwpnhGhLlaLgzY2rhzkVuGF31t2uCXJAdzRjmkLg1/XhKNGZRqJSrCX4g2nZ0YYwgcG/UIAYCOqvxU+uiifqaNGYW3EZSBRyok3iX9hF+RPGRBOEp4i2YQ7TxxlSrY7y3KV4CIW6iXexZoxgeB8RcoCB2UTlhVwU2VDi5D7pblASElOIA3GHm+NXCGEHvQozDjSnMpGV3jNBFxVoSly9AMu4mv2YYhDTI1kY6/OYwdTW9L1JWp20gJ3ftHNHvKa2/eOAQKcXQOEKUdriOOiIRNhMIkrTGbxrUsIKjRoTcpe7YA7nmUKh4y4OZmCWWWEJemToSnExG18GHsBcIQ5hHEHzQlaOJViabAQbeJmmZd6cIogIMEIdrgUzK5u6JC4URKvc3VDEYXzu4QbnE9tAhEXPaBIrboYLHj2Eb9zULEo3Iy0jSCCm+NQCBACiAFYlM3sNnZgVVLB1pvcn7lqxU2wcokR36IwrbiPqPYAFwa26iZ42yjWzZhrre0AWtErwHJpcofm/SPx5cAEe8yUyXbSi3AsxleNGhVHsmoVXl/aNrS+UE5mE2ibYBYBFTyqNyy3tehUoT5sZ/tERC/mVgJ4p4pYq7QOyeDS8UeCIZUpWlWUYYhPdl+elefLy1KxulHvrpIlxsq8VLpkikeODuhC2O6UJIKu+C5c2Qo1ZRBImXdmCD3BtpehLl9CStXTNPCzyJXnEEk9pKqkhplAcoglWArlCokDvKkGRYZSvFiSVZd++WmekFhxGV7cWm5jztDjTiMODB8zbNkoEeL8w7pjxpfWIA0Kh4od+py1FWIFKzBcR4YplyQAhB/65508iJWzlhtKkii2HiYri40t7kGcxLJILiBa2RVQbRXjYmTCu0t3oubTcHiLJZDRabvF2jd7x0+bhAV0aBenL+0GGoENFYmf+SWKN5UECo4oNidy7sbad9kPgVL3hE3HISkObdhLsKlyxyIPwY4dGZbgoNaXFm70NHMrbxFbKRdQYiw4Ya4LlIE26TQcbRK4kTAzvtFFokKtYokLURUFqqYqF9kTbbe7mUjgoTtQNTvy7Fx7arVsNR8UtRCJKjH8kw1HTGOh2oK1veJtDvqoghnBKlSkISJWl4J4IQt5mB0j0uj0ZpklZ4pWJqIkZWEGVglI0qx4pShBKRMeKIqbiUiHEpNiEoQgCIQCVKhm2gQ759fSiUTNBswCURCBUBbAJSXRMZtYgGeDSeKGfEIKdpVG1N6mCFH2vebWQES92FO75iqBbTxo0rgcD/wAYJNaQchtLttclnInhxdgotEBmNrOXMxBwwjxQOi0OfaKLJtwZTwZCiCo4wlncinMZ+ZGO72SnTcbINgtrmT3Z95Aj4mzN1XefAwY1O7vMg0JtA+HQEdhlQcaVri4QBKhiFJ/IG8LNbG6IkFJ3TzAE4IGi9peqqmz1S773QRpe6AxjywjOIxzFVbNnF7pacnegNNqeItiGrLdMbh0FmLMIOirhs6J0fY1uDM4xhDT9sxhL6t9HR6MZmw1SbBDV0vY0vTCLbowmboY+n/dMTpth6ZWPuBrgx2+0Oin54auiDStAWaGjBoK1WFQJUonYu0AQCVY8EKmpEhxw4SPAhmDIggqD7aIGIbesMClJRiHG4BhQHz0vZswiOPiVwwVAtpWG5hFlxUFzFr3UoQG7QAencJWb3OZYLj6MRagimyrRgIWecnmlIb/M/crRLJtKiyVu9QDKiJcAYNB6/eCVQQNQbvmpTRuuxGbot3ho/gjsdJExLl6XDvouImYKNJpUG0tDVhk6c+lw+yPY/wBK0dFtMnQdGMgO2gxdGCVozFj26MJl6WwlQl6DHuHYgaqky4w1yTD8sNLjpTZ+UNWfe6XfvhoxjseE0JeivxiErRItrheGhp99qaBffA2NArTY9c7UNccmJ6lStGflSn4GtaVZlEpKRMIlWNA8cYvHKhwYUY0a2yBJTk4Rg2Ue2yVNkvO+IEdqepUKSoXb7IcWeMz+7BIPZA8pvYYLN/EA3a2LBuHChzk8hM77RxmWcy9Mz7uLQdGUmEWKCbIwhrkmMNKiQq/TlGPRXQNCOl6GtQ6BszZI1YcEex0VmHQ9oxHWmYTcEHVmODtF0sgxMDQ0yT68Nc2kdEvs0GjFfskvV0peyBg6LMvpfow6APwIahCel9BMaAhFlze+nQNbl6/cwla7E4Ut+PocTb0Uz7pDoXwMMQ1Nn0mM2lafUZv9UrRSVAflgJ4J4JZ2iPzQNTxSsrCtWh7y3Ok43Etv301ckrnDkzayhCYCXu4hTDiqgyCC3KW5RsO+b1C2lOGe2e+Mq3zCRyQk8aCRPDZoV5gWbQ8kx6HW/wDETcIQOHtT40eHLxBRt07/AO6ENfaDC9XRAwi2ohrCV+3SqDBDuhoh7EaGHjhLxkPDEzeVEGbi4tgU0waZId1PicdRCxGYr7EIuaFLdN55y4YYU3VpBU7MrWW7ZyXAe8IArbEMqDY/mJMJXmJTMu35BoOi9IQNblfODQJUJuPj/lKiaXHb8E3ouXF03/J5i26FXuxfFg6stv8A6uHRtXn9NDVV5XF0Kp2OpF8U+jDVm+I6N8xtoaZOkza/cNCVMUwmYGUhCASkoysCnaBKyk8UoT5aAni1G4ThSmkAlRYxbH+CaXHqbiKSiUREFVtCVKREpCVAVKJSBhVLF9wMpKaAygXKm0BCDASkpKJUgEIDSoKU2umiAggXIEpKShykAlImAGIPZ3ni0vHKmIgqQhtDGuqgIYd35hZO8ocoVZwODIhxyy+RCHMGjLSshO9hQzXnBoIlwHg+EEl2X4jErAgt0rcYcKJGSe8ODKYTboDzKRCaf/abSXqnb5w16Oho4jH8kOjK5ENVhfy4Ohob9WYdH0oK9EOhSErV1+aUQ6M8x6Gb/cw6MEF0Gn75iS4Ojbeo2i4dBPywOjBMItVXTvTXWJs6l7NGMwY7NDTHSGjWlQaEZ96GNAl6cXRnmwnRljkaEe+P7utTYo7Ty63Hujo92hKmENH5yomjBfcjsiGjVS4OwkLEQyml2/snCie0eGeIlNAzm3iKFRbvPdHqtd0KspU/8utXAlJTyfEKu0OI0zN523grMCW5aDwMa4DVzzTxJyGcKS53swN3gJTR3nvg7QSGjr05g0IEyfKO14laOtGl6L7tJq6bQMvRn2cHo2pNqBXQYnR9aYdBdp9iGtzM0Dr+wmJDV0vQ1TWtGJRgdGExdGbormMsQuOmELpDGrKvZMJWjBtMXQ5x9GXRGuSLbBhot0/Yg64s3v3BqtmbaOWjHZjsm4/OFLQtod7k9Bl3Riob8b6TfsZhKgSpWcbIiV0bPXFm4gqBoKTEIEUngnKaRJcScGi/LKO6OgvtA98CwoFNp9EsBGEQwJVJ3JFzgO83Jvp2h5YL3iWWCYDAJezBzE80pzKTMOYtpfRVsakZ93DRizF6mBrbHR9xFHRk9TAhqz7kHoyNRo/sR7HQkekY6GrMRB0YTBO2uE2j0snScJhq4j9k/XIwjMWYGhKmXSCGmaYYR0+hoiEZlmDo5J+5DR0l93VmDBb9phLY0MOhkNGfzeOgxycHStGYMGhotvTDENGG4HZoLLT6DF0JOgzGYNJCJtP1oSKQEpxAwdoR9US7TxS3tK72la4dJ4otEPdhJPmHY3YDuxB2ZOYiXvNiHQk2LJNsbFioqfQYtoMvTH7JhBl6OJgSoaM+zDEdfquojP3kwNGDr//Z;" vertex="1" parent="1">
                    <mxGeometry width="1552" height="836" as="geometry"/>
                </mxCell>
            </root>
        </mxGraphModel>
    </diagram>
</mxfile>